<svg xmlns="http://www.w3.org/2000/svg">
<defs>
<font id="RozetkawebBlack" horiz-adv-x="600" >
  <font-face 
    font-family="RozetkawebBlack"
    font-weight="900"
    font-stretch="normal"
    units-per-em="1000"
    panose-1="0 0 10 0 0 0 0 0 0 0"
    ascent="800"
    descent="-200"
    x-height="490"
    cap-height="700"
    bbox="-495 -278 1185 952"
    underline-thickness="50"
    underline-position="-100"
    unicode-range="U+000D-FB02"
  />
<missing-glyph horiz-adv-x="925" 
d="M279.5 38.5q-83.5 49.5 -131.5 132.5t-48 181t49.5 181.5t133 131.5t181.5 48t181.5 -49.5t131.5 -133t48 -181.5t-49.5 -181t-133 -131t-181.5 -48t-181.5 49.5zM638 46q81 47 129 127.5t48 175.5q0 96 -47 177.5t-127.5 129t-176.5 47.5q-62 0 -115 -19
q10 -21 15.5 -40.5t8.5 -46.5q-9 19 -28 34t-40 15q-46 0 -92 -46q-49 -49 -76 -113t-27 -135q0 -96 47 -177t127.5 -128.5t176.5 -47.5t177 47zM538 583q-24 0 -49 -8.5t-45 -22.5q18 27 51 51t62 24q57 0 73 -94q-33 50 -92 50zM237 386q-16 20 -16 63q0 33 10.5 61.5
t27.5 45t35 16.5q9 0 17.5 -4.5t14.5 -13.5q16 -22 16 -61q0 -16 -3 -34q-7 -39 -27 -65t-42 -26h-7q-16 2 -26 18zM305 400q18 24 25 61q3 17 3 32q0 38 -15 57q-8 11 -19 13q-1 0 -2.5 0.5t-2.5 -0.5q-19 0 -37 -25t-25 -61q-3 -15 -3 -30q0 -37 15 -57q11 -14 24 -14
q19 0 37 24zM421 448q34 30 68.5 47t60.5 17q25 0 35 -15q7 -10 7 -25q0 -29 -23 -67q4 12 4 26q0 23 -13.5 34t-36.5 11q-25 0 -54.5 -12t-58.5 -34q-19 -14 -38 -35q24 31 49 53zM279.5 446q-5.5 11 -4.5 27h4q4 0 7.5 3.5t3.5 8.5q0 9 -9 11q10 17 20 17q9 0 15 -10
t6 -24q0 -18 -8 -31t-19 -13q-10 0 -15.5 11zM325 94.5q-62 56.5 -100.5 129.5t-36.5 113q25 -11 63 -19t84 -8q184 0 376 130q-49 -170 -116.5 -287t-139.5 -116q-68 1 -130 57.5zM594 174l-24 1q-94 0 -143 -32.5t-67 -61.5q47 -33 97 -33q69 0 137 126z" />
    <glyph glyph-name="fi" unicode="fi" horiz-adv-x="722" 
d="M492 584q-30 30 -30 76t30 76t76 30t76 -30t30 -76t-30 -76t-76 -30t-76 30zM656 0h-177v340h-191v-340h-177v340h-91v150h91v44q0 99 56 156.5t151 57.5q45 0 98 -12l-1 -149q-27 9 -60 9q-67 0 -67 -58v-48h368v-490z" />
    <glyph glyph-name="fl" unicode="fl" horiz-adv-x="726" 
d="M660 700v-700h-177v569q-43 5 -81 5q-58 0 -86 -16.5t-28 -53.5v-14h118v-150h-118v-340h-177v340h-91v150h91v19q0 102 71 157.5t218 55.5q132 0 260 -22z" />
    <glyph glyph-name="f_f" unicode="ff" horiz-adv-x="863" 
d="M661 503v-13h182v-149h-182v-341h-176v340h-197v-340h-177v340h-91v150h91v21q0 98 56 155.5t151 57.5q61 0 120 -17v-150q-40 16 -83 16q-67 0 -67 -58v-25h197v18q0 99 58 156.5t157 57.5q78 0 148 -24v-158q-49 24 -113 24q-74 0 -74 -61z" />
    <glyph glyph-name="f_f_i" unicode="ffi" horiz-adv-x="1093" 
d="M863 584q-30 30 -30 76t30 76t76 30t76 -30t30 -76t-30 -76t-76 -30t-76 30zM1027 0h-177v340h-192v-340h-177v340h-193v-340h-177v340h-91v150h91v21q0 98 56 155.5t151 57.5q61 0 120 -17v-150q-40 16 -83 16q-67 0 -67 -58v-25h193v44q0 99 56 156.5t151 57.5
q46 0 97 -12v-149q-29 9 -61 9q-66 0 -66 -58v-48h369v-490z" />
    <glyph glyph-name="f_f_l" unicode="ffl" horiz-adv-x="1099" 
d="M1033 700v-700h-177v569q-43 5 -81 5q-57 0 -85.5 -16.5t-28.5 -53.5v-14h118v-150h-118v-340h-176v340h-197v-340h-177v340h-91v150h91v21q0 98 56 155.5t151 57.5q61 0 120 -17v-150q-40 16 -83 16q-67 0 -67 -58v-25h197v19q0 102 70.5 157.5t217.5 55.5
q134 0 260 -22z" />
    <glyph glyph-name=".notdef" horiz-adv-x="925" 
d="M279.5 38.5q-83.5 49.5 -131.5 132.5t-48 181t49.5 181.5t133 131.5t181.5 48t181.5 -49.5t131.5 -133t48 -181.5t-49.5 -181t-133 -131t-181.5 -48t-181.5 49.5zM638 46q81 47 129 127.5t48 175.5q0 96 -47 177.5t-127.5 129t-176.5 47.5q-62 0 -115 -19
q10 -21 15.5 -40.5t8.5 -46.5q-9 19 -28 34t-40 15q-46 0 -92 -46q-49 -49 -76 -113t-27 -135q0 -96 47 -177t127.5 -128.5t176.5 -47.5t177 47zM538 583q-24 0 -49 -8.5t-45 -22.5q18 27 51 51t62 24q57 0 73 -94q-33 50 -92 50zM237 386q-16 20 -16 63q0 33 10.5 61.5
t27.5 45t35 16.5q9 0 17.5 -4.5t14.5 -13.5q16 -22 16 -61q0 -16 -3 -34q-7 -39 -27 -65t-42 -26h-7q-16 2 -26 18zM305 400q18 24 25 61q3 17 3 32q0 38 -15 57q-8 11 -19 13q-1 0 -2.5 0.5t-2.5 -0.5q-19 0 -37 -25t-25 -61q-3 -15 -3 -30q0 -37 15 -57q11 -14 24 -14
q19 0 37 24zM421 448q34 30 68.5 47t60.5 17q25 0 35 -15q7 -10 7 -25q0 -29 -23 -67q4 12 4 26q0 23 -13.5 34t-36.5 11q-25 0 -54.5 -12t-58.5 -34q-19 -14 -38 -35q24 31 49 53zM279.5 446q-5.5 11 -4.5 27h4q4 0 7.5 3.5t3.5 8.5q0 9 -9 11q10 17 20 17q9 0 15 -10
t6 -24q0 -18 -8 -31t-19 -13q-10 0 -15.5 11zM325 94.5q-62 56.5 -100.5 129.5t-36.5 113q25 -11 63 -19t84 -8q184 0 376 130q-49 -170 -116.5 -287t-139.5 -116q-68 1 -130 57.5zM594 174l-24 1q-94 0 -143 -32.5t-67 -61.5q47 -33 97 -33q69 0 137 126z" />
    <glyph glyph-name=".null" horiz-adv-x="0" 
 />
    <glyph glyph-name="nonmarkingreturn" unicode="&#xd;" horiz-adv-x="250" 
 />
    <glyph glyph-name="space" unicode=" " horiz-adv-x="250" 
 />
    <glyph glyph-name="exclam" unicode="!" horiz-adv-x="391" 
d="M99 700h192l-34 -429h-123zM116.5 25.5q-32.5 32.5 -32.5 78.5q0 47 32.5 79.5t79.5 32.5t79 -32.5t32 -79.5q0 -46 -32 -78.5t-79 -32.5t-79.5 32.5z" />
    <glyph glyph-name="quotedbl" unicode="&#x22;" horiz-adv-x="514" 
d="M54 712h186l-47 -296h-92zM273 712h186l-47 -296h-92z" />
    <glyph glyph-name="numbersign" unicode="#" horiz-adv-x="696" 
d="M651 409h-91l-18 -118h90l-22 -143h-88l-22 -148h-152l22 148h-102l-21 -148h-152l21 148h-93l21 143h93l17 118h-91l22 143h90l21 148h152l-21 -148h101l22 148h152l-22 -148h92zM390 291l18 118h-102l-17 -118h101z" />
    <glyph glyph-name="dollar" unicode="$" horiz-adv-x="696" 
d="M584.5 52q-73.5 -55 -204.5 -63v-106h-81v106q-73 4 -140 22t-103 43v187q37 -30 106 -54t137 -32v129l-48 13q-104 28 -150.5 77.5t-46.5 127.5q0 90 65.5 145.5t184.5 63.5v94h80v-95q114 -10 181.5 -70t74.5 -155h-182q-11 55 -74 68v-128l40 -10q123 -30 178.5 -82.5
t55.5 -133.5q0 -92 -73.5 -147zM243.5 472q17.5 -13 60.5 -26v111q-78 -8 -78 -53q0 -19 17.5 -32zM448.5 168.5q19.5 11.5 19.5 32.5q0 20 -18.5 32.5t-69.5 27.5v-107q49 3 68.5 14.5z" />
    <glyph glyph-name="percent" unicode="%" horiz-adv-x="866" 
d="M68 370.5q-44 52.5 -44 144.5q0 90 45.5 143.5t121.5 53.5q78 0 122.5 -52.5t44.5 -144.5q0 -89 -45.5 -143t-121.5 -54q-79 0 -123 52.5zM591 700h141l-457 -700h-141zM233 515q0 82 -42 82t-42 -82t42 -82t42 82zM552.5 40.5q-44.5 52.5 -44.5 144.5q0 90 45.5 143.5
t121.5 53.5q79 0 123 -52.5t44 -144.5q0 -89 -45.5 -143t-121.5 -54q-78 0 -122.5 52.5zM718 185q0 82 -43 82q-42 0 -42 -82t42 -82q43 0 43 82z" />
    <glyph glyph-name="ampersand" unicode="&#x26;" horiz-adv-x="786" 
d="M576 0l-45 53q-94 -65 -212 -65q-80 0 -144 30.5t-100 85.5t-36 126q0 79 43 134.5t120 81.5l-103 117v137h529v-169h-272l166 -191q7 35 7 82q0 20 -1 30h170q6 -149 -54 -266l159 -186h-227zM433 183l-156 178q-29 -12 -45.5 -40.5t-16.5 -69.5q0 -46 27 -73t73 -27
q71 0 118 32z" />
    <glyph glyph-name="quotesingle" unicode="'" horiz-adv-x="295" 
d="M54 712h186l-47 -296h-92z" />
    <glyph glyph-name="parenleft" unicode="(" horiz-adv-x="438" 
d="M130.5 -2q-40.5 114 -40.5 246q0 133 40.5 247.5t123.5 220.5h130q-67 -127 -99.5 -241.5t-32.5 -226.5q0 -111 32.5 -225t99.5 -241h-130q-83 106 -123.5 220z" />
    <glyph glyph-name="parenright" unicode=")" horiz-adv-x="438" 
d="M53 -222q68 126 100.5 240.5t32.5 225.5q0 112 -32.5 227t-100.5 241h131q83 -106 123.5 -220.5t40.5 -247.5q0 -132 -40.5 -246t-123.5 -220h-131z" />
    <glyph glyph-name="asterisk" unicode="*" horiz-adv-x="474" 
d="M153 601l-135 99h167l52 159l52 -159h167l-135 -99l53 -159l-137 99l-136 -99z" />
    <glyph glyph-name="plus" unicode="+" horiz-adv-x="685" 
d="M587 365v-150h-170v-172h-150v172h-169v150h169v172h150v-172h170z" />
    <glyph glyph-name="comma" unicode="," horiz-adv-x="331" 
d="M81 197h197l-117 -297h-112z" />
    <glyph glyph-name="hyphen" unicode="-" horiz-adv-x="389" 
d="M60 363h269v-146h-269v146z" />
    <glyph glyph-name="period" unicode="." horiz-adv-x="331" 
d="M86.5 25.5q-32.5 32.5 -32.5 78.5q0 47 32.5 79.5t79.5 32.5t79 -32.5t32 -79.5q0 -46 -32 -78.5t-79 -32.5t-79.5 32.5z" />
    <glyph glyph-name="slash" unicode="/" horiz-adv-x="461" 
d="M305 712h156l-305 -724h-156z" />
    <glyph glyph-name="zero" unicode="0" horiz-adv-x="696" 
d="M185 31q-69 43 -106 124.5t-37 194.5t37 194.5t106 124.5t163 43t162.5 -43t105.5 -124.5t37 -194.5t-36.5 -194.5t-105.5 -124.5t-163 -43t-163 43zM436.5 205.5q30.5 49.5 30.5 144.5t-30.5 144.5t-88.5 49.5q-59 0 -89.5 -49.5t-30.5 -144.5t30.5 -144.5t89.5 -49.5
q58 0 88.5 49.5z" />
    <glyph glyph-name="one" unicode="1" horiz-adv-x="441" 
d="M193 700h163v-700h-182v478l-139 -108v208z" />
    <glyph glyph-name="two" unicode="2" horiz-adv-x="640" 
d="M611 163v-163h-603v29l283 277q43 43 64 70t29 52t7 59q-1 28 -24 46.5t-58 18.5q-49 0 -73 -28.5t-24 -92.5h-180q0 88 36.5 151.5t100.5 96.5t147 33q81 0 141.5 -27.5t93 -78.5t32.5 -119q0 -111 -140 -244l-86 -80h254z" />
    <glyph glyph-name="three" unicode="3" horiz-adv-x="613" 
d="M476 397q48 -24 77.5 -69t29.5 -106q0 -109 -80 -171.5t-232 -62.5q-68 0 -131.5 15.5t-112.5 44.5v201q48 -44 118 -70.5t136 -26.5q51 0 80.5 20.5t29.5 57.5q0 34 -30 55t-83 21q-63 0 -125 -16v146l150 98h-268v166h516v-154l-192 -125h14q55 0 103 -24z" />
    <glyph glyph-name="four" unicode="4" horiz-adv-x="699" 
d="M677 284v-151h-99v-133h-166v133h-414v27l418 540h162v-416h99zM275 284h137v176z" />
    <glyph glyph-name="five" unicode="5" horiz-adv-x="619" 
d="M471 437q51 -28 80 -78t29 -112q0 -75 -37 -134t-102.5 -92t-148.5 -33q-74 0 -139.5 14.5t-116.5 40.5v189q52 -35 120 -56t134 -21q48 0 76 25.5t28 68.5q0 36 -27.5 59.5t-68.5 23.5q-60 0 -109 -46l-135 59l42 355h463v-164h-320l-13 -107q59 36 130 36q64 0 115 -28
z" />
    <glyph glyph-name="six" unicode="6" horiz-adv-x="654" 
d="M493 431.5q57 -26.5 93.5 -77.5t36.5 -122t-38 -126.5t-105 -86.5t-153 -31q-87 0 -154 31.5t-103.5 87.5t-36.5 129q0 72 26.5 143.5t97.5 158.5l132 162h212l-196 -220l-31 -35q42 13 102 13t117 -26.5zM404.5 167q30.5 26 30.5 67t-30.5 66.5t-79.5 25.5
q-50 0 -80.5 -26t-30.5 -68q0 -41 31 -66t80 -25t79.5 26z" />
    <glyph glyph-name="seven" unicode="7" 
d="M580 700v-151l-273 -549h-187l273 539h-199v-103h-169v264h555z" />
    <glyph glyph-name="eight" unicode="8" horiz-adv-x="675" 
d="M617.5 305q25.5 -43 25.5 -90q0 -106 -81 -166t-225 -60q-143 0 -224 60t-81 166q0 47 25.5 90t73.5 69q-35 25 -52.5 61t-17.5 74q0 95 73.5 149t202.5 54t202.5 -54t73.5 -149q0 -38 -17.5 -74t-52.5 -61q49 -26 74.5 -69zM265 549.5q-25 -17.5 -25 -49.5t25.5 -50
t71.5 -18t72 18t26 50t-25.5 49.5t-72.5 17.5t-72 -17.5zM426.5 160.5q31.5 21.5 31.5 60.5t-31.5 60t-89.5 21t-89.5 -21t-31.5 -60t31.5 -60.5t89.5 -21.5t89.5 21.5z" />
    <glyph glyph-name="nine" unicode="9" horiz-adv-x="635" 
d="M467 680.5q67 -31.5 103.5 -87.5t36.5 -129q0 -72 -26.5 -143.5t-97.5 -158.5l-132 -162h-212l196 220l31 35q-42 -13 -103 -13q-60 0 -116.5 26.5t-93 77.5t-36.5 122q0 72 37.5 127t105 86t153.5 31q87 0 154 -31.5zM235.5 399.5q30.5 -25.5 79.5 -25.5t80 26t31 68
q0 40 -31 65.5t-80 25.5t-79.5 -26t-30.5 -67t30.5 -66.5z" />
    <glyph glyph-name="colon" unicode=":" horiz-adv-x="331" 
d="M86.5 25.5q-32.5 32.5 -32.5 78.5q0 47 32.5 79.5t79.5 32.5t79 -32.5t32 -79.5q0 -46 -32 -78.5t-79 -32.5t-79.5 32.5zM86.5 309.5q-32.5 32.5 -32.5 78.5q0 47 32.5 79.5t79.5 32.5t79 -32.5t32 -79.5q0 -46 -32 -78.5t-79 -32.5t-79.5 32.5z" />
    <glyph glyph-name="semicolon" unicode=";" horiz-adv-x="331" 
d="M81 197h197l-117 -297h-112zM86.5 309.5q-32.5 32.5 -32.5 78.5q0 47 32.5 79.5t79.5 32.5t79 -32.5t32 -79.5q0 -46 -32 -78.5t-79 -32.5t-79.5 32.5z" />
    <glyph glyph-name="less" unicode="&#x3c;" horiz-adv-x="685" 
d="M587 552v-153l-280 -110l280 -110v-151l-489 194v136z" />
    <glyph glyph-name="equal" unicode="=" horiz-adv-x="685" 
d="M98 235h489v-150h-489v150zM98 493h489v-150h-489v150z" />
    <glyph glyph-name="greater" unicode="&#x3e;" horiz-adv-x="685" 
d="M98 552l489 -194v-136l-489 -194v151l280 110l-280 110v153z" />
    <glyph glyph-name="at" unicode="@" horiz-adv-x="776" 
d="M572.5 669q79.5 -43 125 -118.5t45.5 -169.5q0 -63 -13.5 -112.5t-41.5 -98.5h-237v40q-36 -49 -94 -49q-72 0 -113 50.5t-41 138.5t41 138.5t113 50.5q58 0 94 -49v27h116v-236h55q11 46 11 100q0 64 -31 115t-85.5 80t-121.5 29q-71 0 -128.5 -33t-90.5 -91.5
t-33 -130.5t33 -130.5t90.5 -91.5t128.5 -33q87 0 159 43v-117q-78 -33 -159 -33q-102 0 -184.5 47.5t-130 130t-47.5 184.5t47.5 184.5t130 130t184.5 47.5q98 0 177.5 -43zM424.5 303.5q13.5 15.5 13.5 46.5t-13.5 46.5t-39.5 15.5q-25 0 -38.5 -16t-13.5 -46t13.5 -46
t38.5 -16q26 0 39.5 15.5z" />
    <glyph glyph-name="A" unicode="A" horiz-adv-x="765" 
d="M567 0l-42 90h-296l-43 -90h-188l361 700h45l363 -700h-200zM294 224h168l-83 178z" />
    <glyph glyph-name="B" unicode="B" horiz-adv-x="709" 
d="M648.5 310q24.5 -40 24.5 -103q0 -98 -70.5 -152.5t-203.5 -54.5h-319v700h305q80 0 139.5 -22.5t91 -64t31.5 -96.5q0 -47 -19.5 -83.5t-58.5 -58.5q55 -25 79.5 -65zM254 551v-122h130q37 0 58 16.5t21 45.5q0 28 -21 44t-58 16h-130zM466 168q23 19 23 52t-24 51.5
t-67 18.5h-144v-141h149q40 0 63 19z" />
    <glyph glyph-name="C" unicode="C" horiz-adv-x="712" 
d="M214 34q-86 46 -133.5 130t-47.5 196q0 104 43 184t121.5 124t180.5 44q139 0 214.5 -74t76.5 -211h-181q-1 58 -30 90t-80 32q-72 0 -112 -48t-40 -134q0 -99 53 -156.5t143 -57.5q65 0 129.5 24t110.5 64v-188q-49 -32 -112 -48.5t-135 -16.5q-115 0 -201 46z" />
    <glyph glyph-name="D" unicode="D" horiz-adv-x="759" 
d="M545.5 657q86.5 -43 133 -122t46.5 -185t-46.5 -185t-133.5 -122t-203 -43h-270v700h270q117 0 203.5 -43zM477.5 210q52.5 51 52.5 140t-52.5 140t-143.5 51h-76v-382h76q91 0 143.5 51z" />
    <glyph glyph-name="E" unicode="E" horiz-adv-x="630" 
d="M580 541h-331v-106h283v-150h-283v-126h331v-159h-508v700h508v-159z" />
    <glyph glyph-name="F" unicode="F" horiz-adv-x="613" 
d="M580 536h-323v-115h261v-158h-261v-263h-185v700h508v-164z" />
    <glyph glyph-name="G" unicode="G" horiz-adv-x="783" 
d="M734 0h-34l-118 68q-40 -38 -89.5 -58t-105.5 -20q-108 0 -188 46t-123 131t-43 198q0 99 45 178t124.5 124t179.5 45q90 0 158.5 -30t107.5 -86t44 -132h-186q-10 45 -39.5 65t-83.5 20q-71 0 -114 -50t-43 -133q0 -103 50 -158.5t143 -55.5q66 0 134 34v59h-154v138
h335v-383z" />
    <glyph glyph-name="H" unicode="H" horiz-adv-x="788" 
d="M530 700h186v-700h-186v277h-272v-277h-186v700h186v-257h272v257z" />
    <glyph glyph-name="I" unicode="I" horiz-adv-x="340" 
d="M77 700h186v-700h-186v700z" />
    <glyph glyph-name="J" unicode="J" horiz-adv-x="487" 
d="M92 -5q-35 7 -72 25v168q53 -36 127 -36q45 0 65.5 26t20.5 86v436h186v-458q0 -123 -64 -188.5t-178 -65.5q-50 0 -85 7z" />
    <glyph glyph-name="K" unicode="K" horiz-adv-x="775" 
d="M771 0h-243l-270 324v-324h-186v700h186v-305l263 305h218l-288 -323z" />
    <glyph glyph-name="L" unicode="L" 
d="M258 167h325v-167h-511v700h186v-533z" />
    <glyph glyph-name="M" unicode="M" horiz-adv-x="947" 
d="M704 700h170v-700h-181v410l-209 -290h-21l-209 290v-410h-182v700h179l227 -312z" />
    <glyph glyph-name="N" unicode="N" horiz-adv-x="798" 
d="M544 700h182v-700h-69l-403 428v-428h-182v700h160l312 -331v331z" />
    <glyph glyph-name="O" unicode="O" horiz-adv-x="823" 
d="M215 33.5q-86 45.5 -134 128t-48 188.5t48 188t134 128t197 46t197 -45.5t133.5 -128t47.5 -188.5t-48 -188t-134 -128t-196 -46q-111 0 -197 45.5zM545 207q50 54 50 143t-50 143t-133 54t-133.5 -54t-50.5 -143t50.5 -143t133.5 -54t133 54z" />
    <glyph glyph-name="P" unicode="P" horiz-adv-x="677" 
d="M523.5 670.5q60.5 -29.5 92 -82t31.5 -120.5t-31.5 -121t-92 -82.5t-145.5 -29.5h-124v-235h-182v700h306q85 0 145.5 -29.5zM433.5 403.5q20.5 22.5 20.5 61.5q0 40 -20.5 62t-57.5 22h-122v-168h122q37 0 57.5 22.5z" />
    <glyph glyph-name="Q" unicode="Q" horiz-adv-x="823" 
d="M754.5 186q-35.5 -74 -100.5 -122l100 -126h-202l-47 60q-43 -9 -93 -9q-111 0 -197 45.5t-134 127.5t-48 188t48 188.5t134 128t197 45.5t197 -45.5t133.5 -128t47.5 -188.5q0 -90 -35.5 -164zM275.5 199q50.5 -55 135.5 -56l-109 137h192l59 -75q46 56 46 140
q0 91 -51.5 146.5t-135.5 55.5q-85 0 -136 -55t-51 -147q0 -91 50.5 -146z" />
    <glyph glyph-name="R" unicode="R" horiz-adv-x="700" 
d="M315 252h-63v-252h-180v700h297q82 0 140.5 -28.5t89 -79t30.5 -115.5q0 -70 -34.5 -122.5t-99.5 -79.5l206 -275h-210zM252 397h129q29 0 46 19.5t17 53.5q0 33 -18 51t-52 18h-122v-142z" />
    <glyph glyph-name="S" unicode="S" horiz-adv-x="660" 
d="M154 6.5q-80 18.5 -122 47.5v187q44 -35 129 -61.5t158 -26.5q70 0 97.5 12t27.5 36q0 18 -13.5 29t-44.5 21.5t-102 29.5l-56 16q-104 28 -151 78t-47 127q0 97 76 153.5t213 56.5q87 0 152.5 -28t102.5 -79.5t42 -119.5h-181q-15 73 -128 73q-50 0 -77.5 -13.5
t-27.5 -40.5q0 -23 26 -38t95 -31l78 -20q123 -30 178 -82.5t55 -133.5q0 -99 -85 -155t-234 -56q-81 0 -161 18.5z" />
    <glyph glyph-name="T" unicode="T" horiz-adv-x="673" 
d="M651 700v-164h-222v-536h-186v536h-222v164h630z" />
    <glyph glyph-name="U" unicode="U" horiz-adv-x="786" 
d="M225 26q-74 38 -116 105.5t-42 151.5v417h186v-420q0 -56 39 -90.5t101 -34.5t100.5 34.5t38.5 90.5v420h186v-417q0 -84 -42 -151.5t-116 -105.5t-167 -38q-94 0 -168 38z" />
    <glyph glyph-name="V" unicode="V" horiz-adv-x="795" 
d="M581 700h208l-374 -700h-43l-374 700h215l183 -352z" />
    <glyph glyph-name="W" unicode="W" horiz-adv-x="1053" 
d="M847 700h196l-290 -700h-40l-188 452l-187 -452h-39l-289 700h204l120 -297l127 297h138l126 -299z" />
    <glyph glyph-name="X" unicode="X" horiz-adv-x="766" 
d="M273 351l-263 349h225l151 -215l154 215h216l-261 -345l266 -355h-221l-154 210l-153 -210h-226z" />
    <glyph glyph-name="Y" unicode="Y" horiz-adv-x="764" 
d="M759 700l-283 -426v-274h-186v272l-284 428h215l164 -260l162 260h212z" />
    <glyph glyph-name="Z" unicode="Z" horiz-adv-x="661" 
d="M318 161h318v-161h-629v37l387 502h-358v161h573v-162z" />
    <glyph glyph-name="bracketleft" unicode="[" horiz-adv-x="417" 
d="M367 582h-126v-674h126v-130h-275v934h275v-130z" />
    <glyph glyph-name="backslash" unicode="\" horiz-adv-x="461" 
d="M461 -12h-156l-305 724h156z" />
    <glyph glyph-name="bracketright" unicode="]" horiz-adv-x="417" 
d="M324 712v-934h-274v130h125v674h-125v130h274z" />
    <glyph glyph-name="asciicircum" unicode="^" horiz-adv-x="685" 
d="M604 211h-150l-110 280l-110 -280h-154l194 489h136z" />
    <glyph glyph-name="underscore" unicode="_" horiz-adv-x="460" 
d="M15 23h420v-146h-420v146z" />
    <glyph glyph-name="grave" unicode="`" 
d="M260 578l-193 155h211l123 -155h-141z" />
    <glyph glyph-name="a" unicode="a" horiz-adv-x="585" 
d="M460.5 449.5q63.5 -52.5 63.5 -146.5v-303h-167v52q-29 -31 -69 -47.5t-86 -16.5q-79 0 -127.5 40.5t-48.5 107.5q0 126 210 160l70 11q26 5 36.5 10t10.5 16q0 15 -18 21.5t-59 6.5q-61 0 -121 -20t-93 -49v157q41 23 97.5 38t123.5 15q114 0 177.5 -52.5zM327 151
q31 27 32 75q-22 -13 -65 -22l-14 -2q-39 -7 -55.5 -18.5t-16.5 -27.5q0 -15 11 -23.5t31 -8.5q46 0 77 27z" />
    <glyph glyph-name="b" unicode="b" horiz-adv-x="645" 
d="M503.5 470q52.5 -32 81 -90.5t28.5 -134.5t-28.5 -134.5t-81 -90.5t-120.5 -32q-42 0 -77.5 16.5t-62.5 47.5v-52h-177v712h177v-274q27 31 62.5 47.5t77.5 16.5q68 0 120.5 -32zM406 162.5q26 30.5 26 82.5t-26 82.5t-69 30.5q-45 0 -71 -30t-26 -83t26 -83t71 -30
q43 0 69 30.5z" />
    <glyph glyph-name="c" unicode="c" horiz-adv-x="567" 
d="M163 20.5q-63 32.5 -97 93t-34 141.5q0 73 33 129t93.5 87t139.5 31q106 0 168.5 -56.5t64.5 -153.5h-169q-6 62 -65 62q-40 0 -63 -27.5t-23 -75.5q0 -51 30.5 -83t79.5 -32q47 0 99 18t90 46v-164q-85 -48 -199 -48q-85 0 -148 32.5z" />
    <glyph glyph-name="d" unicode="d" horiz-adv-x="645" 
d="M579 712v-712h-177v52q-27 -31 -62.5 -47.5t-77.5 -16.5q-68 0 -120.5 32t-81 90.5t-28.5 134.5t28.5 134.5t81 90.5t120.5 32q42 0 77.5 -16.5t62.5 -47.5v274h177zM379 162q26 30 26 83t-26 83t-71 30q-42 0 -68.5 -31t-26.5 -82t26.5 -82t68.5 -31q45 0 71 30z" />
    <glyph glyph-name="e" unicode="e" horiz-adv-x="601" 
d="M566 200h-364q11 -30 44.5 -47t80.5 -17q54 0 110 13.5t90 29.5v-151q-79 -40 -210 -40q-90 0 -154.5 33.5t-97.5 93.5t-33 138q0 76 35.5 132.5t97.5 86.5t139 30q135 0 200 -68.5t65 -182.5q0 -25 -3 -51zM237 349q-27 -18 -37 -48h200q-7 36 -35 51t-66 15
q-35 0 -62 -18z" />
    <glyph glyph-name="f" unicode="f" horiz-adv-x="490" 
d="M307.5 550.5q-19.5 -13.5 -19.5 -47.5v-13h182v-149h-182v-341h-177v341h-91v149h91v18q0 99 58.5 156.5t157.5 57.5q77 0 148 -24v-158q-50 24 -114 24q-34 0 -53.5 -13.5z" />
    <glyph glyph-name="g" unicode="g" horiz-adv-x="645" 
d="M579 490v-422q0 -161 -75 -232.5t-223 -71.5q-53 0 -109.5 12.5t-96.5 33.5v167q40 -26 97.5 -43t105.5 -17q76 0 101.5 32.5t24.5 91.5v14q-28 -32 -64 -49.5t-79 -17.5q-68 0 -120 32t-80.5 90.5t-28.5 134.5t28.5 134.5t80.5 90.5t120 32q42 0 78 -17t63 -48v53h177z
M379 162q26 30 26 83t-26 83t-70 30q-43 0 -69 -30.5t-26 -82.5t26 -82.5t69 -30.5q44 0 70 30z" />
    <glyph glyph-name="h" unicode="h" horiz-adv-x="632" 
d="M521.5 452q49.5 -50 49.5 -138v-314h-177v288q0 78 -70 78q-37 0 -59 -24.5t-22 -61.5v-280h-177v712h177v-265q54 55 141 55q88 0 137.5 -50z" />
    <glyph glyph-name="i" unicode="i" horiz-adv-x="309" 
d="M79 584q-30 30 -30 76t30 76t76 30t76 -30t30 -76t-30 -76t-76 -30t-76 30zM66 490h177v-490h-177v490z" />
    <glyph glyph-name="j" unicode="j" horiz-adv-x="317" 
d="M82 584q-30 30 -30 76t30 76t76 30t76 -30t30 -76t-30 -76t-76 -30t-76 30zM70 490h177v-712h-177v712z" />
    <glyph glyph-name="k" unicode="k" horiz-adv-x="611" 
d="M615 0h-213l-159 209v-209h-177v712h177v-423l162 201h196l-189 -229z" />
    <glyph glyph-name="l" unicode="l" horiz-adv-x="309" 
d="M66 712h177v-712h-177v712z" />
    <glyph glyph-name="m" unicode="m" horiz-adv-x="940" 
d="M828.5 452.5q50.5 -49.5 50.5 -138.5v-314h-178v288q0 39 -15.5 58.5t-48.5 19.5q-35 0 -56 -24.5t-21 -61.5v-280h-176v288q0 39 -15.5 58.5t-48.5 19.5q-35 0 -56 -24.5t-21 -61.5v-280h-177v490h169v-50q53 62 143 62q107 0 145 -78q31 40 71 59t93 19
q91 0 141.5 -49.5z" />
    <glyph glyph-name="n" unicode="n" horiz-adv-x="632" 
d="M521.5 452q49.5 -50 49.5 -138v-314h-177v288q0 78 -70 78q-37 0 -59 -24.5t-22 -61.5v-280h-177v490h169v-52q54 64 149 64q88 0 137.5 -50z" />
    <glyph glyph-name="o" unicode="o" horiz-adv-x="620" 
d="M165 20.5q-63 32.5 -98 91t-35 133.5t35.5 133.5t98.5 91t144 32.5t144 -32.5t98 -91t35 -133.5t-35 -133.5t-98 -91t-144 -32.5q-82 0 -145 32.5zM380.5 166.5q26.5 29.5 26.5 78.5t-26.5 78.5t-70.5 29.5q-45 0 -71 -29t-26 -79t26 -79t71 -29q44 0 70.5 29.5z" />
    <glyph glyph-name="p" unicode="p" horiz-adv-x="645" 
d="M503.5 470q52.5 -32 81 -90.5t28.5 -134.5t-28.5 -134.5t-81 -90.5t-120.5 -32q-42 0 -77.5 16.5t-62.5 47.5v-274h-177v712h177v-52q27 31 62.5 47.5t77.5 16.5q68 0 120.5 -32zM406 162.5q26 30.5 26 82.5t-26 82.5t-69 30.5q-45 0 -71 -30t-26 -83t26 -83t71 -30
q43 0 69 30.5z" />
    <glyph glyph-name="q" unicode="q" horiz-adv-x="645" 
d="M579 490v-712h-177v274q-27 -31 -62.5 -47.5t-77.5 -16.5q-68 0 -120.5 32t-81 90.5t-28.5 134.5t28.5 134.5t81 90.5t120.5 32q42 0 77.5 -16.5t62.5 -47.5v52h177zM379 162q26 30 26 83t-26 83t-71 30q-42 0 -68.5 -31t-26.5 -82t26.5 -82t68.5 -31q45 0 71 30z" />
    <glyph glyph-name="r" unicode="r" horiz-adv-x="472" 
d="M450 492v-153q-37 15 -107 15q-100 0 -100 -78v-276h-177v490h169v-53q28 33 65.5 49t78.5 16q44 0 71 -10z" />
    <glyph glyph-name="s" unicode="s" horiz-adv-x="580" 
d="M157.5 1q-62.5 13 -103.5 34v159q44 -26 107 -44.5t116 -18.5q38 0 57.5 3.5t19.5 15.5q0 9 -13.5 14.5t-64.5 18.5l-61 15q-82 20 -126 55t-44 93q0 71 62.5 113.5t171.5 42.5q114 0 179 -43.5t72 -127.5h-179q-4 19 -21 28t-48 9q-60 0 -60 -21q0 -10 6.5 -15t26.5 -11
t49 -12l57 -13q91 -21 135 -55.5t44 -99.5q0 -71 -69.5 -112t-190.5 -41q-60 0 -122.5 13z" />
    <glyph glyph-name="t" unicode="t" horiz-adv-x="511" 
d="M394.5 -5.5q-37.5 -5.5 -73.5 -5.5q-102 0 -153.5 52.5t-51.5 145.5v154h-123v23l285 262h15v-136h165v-149h-165v-139q0 -34 18 -47t53 -13q45 0 94 26v-158q-26 -10 -63.5 -15.5z" />
    <glyph glyph-name="u" unicode="u" horiz-adv-x="633" 
d="M566 490v-490h-169v51q-54 -63 -148 -63q-88 0 -138 50t-50 138v314h178v-288q0 -78 70 -78q36 0 58 24.5t22 61.5v280h177z" />
    <glyph glyph-name="v" unicode="v" 
d="M409 490h192l-282 -490h-37l-284 490h198l107 -198z" />
    <glyph glyph-name="w" unicode="w" horiz-adv-x="784" 
d="M601 490h178l-221 -490h-27l-139 301l-139 -301h-27l-221 490h184l67 -155l70 155h133l75 -159z" />
    <glyph glyph-name="x" unicode="x" horiz-adv-x="601" 
d="M389 0l-90 134l-93 -134h-200l188 253l-180 237h207l81 -116l85 116h199l-181 -237l191 -253h-207z" />
    <glyph glyph-name="y" unicode="y" horiz-adv-x="609" 
d="M420 490h187l-299 -712h-180l109 255l-235 457h200l122 -262z" />
    <glyph glyph-name="z" unicode="z" horiz-adv-x="554" 
d="M311 148h219v-148h-516v22l268 318h-247v150h458v-131z" />
    <glyph glyph-name="braceleft" unicode="{" horiz-adv-x="386" 
d="M170.5 -177q-36.5 37 -37.5 107v159q0 42 -7 62.5t-21.5 27.5t-44.5 10v122q30 4 44 10t21.5 26t7.5 64v157q0 70 37.5 107t106.5 37h57v-129h-16q-38 0 -38 -43v-147q0 -61 -26.5 -100t-76.5 -43q49 -4 76 -43.5t27 -99.5v-149q0 -43 38 -43h16v-129h-57
q-70 0 -106.5 37z" />
    <glyph glyph-name="bar" unicode="|" horiz-adv-x="350" 
d="M100 712h149l1 -934h-149z" />
    <glyph glyph-name="braceright" unicode="}" horiz-adv-x="386" 
d="M52 -214v129h15q38 0 38 43l1 149q0 60 26.5 99.5t76.5 43.5q-50 4 -76.5 43t-26.5 100v147q0 43 -38 43h-16v129h57q69 0 106.5 -37t37.5 -107v-157q0 -44 7.5 -64t21.5 -26t44 -10v-122q-30 -3 -44.5 -10t-21.5 -27.5t-7 -62.5l-1 -159q0 -70 -37 -107t-107 -37h-56z
" />
    <glyph glyph-name="asciitilde" unicode="~" horiz-adv-x="685" 
d="M160.5 379.5q34.5 15.5 73.5 15.5q34 0 62 -10t60 -28q34 -16 52 -23t40 -7q36 0 70 14.5t69 40.5v-137q-57 -59 -136 -59q-33 0 -61 9.5t-61 27.5q-29 15 -49.5 22.5t-42.5 7.5q-66 0 -139 -55v138q28 28 62.5 43.5z" />
    <glyph glyph-name="uni00A0" unicode="&#xa0;" horiz-adv-x="250" 
 />
    <glyph glyph-name="cent" unicode="&#xa2;" horiz-adv-x="696" 
d="M396 244q46 2 95 19.5t85 44.5v-164q-76 -44 -180 -48v-108h-81v113q-101 17 -159 86.5t-58 175.5q0 99 59 164.5t158 79.5v105h81v-103q92 -9 145.5 -64t55.5 -145h-169q-4 42 -32 55v-211zM287 307.5q10 -23.5 28 -38.5v179q-18 -13 -28 -36t-10 -53q0 -28 10 -51.5z
" />
    <glyph glyph-name="sterling" unicode="&#xa3;" horiz-adv-x="696" 
d="M619 151v-151h-536v137q48 7 78.5 40t30.5 71q0 15 -6.5 30t-21.5 42h-106v80h70q-14 46 -14 92q0 106 68.5 163t177.5 57q123 0 183.5 -58.5t62.5 -162.5h-162q-13 74 -87 74q-76 0 -76 -78q0 -50 17 -87h147v-80h-116q7 -25 7 -66q0 -49 -47 -103h330z" />
    <glyph glyph-name="currency" unicode="&#xa4;" horiz-adv-x="696" 
d="M556 219l83 -84l-78 -77l-83 82q-62 -40 -135 -40q-65 0 -127 38l-81 -80l-77 77l79 79q-44 64 -44 136q0 76 42 138l-77 77l77 77l79 -78q59 36 129 36q75 0 136 -39l82 81l78 -77l-83 -83q37 -60 37 -132q0 -70 -37 -131zM404.5 287q25.5 26 25.5 63q0 36 -26 62.5
t-61 26.5t-60.5 -26t-25.5 -63q0 -40 24 -64.5t62 -24.5q36 0 61.5 26z" />
    <glyph glyph-name="yen" unicode="&#xa5;" horiz-adv-x="696" 
d="M683 700l-177 -296h111v-80h-159l-20 -33v-21h179v-80h-179v-190h-179v190h-180v80h180v21l-20 33h-160v80h112l-177 296h203l135 -255l135 255h196z" />
    <glyph glyph-name="brokenbar" unicode="&#xa6;" horiz-adv-x="351" 
d="M100 712h150v-402h-150v402zM251 -222h-150l-1 402h150z" />
    <glyph glyph-name="section" unicode="&#xa7;" horiz-adv-x="624" 
d="M553 152q0 -77 -70 -120.5t-194 -43.5q-65 0 -121 12.5t-98 36.5v161q89 -72 229 -72q80 0 80 24q0 10 -5.5 15t-24.5 10.5t-63 13.5l-53 11q-78 15 -125.5 50t-46.5 86q0 74 78 99q-55 39 -55 111q0 49 28 86.5t78.5 58.5t115.5 21q108 0 174.5 -51.5t74.5 -141.5h-164
q-5 29 -26 43t-63 14q-29 0 -44.5 -8t-15.5 -21q0 -14 15.5 -22.5t59.5 -17.5l63 -13q90 -18 133 -51.5t43 -83.5q0 -30 -17.5 -56t-48.5 -44q63 -38 63 -107zM243.5 334q17.5 -10 57.5 -19l38 -8q30 3 41.5 9.5t11.5 18.5q0 16 -17 25.5t-63 19.5l-44 9q-22 -4 -32 -11.5
t-10 -20.5t17.5 -23z" />
    <glyph glyph-name="dieresis" unicode="&#xa8;" 
d="M98 584q-30 30 -30 76t30 76t76 30t76 -30t30 -76t-30 -76t-76 -30t-76 30zM350 584q-30 30 -30 76t30 76t76 30t76 -30t30 -76t-30 -76t-76 -30t-76 30z" />
    <glyph glyph-name="copyright" unicode="&#xa9;" horiz-adv-x="791" 
d="M210.5 35.5q-82.5 47.5 -130 130t-47.5 184.5t47.5 184.5t130 130t184.5 47.5t185 -47t130 -130t47 -185t-47 -185t-130 -130t-185 -47t-184.5 47.5zM524 128.5q58 33.5 91 91.5t33 130t-33 130t-91 91.5t-129 33.5t-128.5 -33.5t-90.5 -91.5t-33 -130t33 -130
t90.5 -91.5t128.5 -33.5t129 33.5zM474.5 169.5q-30.5 -9.5 -70.5 -9.5q-87 0 -140.5 54.5t-53.5 142.5q0 51 23 92.5t64 66t92 24.5q83 0 126 -44t37 -127l-139 -2q0 23 -5.5 33t-21.5 10q-15 0 -25.5 -14t-10.5 -39q0 -29 15 -46t47 -17q63 0 118 37l1 -132
q-26 -20 -56.5 -29.5z" />
    <glyph glyph-name="guillemotleft" unicode="&#xab;" horiz-adv-x="738" 
d="M231 277l180 -216h-194l-177 214l177 215h190zM519 277l180 -216h-194l-177 214l177 215h190z" />
    <glyph glyph-name="logicalnot" unicode="&#xac;" horiz-adv-x="685" 
d="M589 365v-320h-149v170h-340v150h489z" />
    <glyph glyph-name="uni00AD" unicode="&#xad;" horiz-adv-x="389" 
d="M60 363h269v-146h-269v146z" />
    <glyph glyph-name="registered" unicode="&#xae;" horiz-adv-x="507" 
d="M370 683q52 -29 81 -80.5t29 -116.5t-29 -117t-81 -81t-117 -29t-116.5 29t-80.5 81t-29 117t29 116.5t80.5 80.5t116.5 29t117 -29zM399 486q0 64 -41 105.5t-105 41.5q-63 0 -104 -41.5t-41 -105.5t41 -106t104 -42q66 0 107 44h-71l-38 70h-10v-70h-76v212h102
q38 0 62.5 -20t24.5 -51q0 -36 -34 -57l45 -78q34 40 34 98zM241 504h12q10 0 15 3.5t5 8.5q0 14 -20 14h-12v-26z" />
    <glyph glyph-name="macron" unicode="&#xaf;" 
d="M470 610h-340v117h340v-117z" />
    <glyph glyph-name="degree" unicode="&#xb0;" horiz-adv-x="466" 
d="M134 344.5q-44 24.5 -69 68t-25 97.5t25 97.5t69 68t99 24.5t99 -24.5t69 -68t25 -97.5t-25 -97.5t-69 -68t-99 -24.5t-99 24.5zM284.5 456.5q19.5 20.5 19.5 53.5q0 32 -19.5 52.5t-51.5 20.5q-31 0 -51 -20.5t-20 -52.5t20 -53t51 -21q32 0 51.5 20.5z" />
    <glyph glyph-name="plusminus" unicode="&#xb1;" horiz-adv-x="685" 
d="M272 198v127h-170v150h170v143h149v-143h170v-150h-170v-127h-149zM106 151h489v-151h-489v151z" />
    <glyph glyph-name="acute" unicode="&#xb4;" 
d="M338 733h211l-193 -155h-141z" />
    <glyph glyph-name="paragraph" unicode="&#xb6;" horiz-adv-x="720" 
d="M588 551v-691h-142v691h-73v-691h-142v371q-55 4 -99 35t-69.5 82t-25.5 113q0 71 31.5 125t87 84t126.5 30h373v-149h-67z" />
    <glyph glyph-name="periodcentered" unicode="&#xb7;" horiz-adv-x="351" 
d="M86.5 250.5q-32.5 32.5 -32.5 78.5q0 47 32.5 79.5t79.5 32.5t79 -32.5t32 -79.5q0 -46 -32 -78.5t-79 -32.5t-79.5 32.5z" />
    <glyph glyph-name="cedilla" unicode="&#xb8;" 
d="M183 -221v107q15 -10 48.5 -19t55.5 -9q28 0 28 18q0 9 -7 14t-20 5q-6 0 -14 -3t-13 -8l-59 31l64 99h106l-38 -51h3q39 0 66 -26.5t27 -66.5q0 -45 -36.5 -78t-103.5 -33q-60 0 -107 20z" />
    <glyph glyph-name="guillemotright" unicode="&#xbb;" horiz-adv-x="738" 
d="M234 490l177 -214l-177 -215h-190l176 213l-180 216h194zM521 490l177 -214l-177 -215h-190l177 213l-180 216h193z" />
    <glyph glyph-name="multiply" unicode="&#xd7;" horiz-adv-x="685" 
d="M115 168l123 122l-122 122l105 105l122 -122l122 122l105 -105l-122 -122l123 -122l-106 -106l-122 122l-122 -123z" />
    <glyph glyph-name="divide" unicode="&#xf7;" horiz-adv-x="685" 
d="M96 396h489v-150h-489v150zM266 26q-30 30 -30 76t30 76t76 30t76 -30t30 -76t-30 -76t-76 -30t-76 30zM266 464q-30 30 -30 76t30 76t76 30t76 -30t30 -76t-30 -76t-76 -30t-76 30z" />
    <glyph glyph-name="circumflex" unicode="&#x2c6;" 
d="M562 572h-205l-57 39l-58 -39h-203l261 189z" />
    <glyph glyph-name="caron" unicode="&#x2c7;" 
d="M357 739h205l-262 -189l-261 189h203l58 -39z" />
    <glyph glyph-name="breve" unicode="&#x2d8;" 
d="M105 620v146q31 -25 84.5 -40.5t110.5 -15.5t110.5 15.5t84.5 40.5v-146q-77 -50 -195 -50t-195 50z" />
    <glyph glyph-name="dotaccent" unicode="&#x2d9;" 
d="M224 584q-30 30 -30 76t30 76t76 30t76 -30t30 -76t-30 -76t-76 -30t-76 30z" />
    <glyph glyph-name="ring" unicode="&#x2da;" 
d="M209 568.5q-41 23.5 -65 63.5t-24 89q0 50 24 91t65 65t91 24t91 -24t65 -65t24 -91q0 -49 -24 -89t-65 -63.5t-91 -23.5t-91 23.5zM337.5 686q14.5 13 14.5 35q0 24 -14.5 39t-37.5 15t-37.5 -15t-14.5 -39q0 -22 14.5 -35t37.5 -13t37.5 13z" />
    <glyph glyph-name="ogonek" unicode="&#x2db;" 
d="M254 -249q-57 0 -94 33.5t-37 86.5q0 54 50.5 100t122.5 61l35 -32q-15 -1 -34.5 -16.5t-34 -37t-14.5 -38.5q0 -16 9 -26t22 -10q15 0 36.5 5t34.5 11v-122q-40 -15 -96 -15z" />
    <glyph glyph-name="tilde" unicode="&#x2dc;" 
d="M216 738q28 0 49.5 -6.5t46.5 -17.5q22 -9 35.5 -13.5t29.5 -4.5q22 0 54 14t48 35v-134q-39 -38 -101 -38q-28 0 -48.5 6t-48.5 18q-22 9 -35.5 13.5t-28.5 4.5q-21 0 -53 -14t-48 -35v135q40 37 100 37z" />
    <glyph glyph-name="hungarumlaut" unicode="&#x2dd;" 
d="M197 733h211l-193 -155h-141zM450 733h211l-193 -155h-141z" />
    <glyph glyph-name="uni0312" unicode="&#x312;" horiz-adv-x="0" 
d="M-256 601h-169l126 214h71z" />
    <glyph glyph-name="uni0326" unicode="&#x326;" horiz-adv-x="0" 
d="M-386 -64h169l-125 -214h-71z" />
    <glyph glyph-name="uni0401" unicode="&#x401;" horiz-adv-x="630" 
d="M580 541h-331v-106h283v-150h-283v-126h331v-159h-508v700h508v-159zM130 770q-30 30 -30 76t30 76t76 30t76 -30t30 -76t-30 -76t-76 -30t-76 30zM382 770q-30 30 -30 76t30 76t76 30t76 -30t30 -76t-30 -76t-76 -30t-76 30z" />
    <glyph glyph-name="uni0404" unicode="&#x404;" horiz-adv-x="711" 
d="M290 188q50 -35 117 -35q73 0 140 24t115 66v-189q-52 -32 -119 -49t-143 -17q-110 0 -193 46.5t-128.5 131t-45.5 194.5q0 104 43.5 184t122.5 124t181 44q124 0 202 -65t86 -183h-179q-7 41 -38 63t-81 22q-58 0 -98 -31t-50 -85h239v-151h-237q16 -59 66 -94z" />
    <glyph glyph-name="uni0406" unicode="&#x406;" horiz-adv-x="340" 
d="M77 700h186v-700h-186v700z" />
    <glyph glyph-name="uni0407" unicode="&#x407;" horiz-adv-x="340" 
d="M77 700h186v-700h-186v700zM-32 770q-30 30 -30 76t30 76t76 30t76 -30t30 -76t-30 -76t-76 -30t-76 30zM220 770q-30 30 -30 76t30 76t76 30t76 -30t30 -76t-30 -76t-76 -30t-76 30z" />
    <glyph glyph-name="uni040E" unicode="&#x40e;" horiz-adv-x="755" 
d="M548 700h203l-361 -700h-204l97 183l-279 517h209l172 -331zM196 806v146q31 -25 84.5 -40.5t110.5 -15.5t110.5 15.5t84.5 40.5v-146q-77 -50 -195 -50t-195 50z" />
    <glyph glyph-name="uni0410" unicode="&#x410;" horiz-adv-x="765" 
d="M567 0l-42 90h-296l-43 -90h-188l361 700h45l363 -700h-200zM294 224h168l-83 178z" />
    <glyph glyph-name="uni0411" unicode="&#x411;" horiz-adv-x="700" 
d="M546.5 416.5q59.5 -27.5 90.5 -77t31 -113.5q0 -66 -31 -117t-91.5 -80t-144.5 -29h-329v700h530v-159h-348v-97h149q84 0 143.5 -27.5zM456 173q20 20 20 56q0 33 -20 51.5t-56 18.5h-146v-146h146q36 0 56 20z" />
    <glyph glyph-name="uni0412" unicode="&#x412;" horiz-adv-x="709" 
d="M648.5 310q24.5 -40 24.5 -103q0 -98 -70.5 -152.5t-203.5 -54.5h-319v700h305q80 0 139.5 -22.5t91 -64t31.5 -96.5q0 -47 -19.5 -83.5t-58.5 -58.5q55 -25 79.5 -65zM254 551v-122h130q37 0 58 16.5t21 45.5q0 28 -21 44t-58 16h-130zM466 168q23 19 23 52t-24 51.5
t-67 18.5h-144v-141h149q40 0 63 19z" />
    <glyph glyph-name="uni0413" unicode="&#x413;" horiz-adv-x="591" 
d="M571 700v-164h-313v-536h-186v700h499z" />
    <glyph glyph-name="uni0414" unicode="&#x414;" horiz-adv-x="805" 
d="M785 167v-307h-179v140h-413v-140h-179v307h69q33 100 33 331v202h588v-533h81zM520 160v380h-227v-57q0 -196 -33 -323h260z" />
    <glyph glyph-name="uni0415" unicode="&#x415;" horiz-adv-x="630" 
d="M580 541h-331v-106h283v-150h-283v-126h331v-159h-508v700h508v-159z" />
    <glyph glyph-name="uni0416" unicode="&#x416;" horiz-adv-x="1135" 
d="M1143 0h-233l-250 303v-303h-186v304l-253 -304h-229l307 366l-285 334h217l243 -285v285h186v-285l243 285h218l-283 -332z" />
    <glyph glyph-name="uni0417" unicode="&#x417;" horiz-adv-x="648" 
d="M581.5 309.5q30.5 -42.5 30.5 -94.5q0 -71 -39.5 -122t-110 -78t-162.5 -27q-79 0 -150 17.5t-121 50.5v191q50 -46 122 -72t147 -26q121 0 121 73q0 31 -27 47t-74 16h-93v145h82q43 0 65 15.5t22 49.5q0 31 -25.5 46t-64.5 15q-48 0 -76.5 -21.5t-34.5 -64.5h-171
q7 113 84.5 177.5t204.5 64.5q82 0 143.5 -24t95 -69.5t33.5 -107.5q0 -44 -24 -83t-66 -58q58 -18 88.5 -60.5z" />
    <glyph glyph-name="uni0418" unicode="&#x418;" horiz-adv-x="798" 
d="M560 700h166v-700h-184v449l-432 -463h-38v714h184v-323z" />
    <glyph glyph-name="uni0419" unicode="&#x419;" horiz-adv-x="798" 
d="M560 700h166v-700h-184v449l-432 -463h-38v714h184v-323zM204 806v146q31 -25 84.5 -40.5t110.5 -15.5t110.5 15.5t84.5 40.5v-146q-77 -50 -195 -50t-195 50z" />
    <glyph glyph-name="uni041A" unicode="&#x41a;" horiz-adv-x="775" 
d="M771 0h-243l-270 324v-324h-186v700h186v-305l263 305h218l-288 -323z" />
    <glyph glyph-name="uni041B" unicode="&#x41b;" horiz-adv-x="790" 
d="M718 0h-186v534h-203v-35q0 -188 -20.5 -297.5t-69.5 -160t-138 -50.5q-52 0 -86 14v168q24 -9 49 -9q38 0 55 32t23.5 123.5t6.5 291.5v89h569v-700z" />
    <glyph glyph-name="uni041C" unicode="&#x41c;" horiz-adv-x="947" 
d="M704 700h170v-700h-181v410l-209 -290h-21l-209 290v-410h-182v700h179l227 -312z" />
    <glyph glyph-name="uni041D" unicode="&#x41d;" horiz-adv-x="788" 
d="M530 700h186v-700h-186v277h-272v-277h-186v700h186v-257h272v257z" />
    <glyph glyph-name="uni041E" unicode="&#x41e;" horiz-adv-x="823" 
d="M215 33.5q-86 45.5 -134 128t-48 188.5t48 188t134 128t197 46t197 -45.5t133.5 -128t47.5 -188.5t-48 -188t-134 -128t-196 -46q-111 0 -197 45.5zM545 207q50 54 50 143t-50 143t-133 54t-133.5 -54t-50.5 -143t50.5 -143t133.5 -54t133 54z" />
    <glyph glyph-name="uni041F" unicode="&#x41f;" horiz-adv-x="786" 
d="M713 700v-700h-186v533h-269v-533h-186v700h641z" />
    <glyph glyph-name="uni0420" unicode="&#x420;" horiz-adv-x="677" 
d="M523.5 670.5q60.5 -29.5 92 -82t31.5 -120.5t-31.5 -121t-92 -82.5t-145.5 -29.5h-124v-235h-182v700h306q85 0 145.5 -29.5zM433.5 403.5q20.5 22.5 20.5 61.5q0 40 -20.5 62t-57.5 22h-122v-168h122q37 0 57.5 22.5z" />
    <glyph glyph-name="uni0421" unicode="&#x421;" horiz-adv-x="712" 
d="M214 34q-86 46 -133.5 130t-47.5 196q0 104 43 184t121.5 124t180.5 44q139 0 214.5 -74t76.5 -211h-181q-1 58 -30 90t-80 32q-72 0 -112 -48t-40 -134q0 -99 53 -156.5t143 -57.5q65 0 129.5 24t110.5 64v-188q-49 -32 -112 -48.5t-135 -16.5q-115 0 -201 46z" />
    <glyph glyph-name="uni0422" unicode="&#x422;" horiz-adv-x="673" 
d="M651 700v-164h-222v-536h-186v536h-222v164h630z" />
    <glyph glyph-name="uni0423" unicode="&#x423;" horiz-adv-x="755" 
d="M548 700h203l-361 -700h-204l97 183l-279 517h209l172 -331z" />
    <glyph glyph-name="uni0424" unicode="&#x424;" horiz-adv-x="961" 
d="M788 586q71 -34 106.5 -93t35.5 -134t-35.5 -133.5t-106.5 -92.5t-173 -34h-42v-111h-186v111h-40q-102 0 -173.5 34t-107 92.5t-35.5 133.5t35.5 134t107 93t173.5 34h40v92h186v-92h42q102 0 173 -34zM258 272q34 -30 99 -30h32v234h-32q-65 0 -99 -30t-34 -87t34 -87z
M703 272q34 30 34 87t-34 87t-99 30h-32v-234h32q65 0 99 30z" />
    <glyph glyph-name="uni0425" unicode="&#x425;" horiz-adv-x="766" 
d="M273 351l-263 349h225l151 -215l154 215h216l-261 -345l266 -355h-221l-154 210l-153 -210h-226z" />
    <glyph glyph-name="uni0426" unicode="&#x426;" horiz-adv-x="809" 
d="M709 167h80v-307h-179v140h-538v700h186v-537h265v537h186v-533z" />
    <glyph glyph-name="uni0427" unicode="&#x427;" horiz-adv-x="735" 
d="M663 700v-700h-186v238q-66 -11 -121 -11q-94 0 -162.5 30.5t-105.5 88t-37 134.5v220h187v-216q0 -47 33 -71.5t97 -24.5t109 13v299h186z" />
    <glyph glyph-name="uni0428" unicode="&#x428;" horiz-adv-x="1103" 
d="M845 700h186v-700h-959v700h186v-534h201v534h186v-534h200v534z" />
    <glyph glyph-name="uni0429" unicode="&#x429;" horiz-adv-x="1131" 
d="M1031 167h80v-307h-179v140h-860v700h186v-534h201v534h186v-534h200v534h186v-533z" />
    <glyph glyph-name="uni042A" unicode="&#x42a;" horiz-adv-x="804" 
d="M650.5 436.5q60.5 -29.5 92 -82.5t31.5 -121t-31.5 -121t-92 -82.5t-145.5 -29.5h-317v536h-172v164h355v-234h134q85 0 145.5 -29.5zM561 173.5q21 22.5 21 62.5t-21 62t-58 22h-132v-169h132q37 0 58 22.5z" />
    <glyph glyph-name="uni042B" unicode="&#x42b;" horiz-adv-x="995" 
d="M534 436.5q61 -29.5 92.5 -82t31.5 -121.5q0 -68 -31.5 -121t-92 -82.5t-145.5 -29.5h-317v700h183v-234h133q85 0 146 -29.5zM444.5 173.5q20.5 22.5 20.5 62.5t-20.5 62t-57.5 22h-132v-169h132q37 0 57.5 22.5zM737 700h186v-700h-186v700z" />
    <glyph glyph-name="uni042C" unicode="&#x42c;" horiz-adv-x="688" 
d="M534 436.5q61 -29.5 92.5 -82t31.5 -121.5q0 -68 -31.5 -121t-92 -82.5t-145.5 -29.5h-317v700h183v-234h133q85 0 146 -29.5zM444.5 173.5q20.5 22.5 20.5 62.5t-20.5 62t-57.5 22h-132v-169h132q37 0 57.5 22.5z" />
    <glyph glyph-name="uni042D" unicode="&#x42d;" horiz-adv-x="697" 
d="M504 668.5q76 -43.5 118 -123.5t42 -185q0 -113 -45 -197t-127.5 -129.5t-194.5 -45.5q-72 0 -140.5 17.5t-121.5 49.5v189q49 -41 118.5 -66t136.5 -25q74 0 122 34.5t62 94.5h-237v151h238q-11 55 -51 85.5t-105 30.5q-49 0 -82 -22.5t-42 -61.5h-167q6 74 46 130
t105.5 86.5t147.5 30.5q101 0 177 -43.5z" />
    <glyph glyph-name="uni042E" unicode="&#x42e;" horiz-adv-x="1097" 
d="M886 666q84 -46 130.5 -128t46.5 -188t-46.5 -188t-130.5 -128t-191 -46q-92 0 -167 36t-123.5 101.5t-63.5 151.5h-83v-277h-186v700h186v-257h87q18 81 67 142t121.5 94t161.5 33q107 0 191 -46zM821 207q47 54 47 143t-47 143t-126 54q-78 0 -125.5 -54t-47.5 -143
t47.5 -143t125.5 -54q79 0 126 54z" />
    <glyph glyph-name="uni042F" unicode="&#x42f;" horiz-adv-x="716" 
d="M644 0h-180v252h-79l-183 -252h-207l208 271q-69 26 -105.5 80t-36.5 126q0 65 30.5 115.5t89 79t140.5 28.5h323v-700zM464 396v149h-138q-38 0 -59 -19.5t-21 -53.5q0 -36 19.5 -56t52.5 -20h146z" />
    <glyph glyph-name="uni0430" unicode="&#x430;" horiz-adv-x="585" 
d="M460.5 449.5q63.5 -52.5 63.5 -146.5v-303h-167v52q-29 -31 -69 -47.5t-86 -16.5q-79 0 -127.5 40.5t-48.5 107.5q0 126 210 160l70 11q26 5 36.5 10t10.5 16q0 15 -18 21.5t-59 6.5q-61 0 -121 -20t-93 -49v157q41 23 97.5 38t123.5 15q114 0 177.5 -52.5zM327 151
q31 27 32 75q-22 -13 -65 -22l-14 -2q-39 -7 -55.5 -18.5t-16.5 -27.5q0 -15 11 -23.5t31 -8.5q46 0 77 27z" />
    <glyph glyph-name="uni0431" unicode="&#x431;" horiz-adv-x="632" 
d="M490.5 424q54.5 -29 84 -81t29.5 -117q0 -69 -33 -123t-95 -84.5t-144 -30.5q-147 0 -221 85.5t-74 236.5q0 139 49 209.5t131 104.5q37 17 98 36l45 15q23 8 31 15t8 22h173q0 -70 -27.5 -108t-97.5 -63q-4 -1 -70.5 -21t-116.5 -40q-38 -14 -65 -44.5t-24 -86.5
q25 50 80 77t113 27q72 0 126.5 -29zM391.5 158q25.5 26 25.5 70t-26 70t-69 26t-69 -26t-26 -70t25.5 -70t69.5 -26t69.5 26z" />
    <glyph glyph-name="uni0432" unicode="&#x432;" horiz-adv-x="590" 
d="M539.5 216.5q15.5 -26.5 15.5 -59.5q0 -76 -55.5 -116.5t-153.5 -40.5h-280v490h279q91 0 143.5 -35.5t52.5 -103.5q0 -22 -11.5 -47.5t-33.5 -43.5q28 -17 43.5 -43.5zM234 366v-69h84q48 0 48 35q0 16 -12 25t-35 9h-85zM365 133q14 9 14 26q0 35 -54 35h-91v-70h90
q27 0 41 9z" />
    <glyph glyph-name="uni0433" unicode="&#x433;" horiz-adv-x="468" 
d="M448 490v-149h-205v-341h-177v490h382z" />
    <glyph glyph-name="uni0434" unicode="&#x434;" horiz-adv-x="623" 
d="M607 149v-249h-171v100h-263v-100h-171v249h59q18 56 18 194v147h461v-341h67zM368 143v202h-120v-23q0 -103 -19 -179h139z" />
    <glyph glyph-name="uni0435" unicode="&#x435;" horiz-adv-x="601" 
d="M566 200h-364q11 -30 44.5 -47t80.5 -17q54 0 110 13.5t90 29.5v-151q-79 -40 -210 -40q-90 0 -154.5 33.5t-97.5 93.5t-33 138q0 76 35.5 132.5t97.5 86.5t139 30q135 0 200 -68.5t65 -182.5q0 -25 -3 -51zM237 349q-27 -18 -37 -48h200q-7 36 -35 51t-66 15
q-35 0 -62 -18z" />
    <glyph glyph-name="uni0436" unicode="&#x436;" horiz-adv-x="882" 
d="M879 0h-208l-142 211v-211h-177v211l-145 -211h-204l181 267l-169 223h188l149 -203v203h177v-205l150 205h187l-167 -218z" />
    <glyph glyph-name="uni0437" unicode="&#x437;" horiz-adv-x="567" 
d="M512 219.5q20 -27.5 20 -63.5q0 -77 -66 -122.5t-188 -45.5q-72 0 -132.5 12t-99.5 33v160q43 -28 104.5 -44t123.5 -16q41 0 56.5 8t15.5 23q0 12 -11.5 18.5t-33.5 6.5h-95v117h83q20 0 33.5 7t13.5 23q0 32 -65 32q-41 0 -63.5 -13t-30.5 -43h-148q2 57 34 100
t89.5 66.5t133.5 23.5q108 0 168 -40.5t60 -105.5q0 -30 -15.5 -54.5t-42.5 -39.5q36 -15 56 -42.5z" />
    <glyph glyph-name="uni0438" unicode="&#x438;" horiz-adv-x="637" 
d="M425 490h145v-490h-176v267l-300 -280h-28v503h174v-174z" />
    <glyph glyph-name="uni0439" unicode="&#x439;" horiz-adv-x="637" 
d="M425 490h145v-490h-176v267l-300 -280h-28v503h174v-174zM122 620v146q31 -25 84.5 -40.5t110.5 -15.5t110.5 15.5t84.5 40.5v-146q-77 -50 -195 -50t-195 50z" />
    <glyph glyph-name="uni043A" unicode="&#x43a;" horiz-adv-x="611" 
d="M615 0h-213l-159 209v-209h-177v490h177v-201l162 201h196l-189 -229z" />
    <glyph glyph-name="uni043B" unicode="&#x43b;" horiz-adv-x="633" 
d="M567 0h-177v341h-112v-34q0 -120 -18.5 -188.5t-59 -98.5t-110.5 -30q-24 0 -41 3t-35 11v146q19 -4 37 -4q29 0 42 19t17.5 62t4.5 131v132h452v-490z" />
    <glyph glyph-name="uni043C" unicode="&#x43c;" horiz-adv-x="757" 
d="M515 490h176v-490h-172v248l-134 -184h-13l-135 185v-249h-171v490h181l133 -179z" />
    <glyph glyph-name="uni043D" unicode="&#x43d;" horiz-adv-x="631" 
d="M388 490h177v-490h-177v174h-145v-174h-177v490h177v-167h145v167z" />
    <glyph glyph-name="uni043E" unicode="&#x43e;" horiz-adv-x="620" 
d="M165 20.5q-63 32.5 -98 91t-35 133.5t35.5 133.5t98.5 91t144 32.5t144 -32.5t98 -91t35 -133.5t-35 -133.5t-98 -91t-144 -32.5q-82 0 -145 32.5zM380.5 166.5q26.5 29.5 26.5 78.5t-26.5 78.5t-70.5 29.5q-45 0 -71 -29t-26 -79t26 -79t71 -29q44 0 70.5 29.5z" />
    <glyph glyph-name="uni043F" unicode="&#x43f;" horiz-adv-x="630" 
d="M564 490v-490h-177v337h-144v-337h-177v490h498z" />
    <glyph glyph-name="uni0440" unicode="&#x440;" horiz-adv-x="645" 
d="M503.5 470q52.5 -32 81 -90.5t28.5 -134.5t-28.5 -134.5t-81 -90.5t-120.5 -32q-42 0 -77.5 16.5t-62.5 47.5v-274h-177v712h177v-52q27 31 62.5 47.5t77.5 16.5q68 0 120.5 -32zM406 162.5q26 30.5 26 82.5t-26 82.5t-69 30.5q-45 0 -71 -30t-26 -83t26 -83t71 -30
q43 0 69 30.5z" />
    <glyph glyph-name="uni0441" unicode="&#x441;" horiz-adv-x="567" 
d="M163 20.5q-63 32.5 -97 93t-34 141.5q0 73 33 129t93.5 87t139.5 31q106 0 168.5 -56.5t64.5 -153.5h-169q-6 62 -65 62q-40 0 -63 -27.5t-23 -75.5q0 -51 30.5 -83t79.5 -32q47 0 99 18t90 46v-164q-85 -48 -199 -48q-85 0 -148 32.5z" />
    <glyph glyph-name="uni0442" unicode="&#x442;" horiz-adv-x="531" 
d="M511 490v-152h-157v-338h-177v338h-157v152h491z" />
    <glyph glyph-name="uni0443" unicode="&#x443;" horiz-adv-x="609" 
d="M420 490h187l-299 -712h-180l109 255l-235 457h200l122 -262z" />
    <glyph glyph-name="uni0444" unicode="&#x444;" horiz-adv-x="920" 
d="M786.5 469q47.5 -33 74.5 -91.5t27 -132.5t-27 -132.5t-74.5 -91.5t-108.5 -33q-39 0 -72.5 17.5t-57.5 50.5v-278h-177v277q-24 -32 -57 -49.5t-72 -17.5q-61 0 -108.5 33t-74.5 91.5t-27 132.5t27 132.5t74.5 91.5t108.5 33q39 0 72 -17.5t57 -49.5v277h177v-278
q24 33 57.5 50.5t72.5 17.5q61 0 108.5 -33zM352 166.5q23 30.5 23 78.5t-23 78.5t-58 30.5q-34 0 -57 -30.5t-23 -78.5t23 -78.5t57 -30.5q35 0 58 30.5zM682.5 166.5q23.5 30.5 23.5 78.5t-23.5 78.5t-57.5 30.5q-35 0 -58 -30.5t-23 -78.5t23 -78.5t58 -30.5
q34 0 57.5 30.5z" />
    <glyph glyph-name="uni0445" unicode="&#x445;" horiz-adv-x="601" 
d="M389 0l-90 134l-93 -134h-200l188 253l-180 237h207l81 -116l85 116h199l-181 -237l191 -253h-207z" />
    <glyph glyph-name="uni0446" unicode="&#x446;" horiz-adv-x="626" 
d="M553 152h58v-252h-172v100h-373v490h177v-338h133v338h177v-338z" />
    <glyph glyph-name="uni0447" unicode="&#x447;" horiz-adv-x="581" 
d="M515 490v-490h-177v162q-43 -10 -74 -10q-108 0 -167.5 50t-59.5 143v145h176v-142q0 -30 17 -44t54 -14q29 0 54 9v191h177z" />
    <glyph glyph-name="uni0448" unicode="&#x448;" horiz-adv-x="898" 
d="M655 490h177v-490h-766v490h177v-340h118v340h177v-340h117v340z" />
    <glyph glyph-name="uni0449" unicode="&#x449;" horiz-adv-x="915" 
d="M832 149h68v-249h-172v100h-662v490h177v-341h118v341h177v-341h117v341h177v-341z" />
    <glyph glyph-name="uni044A" unicode="&#x44a;" horiz-adv-x="634" 
d="M552 292.5q52 -41.5 52 -123.5q0 -83 -54 -126t-157 -43h-253v341h-121v149h295v-156h85q101 0 153 -41.5zM418 137.5q15 12.5 15 34.5q0 23 -14.5 35t-41.5 12h-63v-94h62q27 0 42 12.5z" />
    <glyph glyph-name="uni044B" unicode="&#x44b;" horiz-adv-x="825" 
d="M479 292.5q52 -41.5 52 -123.5q0 -83 -54 -126t-158 -43h-253v490h175v-156h85q101 0 153 -41.5zM582 490h177v-490h-177v490zM345 137.5q15 12.5 15 34.5q0 23 -15 35t-42 12h-62v-94h62q27 0 42 12.5z" />
    <glyph glyph-name="uni044C" unicode="&#x44c;" horiz-adv-x="560" 
d="M479 292.5q52 -41.5 52 -123.5q0 -83 -54 -126t-158 -43h-253v490h175v-156h85q101 0 153 -41.5zM345 137.5q15 12.5 15 34.5q0 23 -15 35t-42 12h-62v-94h62q27 0 42 12.5z" />
    <glyph glyph-name="uni044D" unicode="&#x44d;" horiz-adv-x="547" 
d="M387 470q61 -32 94.5 -89.5t33.5 -132.5q0 -78 -34 -137t-97 -91t-147 -32q-124 0 -210 54v165q37 -31 92.5 -51t109.5 -20q41 0 71 15t43 41l-161 18l53 99l112 -13q-8 34 -31 52t-55 18q-64 0 -78 -39h-168q4 50 32.5 89.5t79.5 62.5t120 23q79 0 140 -32z" />
    <glyph glyph-name="uni044E" unicode="&#x44e;" horiz-adv-x="867" 
d="M704 469.5q62 -32.5 96.5 -91t34.5 -133.5t-34.5 -133.5t-96.5 -91t-141 -32.5q-97 0 -166 50t-91 135h-63v-173h-177v490h177v-163h66q24 80 92 127.5t162 47.5q79 0 141 -32.5zM629.5 167q24.5 29 24.5 78q0 50 -24.5 79t-66.5 29q-41 0 -66 -29.5t-25 -78.5t25 -78
t66 -29q42 0 66.5 29z" />
    <glyph glyph-name="uni044F" unicode="&#x44f;" horiz-adv-x="585" 
d="M519 0h-176v158h-32l-114 -158h-200l134 182q-42 20 -66 56t-24 85q0 81 56.5 124t159.5 43h262v-490zM232 351q-16 -11 -16 -33t16 -34t45 -12h66v90h-65q-30 0 -46 -11z" />
    <glyph glyph-name="uni0451" unicode="&#x451;" horiz-adv-x="601" 
d="M566 200h-364q11 -30 44.5 -47t80.5 -17q54 0 110 13.5t90 29.5v-151q-79 -40 -210 -40q-90 0 -154.5 33.5t-97.5 93.5t-33 138q0 76 35.5 132.5t97.5 86.5t139 30q135 0 200 -68.5t65 -182.5q0 -25 -3 -51zM237 349q-27 -18 -37 -48h200q-7 36 -35 51t-66 15
q-35 0 -62 -18zM101 584q-30 30 -30 76t30 76t76 30t76 -30t30 -76t-30 -76t-76 -30t-76 30zM353 584q-30 30 -30 76t30 76t76 30t76 -30t30 -76t-30 -76t-76 -30t-76 30z" />
    <glyph glyph-name="uni0454" unicode="&#x454;" horiz-adv-x="560" 
d="M242.5 148q28.5 -12 76.5 -12q53 0 107.5 19.5t91.5 50.5v-165q-41 -26 -94.5 -39.5t-113.5 -13.5q-84 0 -147 32.5t-97 93t-34 141.5q0 73 32.5 129t91.5 87t136 31q69 0 120.5 -23t80 -62.5t31.5 -89.5h-173q-11 38 -67 38q-30 0 -52 -14.5t-33 -41.5h167v-121h-165
q13 -28 41.5 -40z" />
    <glyph glyph-name="uni0456" unicode="&#x456;" horiz-adv-x="309" 
d="M79 584q-30 30 -30 76t30 76t76 30t76 -30t30 -76t-30 -76t-76 -30t-76 30zM66 490h177v-490h-177v490z" />
    <glyph glyph-name="uni0457" unicode="&#x457;" horiz-adv-x="309" 
d="M-47 584q-30 30 -30 76t30 76t76 30t76 -30t30 -76t-30 -76t-76 -30t-76 30zM205 584q-30 30 -30 76t30 76t76 30t76 -30t30 -76t-30 -76t-76 -30t-76 30zM66 490h177v-490h-177v490z" />
    <glyph glyph-name="uni045E" unicode="&#x45e;" horiz-adv-x="609" 
d="M420 490h187l-299 -712h-180l109 255l-235 457h200l122 -262zM131 620v146q31 -25 84.5 -40.5t110.5 -15.5t110.5 15.5t84.5 40.5v-146q-77 -50 -195 -50t-195 50z" />
    <glyph glyph-name="uni0490" unicode="&#x490;" horiz-adv-x="591" 
d="M392 826h179v-290h-313v-536h-186v700h320v126z" />
    <glyph glyph-name="uni0491" unicode="&#x491;" horiz-adv-x="468" 
d="M277 595h171v-255h-171v1h-34v-341h-177v490h211v105z" />
    <glyph glyph-name="endash" unicode="&#x2013;" horiz-adv-x="540" 
d="M60 363h420v-146h-420v146z" />
    <glyph glyph-name="emdash" unicode="&#x2014;" horiz-adv-x="709" 
d="M60 363h589v-146h-589v146z" />
    <glyph glyph-name="quoteleft" unicode="&#x2018;" horiz-adv-x="303" 
d="M34 415l116 297h112l-32 -297h-196z" />
    <glyph glyph-name="quoteright" unicode="&#x2019;" horiz-adv-x="303" 
d="M72 712h197l-117 -297h-112z" />
    <glyph glyph-name="quotesinglbase" unicode="&#x201a;" horiz-adv-x="297" 
d="M66 197h197l-117 -297h-112z" />
    <glyph glyph-name="quotedblleft" unicode="&#x201c;" horiz-adv-x="538" 
d="M27 417l117 297h112l-32 -297h-197zM263 417l117 297h111l-32 -297h-196z" />
    <glyph glyph-name="quotedblright" unicode="&#x201d;" horiz-adv-x="538" 
d="M72 714h197l-117 -297h-112zM307 714h197l-117 -297h-112z" />
    <glyph glyph-name="quotedblbase" unicode="&#x201e;" horiz-adv-x="532" 
d="M66 197h197l-117 -297h-112zM301 197h197l-117 -297h-112z" />
    <glyph glyph-name="dagger" unicode="&#x2020;" horiz-adv-x="553" 
d="M535 490v-150h-175v-388l-165 -82v470h-175v150h175v210h165v-210h175z" />
    <glyph glyph-name="daggerdbl" unicode="&#x2021;" horiz-adv-x="555" 
d="M535 340h-175v-60h175v-150h-175v-178l-165 -82v260h-175v150h175v60h-175v150h175v210h165v-210h175v-150z" />
    <glyph glyph-name="bullet" unicode="&#x2022;" horiz-adv-x="420" 
d="M117 197q-37 37 -37 93t37 93t93 37t93 -37t37 -93t-37 -93t-93 -37t-93 37z" />
    <glyph glyph-name="ellipsis" unicode="&#x2026;" horiz-adv-x="878" 
d="M86.5 25.5q-32.5 32.5 -32.5 78.5q0 47 32.5 79.5t79.5 32.5t79 -32.5t32 -79.5q0 -46 -32 -78.5t-79 -32.5t-79.5 32.5zM359.5 25.5q-32.5 32.5 -32.5 78.5q0 47 32.5 79.5t79.5 32.5t79 -32.5t32 -79.5q0 -46 -32 -78.5t-79 -32.5t-79.5 32.5zM633.5 25.5
q-32.5 32.5 -32.5 78.5q0 47 32.5 79.5t79.5 32.5t79 -32.5t32 -79.5q0 -46 -32 -78.5t-79 -32.5t-79.5 32.5z" />
    <glyph glyph-name="guilsinglleft" unicode="&#x2039;" horiz-adv-x="451" 
d="M231 277l180 -216h-194l-177 214l177 215h190z" />
    <glyph glyph-name="guilsinglright" unicode="&#x203a;" horiz-adv-x="451" 
d="M234 490l177 -214l-177 -215h-190l176 213l-180 216h194z" />
    <glyph glyph-name="Euro" unicode="&#x20ac;" horiz-adv-x="696" 
d="M342.5 183q40.5 -21 95.5 -21q57 0 115.5 20t103.5 54v-195q-45 -26 -101.5 -39.5t-117.5 -13.5q-133 0 -224.5 68t-123.5 187h-77v80h64q-2 28 -2 43v11h-62v80h72q17 77 62 134.5t110 89t140 31.5q129 0 202.5 -68t77.5 -189h-170q-5 49 -33 75t-78 26q-107 0 -136 -99
h158v-80h-169v-11q0 -22 3 -43h166v-80h-139q23 -39 63.5 -60z" />
    <glyph glyph-name="uni20B4" unicode="&#x20b4;" horiz-adv-x="696" 
d="M470 377l-67 -54h247v-80h-347q-21 -23 -21 -51q0 -26 19.5 -38t62.5 -12q57 0 121 19t109 48v-167q-47 -25 -112 -39t-134 -14q-115 0 -177 39.5t-62 113.5q0 28 10.5 54t28.5 47h-98v80h173l66 54h-239v80h326q33 33 33 66q0 21 -19.5 33t-51.5 12q-34 0 -53.5 -11.5
t-26.5 -37.5h-174q10 90 80.5 141.5t182.5 51.5t172 -43t60 -111q0 -27 -14.5 -55t-36.5 -46h122v-80h-180z" />
    <glyph glyph-name="uni2116" unicode="&#x2116;" horiz-adv-x="1213" 
d="M1084 676q47 -25 74 -69.5t27 -99.5t-27 -99t-74 -69t-106 -25t-106.5 25t-74.5 69t-27 99t27 99.5t74.5 69.5t106.5 25t106 -25zM504 382v318h183v-700h-68l-364 416v-416h-183v700h160zM1030.5 452q20.5 21 20.5 55t-20.5 55.5t-52.5 21.5t-52.5 -21.5t-20.5 -55.5
t20.5 -55t52.5 -21t52.5 21z" />
    <glyph glyph-name="trademark" unicode="&#x2122;" horiz-adv-x="676" 
d="M92 619h-74v81h239v-81h-76v-179h-89v179zM295 700h88l73 -81l69 81h87v-260h-88v123l-68 -88h-2l-71 88v-123h-88v260z" />
    <glyph glyph-name="partialdiff" unicode="&#x2202;" horiz-adv-x="619" 
d="M470.5 537.5q62.5 -77.5 89.5 -146.5t27 -143q0 -76 -35 -135t-98 -92t-144 -33t-144.5 31t-98.5 86.5t-35 126.5q0 67 31 119.5t87 82t127 29.5q51 0 91 -23q-39 52 -91.5 102t-136.5 123l-54 47h213q109 -97 171.5 -174.5zM381.5 165q26.5 29 26.5 79t-26.5 79
t-71.5 29t-71.5 -29t-26.5 -79t26.5 -79t71.5 -29t71.5 29z" />
    <glyph glyph-name="emptyset" unicode="&#x2205;" horiz-adv-x="696" 
d="M547 410q28 -34 43 -76.5t15 -88.5q0 -71 -34 -130t-93 -93t-130 -34q-58 0 -107 23l-18 -23h-144l71 93q-28 34 -43.5 76t-15.5 88q0 71 34 130t93 93t130 34q57 0 107 -22l17 22h145zM231 187l144 188q-14 3 -27 3q-55 0 -92 -38t-37 -95q0 -32 12 -58zM465 304
l-145 -189q13 -3 28 -3q55 0 92 38.5t37 94.5q0 32 -12 59z" />
    <glyph glyph-name="minus" unicode="&#x2212;" horiz-adv-x="685" 
d="M98 365h489v-150h-489v150z" />
    <glyph glyph-name="approxequal" unicode="&#x2248;" horiz-adv-x="685" 
d="M158.5 499.5q34.5 15.5 73.5 15.5q34 0 62 -10t60 -28q34 -16 52 -23t40 -7q36 0 70 14.5t69 40.5v-137q-57 -59 -136 -59q-33 0 -61 9.5t-61 27.5q-29 15 -49.5 22.5t-42.5 7.5q-66 0 -139 -55v138q28 28 62.5 43.5zM158.5 259.5q34.5 15.5 73.5 15.5q34 0 62 -10
t60 -28q34 -16 52 -23t40 -7q36 0 70 14.5t69 40.5v-137q-57 -59 -136 -59q-33 0 -61 9.5t-61 27.5q-29 15 -49.5 22.5t-42.5 7.5q-66 0 -139 -55v138q28 28 62.5 43.5z" />
    <glyph glyph-name="notequal" unicode="&#x2260;" horiz-adv-x="685" 
d="M587 342h-146l-48 -107h194v-151h-262l-30 -67h-154l30 67h-73v151h141l48 107h-189v151h256l31 69h154l-31 -69h79v-151z" />
    <glyph glyph-name="lessequal" unicode="&#x2264;" horiz-adv-x="689" 
d="M592 636v-152l-233 -65l233 -66v-149l-489 149v135zM103 1v151h489v-151h-489z" />
    <glyph glyph-name="greaterequal" unicode="&#x2265;" horiz-adv-x="685" 
d="M98 636l489 -148v-135l-489 -149v149l233 66l-233 65v152zM98 1v151h489v-151h-489z" />
    <glyph glyph-name="uni0430.ss02" horiz-adv-x="645" 
d="M579 490v-490h-177v52q-27 -31 -62.5 -47.5t-77.5 -16.5q-69 0 -121 32t-80.5 90.5t-28.5 134.5t28.5 134.5t80.5 90.5t121 32q42 0 77.5 -16.5t62.5 -47.5v52h177zM379 162q26 30 26 83t-26 83t-71 30q-43 0 -69 -30.5t-26 -82.5t26 -82.5t69 -30.5q45 0 71 30z" />
    <glyph glyph-name="uni04070407" horiz-adv-x="681" 
d="M77 700h186v-700h-186v700zM417 700h186v-700h-186v700zM-82 770q-30 30 -30 76t30 76t76 30t76 -30t30 -76t-30 -76t-76 -30t-76 30zM148 770q-30 30 -30 76t30 76t76 30t76 -30t30 -76t-30 -76t-76 -30t-76 30zM379 770q-30 30 -30 76t30 76t76 30t76 -30t30 -76
t-30 -76t-76 -30t-76 30zM609 770q-30 30 -30 76t30 76t76 30t76 -30t30 -76t-30 -76t-76 -30t-76 30z" />
    <glyph glyph-name="uni04560457" horiz-adv-x="640" 
d="M70 584q-30 30 -30 76t30 76t76 30t76.5 -30t30.5 -76t-30.5 -76t-76.5 -30t-76 30zM301 584q-30 30 -30 76t30 76t76 30t76 -30t30 -76t-30 -76t-76 -30t-76 30zM531.5 584q-30.5 30 -30.5 76t30.5 76t76.5 30t76 -30t30 -76t-30 -76t-76 -30t-76.5 30zM66 490h177v-490
h-177v490zM386 490h177v-490h-177v490z" />
    <glyph glyph-name="uni04570457" horiz-adv-x="629" 
d="M-107 584q-30 30 -30 76t30 76t76 30t76 -30t30 -76t-30 -76t-76 -30t-76 30zM123 584q-30 30 -30 76t30 76t76 30t76 -30t30 -76t-30 -76t-76 -30t-76 30zM353.5 584q-30.5 30 -30.5 76t30.5 76t76.5 30t76 -30t30 -76t-30 -76t-76 -30t-76.5 30zM583 584q-30 30 -30 76
t30 76t76 30t76 -30t30 -76t-30 -76t-76 -30t-76 30zM66 490h177v-490h-177v490zM386 490h177v-490h-177v490z" />
    <glyph glyph-name="zero.zero" horiz-adv-x="697" 
d="M512.5 669q68.5 -43 105.5 -124.5t37 -194.5q0 -110 -38 -192t-107.5 -126t-160.5 -44q-95 0 -164 43t-106 124.5t-37 194.5q0 111 38 192.5t107.5 125.5t161.5 44q95 0 163.5 -43zM452 495.5q-35 49.5 -103 49.5q-22 0 -38 -4l171 -258q5 33 5 67q0 96 -35 145.5z
M245.5 204.5q35.5 -49.5 103.5 -49.5q20 0 35 4l-169 256q-5 -32 -5 -65q0 -96 35.5 -145.5z" />
    <glyph glyph-name="bullet.ss01" horiz-adv-x="925" 
d="M279.5 38.5q-83.5 49.5 -131.5 132.5t-48 181t49.5 181.5t133 131.5t181.5 48t181.5 -49.5t131.5 -133t48 -181.5t-49.5 -181t-133 -131t-181.5 -48t-181.5 49.5zM638 46q81 47 129 127.5t48 175.5q0 96 -47 177.5t-127.5 129t-176.5 47.5q-62 0 -115 -19
q10 -21 15.5 -40.5t8.5 -46.5q-9 19 -28 34t-40 15q-46 0 -92 -46q-49 -49 -76 -113t-27 -135q0 -96 47 -177t127.5 -128.5t176.5 -47.5t177 47zM538 583q-24 0 -49 -8.5t-45 -22.5q18 27 51 51t62 24q57 0 73 -94q-33 50 -92 50zM237 386q-16 20 -16 63q0 33 10.5 61.5
t27.5 45t35 16.5q9 0 17.5 -4.5t14.5 -13.5q16 -22 16 -61q0 -16 -3 -34q-7 -39 -27 -65t-42 -26h-7q-16 2 -26 18zM305 400q18 24 25 61q3 17 3 32q0 38 -15 57q-8 11 -19 13q-1 0 -2.5 0.5t-2.5 -0.5q-19 0 -37 -25t-25 -61q-3 -15 -3 -30q0 -37 15 -57q11 -14 24 -14
q19 0 37 24zM421 448q34 30 68.5 47t60.5 17q25 0 35 -15q7 -10 7 -25q0 -29 -23 -67q4 12 4 26q0 23 -13.5 34t-36.5 11q-25 0 -54.5 -12t-58.5 -34q-19 -14 -38 -35q24 31 49 53zM279.5 446q-5.5 11 -4.5 27h4q4 0 7.5 3.5t3.5 8.5q0 9 -9 11q10 17 20 17q9 0 15 -10
t6 -24q0 -18 -8 -31t-19 -13q-10 0 -15.5 11zM325 94.5q-62 56.5 -100.5 129.5t-36.5 113q25 -11 63 -19t84 -8q184 0 376 130q-49 -170 -116.5 -287t-139.5 -116q-68 1 -130 57.5zM594 174l-24 1q-94 0 -143 -32.5t-67 -61.5q47 -33 97 -33q69 0 137 126z" />
    <glyph glyph-name="asterisk.ss01" horiz-adv-x="425" 
d="M48 404l94 94l-131 20l39 122l119 -61l-19 133h127l-21 -131l119 60l39 -122l-131 -20l95 -94l-105 -75l-59 123l-62 -125z" />
    <glyph glyph-name="caron.alt" 
d="M250 711h169l-125 -214h-71z" />
    <glyph glyph-name="brevecombcy" horiz-adv-x="0" 
d="M-495 620v146q31 -25 84.5 -40.5t110.5 -15.5t110.5 15.5t84.5 40.5v-146q-77 -50 -195 -50t-195 50z" />
    <glyph glyph-name="rozetka" horiz-adv-x="925" 
d="M279.5 38.5q-83.5 49.5 -131.5 132.5t-48 181t49.5 181.5t133 131.5t181.5 48t181.5 -49.5t131.5 -133t48 -181.5t-49.5 -181t-133 -131t-181.5 -48t-181.5 49.5zM638 46q81 47 129 127.5t48 175.5q0 96 -47 177.5t-127.5 129t-176.5 47.5q-62 0 -115 -19
q10 -21 15.5 -40.5t8.5 -46.5q-9 19 -28 34t-40 15q-46 0 -92 -46q-49 -49 -76 -113t-27 -135q0 -96 47 -177t127.5 -128.5t176.5 -47.5t177 47zM538 583q-24 0 -49 -8.5t-45 -22.5q18 27 51 51t62 24q57 0 73 -94q-33 50 -92 50zM237 386q-16 20 -16 63q0 33 10.5 61.5
t27.5 45t35 16.5q9 0 17.5 -4.5t14.5 -13.5q16 -22 16 -61q0 -16 -3 -34q-7 -39 -27 -65t-42 -26h-7q-16 2 -26 18zM305 400q18 24 25 61q3 17 3 32q0 38 -15 57q-8 11 -19 13q-1 0 -2.5 0.5t-2.5 -0.5q-19 0 -37 -25t-25 -61q-3 -15 -3 -30q0 -37 15 -57q11 -14 24 -14
q19 0 37 24zM421 448q34 30 68.5 47t60.5 17q25 0 35 -15q7 -10 7 -25q0 -29 -23 -67q4 12 4 26q0 23 -13.5 34t-36.5 11q-25 0 -54.5 -12t-58.5 -34q-19 -14 -38 -35q24 31 49 53zM279.5 446q-5.5 11 -4.5 27h4q4 0 7.5 3.5t3.5 8.5q0 9 -9 11q10 17 20 17q9 0 15 -10
t6 -24q0 -18 -8 -31t-19 -13q-10 0 -15.5 11zM325 94.5q-62 56.5 -100.5 129.5t-36.5 113q25 -11 63 -19t84 -8q184 0 376 130q-49 -170 -116.5 -287t-139.5 -116q-68 1 -130 57.5zM594 174l-24 1q-94 0 -143 -32.5t-67 -61.5q47 -33 97 -33q69 0 137 126z" />
    <glyph glyph-name="rozetka.bg" horiz-adv-x="925" 
d="M279.5 38.5q-83.5 49.5 -131.5 132.5t-48 181t49.5 181.5t133 131.5t181.5 48t181.5 -49.5t131.5 -133t48 -181.5t-49.5 -181t-133 -131t-181.5 -48t-181.5 49.5z" />
    </font>
</defs>
</svg>
