<svg xmlns="http://www.w3.org/2000/svg">
<defs>
<font id="RozetkawebThinCompressed" horiz-adv-x="150" >
  <font-face 
    font-family="RozetkawebThinCompressed"
    font-weight="100"
    font-stretch="ultra-condensed"
    units-per-em="1000"
    panose-1="0 0 2 8 0 0 0 0 0 0"
    ascent="800"
    descent="-200"
    x-height="490"
    cap-height="700"
    bbox="-115 -146 825 800"
    underline-thickness="50"
    underline-position="-100"
    unicode-range="U+000D-FB02"
  />
<missing-glyph horiz-adv-x="925" 
d="M279.5 38.5q-83.5 49.5 -131.5 132.5t-48 181t49.5 181.5t133 131.5t181.5 48t181.5 -49.5t131.5 -133t48 -181.5t-49.5 -181t-133 -131t-181.5 -48t-181.5 49.5zM638 46q81 47 129 127.5t48 175.5q0 96 -47 177.5t-127.5 129t-176.5 47.5q-62 0 -115 -19
q11 -20 15.5 -39.5t8.5 -47.5q-9 19 -27.5 34t-40.5 15q-46 0 -92 -46q-49 -49 -76 -113t-27 -135q0 -96 47 -177t127.5 -128.5t176.5 -47.5t177 47zM539 583q-50 0 -95 -31q18 27 51 51t62 24q57 0 73 -94q-31 50 -91 50zM237 386q-16 20 -16 63q0 33 10.5 61.5t27.5 45
t35 16.5q20 0 32 -18q16 -22 16 -61q0 -16 -3 -34q-7 -39 -27 -65t-42 -26h-7q-16 2 -26 18zM305 400q18 24 25 61q3 17 3 32q0 38 -15 57q-8 11 -19 13q-1 0 -2.5 0.5t-2.5 -0.5q-19 0 -37 -25t-25 -61q-3 -16 -3 -31q0 -36 15 -56q11 -14 24 -14q19 0 37 24zM421 448
q34 30 68.5 47t60.5 17q25 0 35 -15q7 -10 7 -25q0 -29 -23 -67q4 12 4 26q0 23 -13.5 34t-36.5 11q-25 0 -54.5 -12t-58.5 -34q-21 -17 -38 -35q23 30 49 53zM279.5 446q-5.5 11 -4.5 27h4q4 0 7.5 3.5t3.5 8.5q0 9 -9 11q10 17 20 17q9 0 15 -10t6 -24q0 -18 -8 -31
t-19 -13q-10 0 -15.5 11zM325 94.5q-62 56.5 -100.5 129.5t-36.5 113q25 -11 63 -19t84 -8q184 0 376 130q-49 -170 -116.5 -287t-139.5 -116q-68 1 -130 57.5zM594 174l-24 1q-94 0 -144 -32.5t-66 -61.5q47 -33 97 -33q69 0 137 126z" />
    <glyph glyph-name="fi" unicode="fi" horiz-adv-x="158" 
d="M130 0h-20v472h-56v-472h-19v472h-28v18h28v140q0 41 9 58t30 17q10 0 23 -8v-22q-11 11 -23 11q-11 0 -15.5 -12.5t-4.5 -43.5v-140h76v-490zM133 573q5 -5 5 -13q0 -7 -5 -12.5t-13 -5.5q-7 0 -12.5 5.5t-5.5 12.5q0 8 5.5 13t12.5 5q8 0 13 -5z" />
    <glyph glyph-name="fl" unicode="fl" horiz-adv-x="157" 
d="M108 701q12 -4 21 -11v-690h-19v677q-12 9 -29 9q-15 0 -21 -12.5t-6 -43.5v-140h32v-18h-32v-472h-19v472h-28v18h28v140q0 41 12 58t40 17q9 0 21 -4z" />
    <glyph glyph-name="f_f" unicode="ff" horiz-adv-x="174" 
d="M133.5 673.5q-4.5 -12.5 -4.5 -43.5v-140h43v-18h-43v-472h-19v472h-56v-472h-19v472h-28v18h28v140q0 41 9 58t30 17q8 0 18 -5v-21q-8 7 -18 7q-11 0 -15.5 -12.5t-4.5 -43.5v-140h56v140q0 41 9 58t30 17q10 0 23 -8v-22q-11 11 -23 11q-11 0 -15.5 -12.5z" />
    <glyph glyph-name="f_f_i" unicode="ffi" horiz-adv-x="233" 
d="M205 0h-20v472h-56v-472h-19v472h-56v-472h-19v472h-28v18h28v140q0 41 9 58t30 17q8 0 18 -5v-21q-8 7 -18 7q-11 0 -15.5 -12.5t-4.5 -43.5v-140h56v140q0 41 9 58t30 17q10 0 23 -8v-22q-11 11 -23 11q-11 0 -15.5 -12.5t-4.5 -43.5v-140h76v-490zM208 573q5 -5 5 -13
q0 -7 -5 -12.5t-13 -5.5q-7 0 -12.5 5.5t-5.5 12.5q0 8 5.5 13t12.5 5q8 0 13 -5z" />
    <glyph glyph-name="f_f_l" unicode="ffl" horiz-adv-x="232" 
d="M183 701q12 -4 21 -11v-690h-19v677q-12 9 -29 9q-15 0 -21 -12.5t-6 -43.5v-140h32v-18h-32v-472h-19v472h-56v-472h-19v472h-28v18h28v140q0 41 9 58t30 17q8 0 18 -5v-21q-8 7 -18 7q-11 0 -15.5 -12.5t-4.5 -43.5v-140h56v140q0 41 12 58t40 17q9 0 21 -4z" />
    <glyph glyph-name=".notdef" horiz-adv-x="925" 
d="M279.5 38.5q-83.5 49.5 -131.5 132.5t-48 181t49.5 181.5t133 131.5t181.5 48t181.5 -49.5t131.5 -133t48 -181.5t-49.5 -181t-133 -131t-181.5 -48t-181.5 49.5zM638 46q81 47 129 127.5t48 175.5q0 96 -47 177.5t-127.5 129t-176.5 47.5q-62 0 -115 -19
q11 -20 15.5 -39.5t8.5 -47.5q-9 19 -27.5 34t-40.5 15q-46 0 -92 -46q-49 -49 -76 -113t-27 -135q0 -96 47 -177t127.5 -128.5t176.5 -47.5t177 47zM539 583q-50 0 -95 -31q18 27 51 51t62 24q57 0 73 -94q-31 50 -91 50zM237 386q-16 20 -16 63q0 33 10.5 61.5t27.5 45
t35 16.5q20 0 32 -18q16 -22 16 -61q0 -16 -3 -34q-7 -39 -27 -65t-42 -26h-7q-16 2 -26 18zM305 400q18 24 25 61q3 17 3 32q0 38 -15 57q-8 11 -19 13q-1 0 -2.5 0.5t-2.5 -0.5q-19 0 -37 -25t-25 -61q-3 -16 -3 -31q0 -36 15 -56q11 -14 24 -14q19 0 37 24zM421 448
q34 30 68.5 47t60.5 17q25 0 35 -15q7 -10 7 -25q0 -29 -23 -67q4 12 4 26q0 23 -13.5 34t-36.5 11q-25 0 -54.5 -12t-58.5 -34q-21 -17 -38 -35q23 30 49 53zM279.5 446q-5.5 11 -4.5 27h4q4 0 7.5 3.5t3.5 8.5q0 9 -9 11q10 17 20 17q9 0 15 -10t6 -24q0 -18 -8 -31
t-19 -13q-10 0 -15.5 11zM325 94.5q-62 56.5 -100.5 129.5t-36.5 113q25 -11 63 -19t84 -8q184 0 376 130q-49 -170 -116.5 -287t-139.5 -116q-68 1 -130 57.5zM594 174l-24 1q-94 0 -144 -32.5t-66 -61.5q47 -33 97 -33q69 0 137 126z" />
    <glyph glyph-name=".null" horiz-adv-x="0" 
 />
    <glyph glyph-name="nonmarkingreturn" unicode="&#xd;" horiz-adv-x="80" 
 />
    <glyph glyph-name="space" unicode=" " horiz-adv-x="80" 
 />
    <glyph glyph-name="exclam" unicode="!" horiz-adv-x="96" 
d="M38 700h20l-2 -580h-16zM35.5 5.5q-5.5 5.5 -5.5 12.5q0 8 5.5 13t12.5 5q9 0 13.5 -5t4.5 -13t-4.5 -13t-13.5 -5q-7 0 -12.5 5.5z" />
    <glyph glyph-name="quotedbl" unicode="&#x22;" horiz-adv-x="124" 
d="M25 700h22l-7 -134h-8zM77 700h22l-7 -134h-8z" />
    <glyph glyph-name="numbersign" unicode="#" 
d="M135 412h-30v-124h30v-18h-30v-270h-16v270h-28v-270h-16v270h-30v18h30v124h-30v18h30v270h16v-270h28v270h16v-270h30v-18zM89 288v124h-28v-124h28z" />
    <glyph glyph-name="dollar" unicode="$" 
d="M131 32q-13 -33 -35 -36v-66h-18v67q-23 7 -33.5 53.5t-10.5 153.5l19 8q0 -97 6 -141t19 -54v341l-7 21q-15 45 -24 98t-9 101q0 56 11 87.5t30 37.5v67h18v-66q22 -6 33 -51t11 -153h-19q0 167 -25 184v-321l10 -29q17 -49 27 -105.5t10 -102.5q0 -61 -13 -94zM79 418
v266q-22 -16 -22 -106q0 -77 22 -160zM125 126q0 37 -7.5 84.5t-21.5 92.5v-289q29 11 29 112z" />
    <glyph glyph-name="percent" unicode="%" horiz-adv-x="260" 
d="M33.5 353q-8.5 41 -8.5 155q0 77 3.5 119t11 59t21.5 17q19 0 27.5 -41t8.5 -154q0 -77 -3.5 -119.5t-11.5 -59.5t-21 -17q-19 0 -27.5 41zM165 700h18l-90 -700h-18zM77 508q0 176 -16 176q-17 0 -17 -176q0 -177 17 -177q16 0 16 177zM171.5 38q-8.5 41 -8.5 155
q0 77 3.5 119t11 59t21.5 17q19 0 27.5 -41t8.5 -154q0 -77 -3.5 -119.5t-11.5 -59.5t-21 -17q-19 0 -27.5 41zM215 193q0 176 -16 176q-17 0 -17 -176q0 -177 17 -177q16 0 16 177z" />
    <glyph glyph-name="ampersand" unicode="&#x26;" horiz-adv-x="164" 
d="M127 0l-9 66q-17 -71 -47 -71q-50 0 -50 219q0 115 12 166t32 59l-33 243v18h83v-18h-66l70 -519q4 66 4 112q0 26 -2 86h18q0 -154 -12 -241l16 -120h-16zM111 95l-43 322q-14 -4 -21 -48.5t-7 -154.5q0 -200 32 -200q25 0 39 81z" />
    <glyph glyph-name="quotesingle" unicode="'" horiz-adv-x="72" 
d="M25 700h22l-7 -134h-8z" />
    <glyph glyph-name="parenleft" unicode="(" horiz-adv-x="103" 
d="M63 700h16q-33 -182 -33 -420t33 -420h-16q-36 183 -36 420t36 420z" />
    <glyph glyph-name="parenright" unicode=")" horiz-adv-x="103" 
d="M40 -140h-16q33 182 33 420t-33 420h16q36 -183 36 -420t-36 -420z" />
    <glyph glyph-name="asterisk" unicode="*" horiz-adv-x="162" 
d="M128 611l-18 55l47 34h-58l-18 55l-18 -55h-58l47 -34l-18 -55l47 34z" />
    <glyph glyph-name="plus" unicode="+" 
d="M130 309v-18h-46v-71h-18v71h-46v18h46v71h18v-71h46z" />
    <glyph glyph-name="comma" unicode="," horiz-adv-x="80" 
d="M30 34h21l-20 -134h-9z" />
    <glyph glyph-name="hyphen" unicode="-" horiz-adv-x="110" 
d="M20 309h70v-18h-70v18z" />
    <glyph glyph-name="period" unicode="." horiz-adv-x="80" 
d="M27.5 5.5q-5.5 5.5 -5.5 12.5q0 8 5.5 13t12.5 5q9 0 13.5 -5t4.5 -13t-4.5 -13t-13.5 -5q-7 0 -12.5 5.5z" />
    <glyph glyph-name="slash" unicode="/" horiz-adv-x="107" 
d="M75 700h18l-61 -700h-18z" />
    <glyph glyph-name="zero" unicode="0" 
d="M44 23.5q-11 28.5 -16.5 105t-5.5 221.5t5.5 221.5t16.5 105t31 28.5t31 -28.5t16.5 -105t5.5 -221.5t-5.5 -221.5t-16.5 -105t-31 -28.5t-31 28.5zM109 350q0 337 -34 337t-34 -337t34 -337t34 337z" />
    <glyph glyph-name="one" unicode="1" horiz-adv-x="96" 
d="M58 700h8v-700h-19v624l-37 -100v47z" />
    <glyph glyph-name="two" unicode="2" horiz-adv-x="130" 
d="M113 18v-18h-97l1 6l51 303q24 142 24 229q0 71 -7.5 110t-19.5 39q-11 0 -19.5 -46t-8.5 -123h-20q0 97 13 142t35 45q23 0 34.5 -36.5t11.5 -130.5q0 -39 -7 -103t-18 -130l-50 -287h77z" />
    <glyph glyph-name="three" unicode="3" horiz-adv-x="129" 
d="M97.5 377.5q10.5 -41.5 10.5 -157.5q0 -124 -13 -174.5t-42 -50.5q-45 0 -46 154l19 7q1 -72 7 -107.5t22 -35.5q17 0 25 42.5t8 164.5q0 102 -7.5 141.5t-21.5 39.5q-12 0 -24 -18v43l48 256h-66v18h86v-18l-54 -267q7 4 18 4q20 0 30.5 -41.5z" />
    <glyph glyph-name="four" unicode="4" horiz-adv-x="137" 
d="M127 230v-18h-27v-212h-19v212h-76v5l78 483h17v-470h27zM25 230h56v370z" />
    <glyph glyph-name="five" unicode="5" horiz-adv-x="139" 
d="M105 387q11 -52 11 -182q0 -124 -14 -167t-40 -43q-45 0 -46 154l19 7q1 -72 7 -107.5t22 -35.5t24.5 41.5t8.5 150.5q0 213 -31 213q-8 0 -16 -16t-12 -44l-13 4l8 338h74v-18h-57l-7 -271q6 16 13 22t17 6q21 0 32 -52z" />
    <glyph glyph-name="six" unicode="6" horiz-adv-x="147" 
d="M113.5 405q11.5 -54 11.5 -177q0 -134 -13.5 -183.5t-37.5 -49.5t-37.5 53t-13.5 180q0 78 6 145t22 167l26 160h19l-26 -161l-18 -116q12 37 32 37q18 -1 29.5 -55zM96.5 72q8.5 59 8.5 156q0 95 -8 153.5t-20 58.5q-13 0 -24 -56t-11 -156q0 -98 9 -156.5t23 -58.5
t22.5 59z" />
    <glyph glyph-name="seven" unicode="7" horiz-adv-x="129" 
d="M110 700v-18l-58 -682h-20l60 682h-58v-122h-19v140h95z" />
    <glyph glyph-name="eight" unicode="8" horiz-adv-x="148" 
d="M118 305q8 -42 8 -125q0 -103 -12 -144t-40 -41t-40 41t-12 144q0 83 8 125t25 53q-17 12 -25 51.5t-8 119.5q0 98 12 137t40 39t40 -39t12 -137q0 -80 -8 -119.5t-25 -51.5q17 -11 25 -53zM74 368q33 0 33 160q0 161 -33 161t-33 -161q0 -160 33 -160zM107 182
q0 169 -33 169t-33 -169t33 -169t33 169z" />
    <glyph glyph-name="nine" unicode="9" horiz-adv-x="148" 
d="M111.5 652q13.5 -53 13.5 -180q0 -78 -6 -145t-22 -167l-26 -160h-19l26 161l18 116q-12 -37 -32 -37q-18 1 -29.5 55t-11.5 177q0 134 13.5 183.5t37.5 49.5t37.5 -53zM95 316q11 56 11 156q0 98 -9 156.5t-23 58.5t-22.5 -59t-8.5 -156q0 -95 8 -153.5t20 -58.5
q13 0 24 56z" />
    <glyph glyph-name="colon" unicode=":" horiz-adv-x="80" 
d="M27.5 5.5q-5.5 5.5 -5.5 12.5q0 8 5.5 13t12.5 5q9 0 13.5 -5t4.5 -13t-4.5 -13t-13.5 -5q-7 0 -12.5 5.5zM27.5 399.5q-5.5 5.5 -5.5 12.5q0 8 5.5 13t12.5 5q9 0 13.5 -5t4.5 -13t-4.5 -13t-13.5 -5q-7 0 -12.5 5.5z" />
    <glyph glyph-name="semicolon" unicode=";" horiz-adv-x="80" 
d="M30 34h21l-20 -134h-9zM27.5 399.5q-5.5 5.5 -5.5 12.5q0 8 5.5 13t12.5 5q9 0 13.5 -5t4.5 -13t-4.5 -13t-13.5 -5q-7 0 -12.5 5.5z" />
    <glyph glyph-name="less" unicode="&#x3c;" 
d="M130 395v-24l-89 -71l89 -72v-23l-110 89v12z" />
    <glyph glyph-name="equal" unicode="=" 
d="M20 269h110v-18h-110v18zM20 349h110v-18h-110v18z" />
    <glyph glyph-name="greater" unicode="&#x3e;" 
d="M20 395l110 -89v-12l-110 -89v23l89 72l-89 71v24z" />
    <glyph glyph-name="at" unicode="@" horiz-adv-x="194" 
d="M117 207q-5 -56 -24 -56q-17 0 -24.5 44.5t-7.5 155.5t7.5 155.5t24.5 44.5q19 0 24 -56v43h13v-356h13q8 78 8 168q0 92 -8 170t-20.5 123.5t-25.5 45.5t-25.5 -45.5t-20.5 -123.5t-8 -170q0 -104 8 -181t20.5 -117.5t25.5 -40.5q11 0 21.5 27.5t15.5 73.5l16 -8
q-7 -51 -21 -80t-32 -29q-33 0 -51.5 89t-18.5 266q0 158 19.5 256.5t50.5 98.5t50.5 -98.5t19.5 -256.5q0 -108 -9 -186h-41v43zM110 217q6 45 6 134q0 90 -6 135.5t-16 45.5q-7 0 -12 -42t-5 -139q0 -96 5 -137.5t12 -41.5q10 0 16 45z" />
    <glyph glyph-name="A" unicode="A" horiz-adv-x="178" 
d="M141 0l-22 241h-61l-21 -241h-19l64 700h12l66 -700h-19zM59 259h58l-29 325z" />
    <glyph glyph-name="B" unicode="B" horiz-adv-x="155" 
d="M123 306.5q9 -39.5 9 -121.5q0 -72 -7 -112t-21 -56.5t-37 -16.5h-37v700h38q33 0 47.5 -37.5t14.5 -136.5q0 -77 -9 -115t-29 -51q22 -14 31 -53.5zM50 682v-313h18q22 0 32 35t10 122t-10 121.5t-32 34.5h-18zM101.5 55q10.5 37 10.5 130q0 92 -10.5 129t-34.5 37h-17
v-333h17q24 0 34.5 37z" />
    <glyph glyph-name="C" unicode="C" horiz-adv-x="169" 
d="M53.5 25.5q-13.5 30.5 -20 107t-6.5 217.5t6.5 217.5t20 107t36.5 30.5q26 0 39.5 -53t14.5 -179h-20q-1 114 -10.5 164t-23.5 50q-21 0 -32 -74.5t-11 -262.5t11 -262.5t32 -74.5q15 0 25.5 54.5t10.5 177.5l20 -9q-1 -131 -15 -186t-41 -55q-23 0 -36.5 30.5z" />
    <glyph glyph-name="D" unicode="D" horiz-adv-x="179" 
d="M120.5 667q16.5 -33 24 -109t7.5 -208t-7.5 -208t-24 -109t-43.5 -33h-47v700h47q27 0 43.5 -33zM118 97q14 79 14 253t-14 253t-41 79h-27v-664h27q27 0 41 79z" />
    <glyph glyph-name="E" unicode="E" horiz-adv-x="139" 
d="M119 682h-69v-313h59v-18h-59v-333h69v-18h-89v700h89v-18z" />
    <glyph glyph-name="F" unicode="F" horiz-adv-x="134" 
d="M119 682h-69v-313h57v-18h-57v-351h-20v700h89v-18z" />
    <glyph glyph-name="G" unicode="G" horiz-adv-x="177" 
d="M150 0h-12l-4 80q-6 -47 -16.5 -66t-27.5 -19q-23 0 -36.5 30.5t-20 107t-6.5 217.5t6.5 217.5t20 107t36.5 30.5q25 0 39 -49t15 -166h-20q-1 104 -10.5 150.5t-23.5 46.5q-21 0 -32 -74.5t-11 -262.5t11 -262.5t32 -74.5q18 0 29.5 55.5t11.5 180.5v74h-41v18h60v-341z
" />
    <glyph glyph-name="H" unicode="H" horiz-adv-x="180" 
d="M130 700h20v-700h-20v351h-80v-351h-20v700h20v-331h80v331z" />
    <glyph glyph-name="I" unicode="I" horiz-adv-x="80" 
d="M30 700h20v-700h-20v700z" />
    <glyph glyph-name="J" unicode="J" horiz-adv-x="119" 
d="M18.5 20q-12.5 25 -14.5 80l18 8q2 -43 9 -69t17 -26t16 37.5t6 137.5v512h20v-512q0 -110 -10.5 -151.5t-31.5 -41.5q-17 0 -29.5 25z" />
    <glyph glyph-name="K" unicode="K" horiz-adv-x="164" 
d="M152 0h-20l-82 354v-354h-20v700h20v-337l75 337h19l-75 -339z" />
    <glyph glyph-name="L" unicode="L" horiz-adv-x="125" 
d="M50 18h70v-18h-90v700h20v-682z" />
    <glyph glyph-name="M" unicode="M" horiz-adv-x="206" 
d="M156 700h20v-700h-19v543l-52 -462h-4l-52 462v-543h-19v700h20l53 -520z" />
    <glyph glyph-name="N" unicode="N" horiz-adv-x="180" 
d="M131 700h19v-700h-8l-93 577v-577h-19v700h18l83 -523v523z" />
    <glyph glyph-name="O" unicode="O" horiz-adv-x="190" 
d="M56 29.5q-15 34.5 -22 111.5t-7 209t7 209t22 111.5t39 34.5t39 -34.5t22 -111.5t7 -209t-7 -209t-22 -111.5t-39 -34.5t-39 34.5zM130.5 96q12.5 83 12.5 254t-12.5 254t-35.5 83t-35.5 -83t-12.5 -254t12.5 -254t35.5 -83t35.5 83z" />
    <glyph glyph-name="P" unicode="P" horiz-adv-x="148" 
d="M98 683q14 -17 21 -58.5t7 -115.5t-7 -115.5t-21 -58.5t-37 -17h-11v-318h-20v700h31q23 0 37 -17zM95.5 374.5q10.5 38.5 10.5 134.5t-10.5 134.5t-34.5 38.5h-11v-346h11q24 0 34.5 38.5z" />
    <glyph glyph-name="Q" unicode="Q" horiz-adv-x="194" 
d="M156.5 119.5q-10.5 -82.5 -32.5 -110.5l16 -71h-16l-13 60q-7 -3 -14 -3q-37 0 -53.5 84.5t-16.5 270.5t16.5 270.5t53.5 84.5t53.5 -84.5t16.5 -270.5q0 -148 -10.5 -230.5zM60.5 99.5q13.5 -86.5 36.5 -86.5q5 0 9 4l-28 132h16l24 -112q29 69 29 313
q0 164 -13.5 250.5t-36.5 86.5t-36.5 -86.5t-13.5 -250.5t13.5 -250.5z" />
    <glyph glyph-name="R" unicode="R" horiz-adv-x="155" 
d="M121 0l-51 338h-2h-18v-338h-20v700h38q31 0 44.5 -43t13.5 -138q0 -77 -8.5 -119.5t-27.5 -55.5l51 -344h-20zM68 356q39 0 39 163t-39 163h-18v-326h18z" />
    <glyph glyph-name="S" unicode="S" horiz-adv-x="148" 
d="M118 228.5q10 -56.5 10 -102.5q0 -65 -14.5 -98t-39.5 -33q-20 0 -32 18.5t-18 64t-6 126.5l19 8q0 -115 8.5 -157t28.5 -42q17 0 26 29t9 84q0 42 -10 97.5t-27 104.5l-17 51q-15 45 -24 98t-9 101q0 63 13.5 95t37.5 32q27 0 39.5 -44t12.5 -161h-19q0 104 -8.5 145.5
t-24.5 41.5q-32 0 -32 -109q0 -48 8.5 -99.5t23.5 -92.5l18 -52q17 -49 27 -105.5z" />
    <glyph glyph-name="T" unicode="T" horiz-adv-x="130" 
d="M125 700v-18h-50v-682h-20v682h-50v18h120z" />
    <glyph glyph-name="U" unicode="U" horiz-adv-x="176" 
d="M54 17q-13 22 -19 76.5t-6 153.5v453h20v-453q0 -234 39 -234t39 234v453h20v-453q0 -99 -6 -153.5t-19 -76.5t-34 -22t-34 22z" />
    <glyph glyph-name="V" unicode="V" horiz-adv-x="178" 
d="M141 700h19l-65 -700h-10l-67 700h19l52 -591z" />
    <glyph glyph-name="W" unicode="W" horiz-adv-x="238" 
d="M198 700h20l-51 -700h-10l-38 624l-38 -624h-10l-51 700h20l36 -543l33 543h20l33 -543z" />
    <glyph glyph-name="X" unicode="X" horiz-adv-x="170" 
d="M72 369l-53 331h21l45 -302l44 302h21l-52 -331l54 -369h-20l-47 339l-47 -339h-20z" />
    <glyph glyph-name="Y" unicode="Y" horiz-adv-x="170" 
d="M152 700l-57 -416v-284h-20v284l-57 416h21l47 -365l46 365h20z" />
    <glyph glyph-name="Z" unicode="Z" horiz-adv-x="146" 
d="M126 700v-18l-91 -664h91v-18h-111v6l92 676h-83v18h102z" />
    <glyph glyph-name="bracketleft" unicode="[" horiz-adv-x="102" 
d="M78 682h-26v-804h26v-18h-44v840h44v-18z" />
    <glyph glyph-name="backslash" unicode="\" horiz-adv-x="107" 
d="M93 0h-18l-61 700h18z" />
    <glyph glyph-name="bracketright" unicode="]" horiz-adv-x="102" 
d="M68 700v-840h-44v18h26v804h-26v18h44z" />
    <glyph glyph-name="asciicircum" unicode="^" 
d="M135 590h-19l-40 80l-41 -80h-20l56 110h8z" />
    <glyph glyph-name="underscore" unicode="_" horiz-adv-x="120" 
d="M5 -41h110v-18h-110v18z" />
    <glyph glyph-name="grave" unicode="`" 
d="M65 530l-25 80h22l18 -80h-15z" />
    <glyph glyph-name="a" unicode="a" horiz-adv-x="124" 
d="M81 486q8 -9 12.5 -36t4.5 -80v-370h-18v61q-4 -32 -12 -49t-22 -17q-19 0 -26.5 26.5t-7.5 81.5q0 102 38 156l7 10q13 19 18 38.5t5 61.5q0 62 -5.5 85t-15.5 23t-21 -16t-18 -41v40q16 35 40 35q13 0 21 -9zM69.5 70.5q9.5 57.5 9.5 106.5v106q-5 -15 -13 -28l-6 -9
q-14 -20 -21.5 -60.5t-7.5 -81.5q0 -47 4 -69t13 -22q12 0 21.5 57.5z" />
    <glyph glyph-name="b" unicode="b" horiz-adv-x="148" 
d="M115.5 439.5q10.5 -55.5 10.5 -194.5t-10.5 -194.5t-34.5 -55.5q-12 0 -20.5 15.5t-13.5 49.5v-60h-19v700h19v-270q5 34 13.5 49.5t20.5 15.5q24 0 34.5 -55.5zM99 66.5q8 53.5 8 178.5q0 126 -8 179t-20 53q-13 0 -22.5 -59t-9.5 -173t9.5 -173t22.5 -59q12 0 20 53.5z
" />
    <glyph glyph-name="c" unicode="c" horiz-adv-x="132" 
d="M43.5 16.5q-10.5 21.5 -16 75.5t-5.5 153t5.5 153t16 75.5t28.5 21.5q21 0 31.5 -37t10.5 -128h-19q0 78 -6.5 112.5t-16.5 34.5q-15 0 -23 -51.5t-8 -180.5t8 -180.5t23 -51.5q10 0 17 38t7 124l19 -6q-1 -94 -12 -134t-31 -40q-18 0 -28.5 21.5z" />
    <glyph glyph-name="d" unicode="d" horiz-adv-x="148" 
d="M120 700v-700h-19v60q-5 -34 -13.5 -49.5t-20.5 -15.5q-24 0 -34.5 55.5t-10.5 194.5t10.5 194.5t34.5 55.5q12 0 20.5 -15.5t13.5 -49.5v270h19zM91.5 72q9.5 59 9.5 173t-9.5 173t-22.5 59q-12 0 -20 -53t-8 -179q0 -125 8 -178.5t20 -53.5q13 0 22.5 59z" />
    <glyph glyph-name="e" unicode="e" horiz-adv-x="135" 
d="M118 75q-1 -35 -13 -57.5t-28 -22.5q-18 0 -29.5 19.5t-18.5 74.5t-7 159q0 143 13 195t38 52q14 0 23 -17.5t13.5 -64.5t4.5 -134q0 -27 -1 -38h-72q0 -228 36 -228q10 0 16.5 23t8.5 61zM41 258h54v20q0 199 -22 199q-32 0 -32 -219z" />
    <glyph glyph-name="f" unicode="f" horiz-adv-x="99" 
d="M58.5 673.5q-4.5 -12.5 -4.5 -43.5v-140h43v-18h-43v-472h-19v472h-28v18h28v140q0 41 9 58t30 17q10 0 23 -8v-22q-11 11 -23 11q-11 0 -15.5 -12.5z" />
    <glyph glyph-name="g" unicode="g" horiz-adv-x="148" 
d="M120 490v-520q0 -63 -12.5 -89t-36.5 -26q-22 0 -36 17v27q7 -12 16.5 -19t18.5 -7q14 0 22.5 20.5t8.5 77.5v89q-5 -34 -13.5 -49.5t-20.5 -15.5q-24 0 -34.5 55.5t-10.5 194.5t10.5 194.5t34.5 55.5q12 0 20.5 -15.5t13.5 -49.5v60h19zM91.5 72q9.5 59 9.5 173
t-9.5 173t-22.5 59q-12 0 -20 -53t-8 -179q0 -125 8 -178.5t20 -53.5q13 0 22.5 59z" />
    <glyph glyph-name="h" unicode="h" horiz-adv-x="142" 
d="M110 461q6 -34 6 -92v-369h-19v369q0 53 -3 80.5t-16 27.5q-7 0 -14 -22.5t-12 -67t-5 -106.5v-281h-19v700h19v-268q5 38 13.5 50.5t20.5 12.5q23 0 29 -34z" />
    <glyph glyph-name="i" unicode="i" horiz-adv-x="76" 
d="M25.5 547.5q-5.5 5.5 -5.5 12.5q0 8 5.5 13t12.5 5q8 0 13 -5t5 -13q0 -7 -5 -12.5t-13 -5.5q-7 0 -12.5 5.5zM28 490h20v-490h-20v490z" />
    <glyph glyph-name="j" unicode="j" horiz-adv-x="76" 
d="M25.5 547.5q-5.5 5.5 -5.5 12.5q0 8 5.5 13t12.5 5q8 0 13 -5t5 -13q0 -7 -5 -12.5t-13 -5.5q-7 0 -12.5 5.5zM28 490h20v-630h-20v630z" />
    <glyph glyph-name="k" unicode="k" horiz-adv-x="129" 
d="M123 0h-19l-57 248v-248h-19v700h19v-443l49 233h20l-52 -237z" />
    <glyph glyph-name="l" unicode="l" horiz-adv-x="75" 
d="M28 700h19v-700h-19v700z" />
    <glyph glyph-name="m" unicode="m" horiz-adv-x="205" 
d="M173.5 461q5.5 -34 5.5 -92v-369h-19v369q0 54 -3 81t-15 27q-6 0 -12.5 -20t-11.5 -54.5t-5 -76.5v-326h-19v369q0 54 -3 81t-15 27q-6 0 -13 -21.5t-11.5 -61t-4.5 -89.5v-305h-19v490h19v-57q5 36 13.5 49t19.5 13q24 0 31 -55q6 32 15 43.5t20 11.5q22 0 27.5 -34z
" />
    <glyph glyph-name="n" unicode="n" horiz-adv-x="142" 
d="M110 461q6 -34 6 -92v-369h-19v369q0 53 -3 80.5t-16 27.5q-7 0 -14 -22.5t-12 -67t-5 -106.5v-281h-19v490h19v-58q5 38 13.5 50.5t20.5 12.5q23 0 29 -34z" />
    <glyph glyph-name="o" unicode="o" horiz-adv-x="148" 
d="M34 50.5q-12 55.5 -12 194.5t12 194.5t40 55.5t40 -55.5t12 -194.5t-12 -194.5t-40 -55.5t-40 55.5zM107 245q0 232 -33 232t-33 -232t33 -232t33 232z" />
    <glyph glyph-name="p" unicode="p" horiz-adv-x="148" 
d="M115.5 439.5q10.5 -55.5 10.5 -194.5t-10.5 -194.5t-34.5 -55.5q-12 0 -20.5 15.5t-13.5 49.5v-200h-19v630h19v-60q5 34 13.5 49.5t20.5 15.5q24 0 34.5 -55.5zM99 66.5q8 53.5 8 178.5q0 126 -8 179t-20 53q-13 0 -22.5 -59t-9.5 -173t9.5 -173t22.5 -59q12 0 20 53.5z
" />
    <glyph glyph-name="q" unicode="q" horiz-adv-x="148" 
d="M120 490v-630h-19v200q-5 -34 -13.5 -49.5t-20.5 -15.5q-24 0 -34.5 55.5t-10.5 194.5t10.5 194.5t34.5 55.5q12 0 20.5 -15.5t13.5 -49.5v60h19zM91.5 72q9.5 59 9.5 173t-9.5 173t-22.5 59q-12 0 -20 -53t-8 -179q0 -125 8 -178.5t20 -53.5q13 0 22.5 59z" />
    <glyph glyph-name="r" unicode="r" horiz-adv-x="97" 
d="M94 490v-18q-3 3 -13 3q-14 0 -24 -50t-10 -144v-281h-19v490h19v-59q5 38 13.5 50.5t20.5 12.5q9 0 13 -4z" />
    <glyph glyph-name="s" unicode="s" horiz-adv-x="117" 
d="M91 19q-11 -24 -32 -24q-18 0 -28 12t-14.5 41t-5.5 84l19 8q0 -74 6.5 -101t22.5 -27q24 0 24 75q0 29 -8.5 71.5t-21.5 74.5l-13 35q-26 75 -26 138q0 43 11 66t32 23q23 0 33 -31t10 -105h-19q0 62 -6 90.5t-18 28.5q-24 0 -24 -72q0 -30 7.5 -67t18.5 -64l14 -36
q12 -32 20.5 -76.5t8.5 -75.5q0 -44 -11 -68z" />
    <glyph glyph-name="t" unicode="t" horiz-adv-x="102" 
d="M68 -5q-20 0 -28 20t-8 75v382h-27v6l40 45h6v-33h43v-18h-43v-382q0 -44 4 -60t14 -16q14 0 25 16v-23q-12 -12 -26 -12z" />
    <glyph glyph-name="u" unicode="u" horiz-adv-x="142" 
d="M114 490v-490h-19v58q-5 -38 -13.5 -50.5t-20.5 -12.5q-23 0 -29 34.5t-6 91.5v369h19v-369q0 -53 3 -80.5t16 -27.5q7 0 14 22.5t12 67t5 106.5v281h19z" />
    <glyph glyph-name="v" unicode="v" horiz-adv-x="136" 
d="M101 490h19l-48 -490h-8l-48 490h19l33 -364z" />
    <glyph glyph-name="w" unicode="w" horiz-adv-x="180" 
d="M143 490h18l-36 -490h-8l-27 431l-27 -431h-8l-36 490h19l21 -332l21 332h20l21 -333z" />
    <glyph glyph-name="x" unicode="x" horiz-adv-x="129" 
d="M97 0l-32 217l-33 -217h-18l40 251l-38 239h18l31 -205l30 205h18l-37 -239l39 -251h-18z" />
    <glyph glyph-name="y" unicode="y" horiz-adv-x="136" 
d="M101 490h19l-59 -630h-18l16 173l-43 457h20l32 -385z" />
    <glyph glyph-name="z" unicode="z" horiz-adv-x="110" 
d="M32 18h61v-18h-81v6l62 466h-58v18h76v-18z" />
    <glyph glyph-name="braceleft" unicode="{" horiz-adv-x="102" 
d="M49.5 -123.5q-8.5 16.5 -8.5 54.5v284q0 32 -5 44.5t-15 12.5v16q10 0 15 12.5t5 44.5v284q0 38 8.5 54.5t28.5 16.5h12v-18h-12q-11 0 -15 -11.5t-4 -41.5v-284q0 -33 -4 -45t-13 -20q9 -8 13 -20t4 -45v-284q0 -30 4 -41.5t15 -11.5h12v-18h-12q-20 0 -28.5 16.5z" />
    <glyph glyph-name="bar" unicode="|" horiz-adv-x="85" 
d="M34 700h17v-840h-17v840z" />
    <glyph glyph-name="braceright" unicode="}" horiz-adv-x="102" 
d="M12 -140v18h12q11 0 15 11.5t4 41.5v284q0 33 4 45t13 20q-9 8 -13 20t-4 45v284q0 30 -4 41.5t-15 11.5h-12v18h12q20 0 28.5 -16.5t8.5 -54.5v-284q0 -32 5 -44.5t15 -12.5v-16q-10 0 -15 -12.5t-5 -44.5v-284q0 -38 -8.5 -54.5t-28.5 -16.5h-12z" />
    <glyph glyph-name="asciitilde" unicode="~" 
d="M64.5 317.5q5.5 -3.5 9.5 -7.5t6 -5q13 -13 20 -13q9 0 17.5 10.5t12.5 21.5v-26q-15 -25 -31 -25q-8 0 -13.5 3.5t-9.5 7.5t-6 5q-13 13 -20 13q-17 0 -30 -32v26q15 25 31 25q8 0 13.5 -3.5z" />
    <glyph glyph-name="uni00A0" unicode="&#xa0;" horiz-adv-x="80" 
 />
    <glyph glyph-name="cent" unicode="&#xa2;" 
d="M91 101v-113h-18v114q-20 9 -29.5 64t-9.5 184t9.5 184t29.5 64v114h18v-113q17 -6 26 -43.5t9 -120.5h-19q0 121 -16 142v-454q17 25 17 157l19 -6q-1 -160 -36 -173zM73 126v448q-20 -32 -20 -224t20 -224z" />
    <glyph glyph-name="sterling" unicode="&#xa3;" 
d="M134 18v-18h-102v15q11 20 17 70t6 117q0 63 -8 149h-21v18h19q-4 37 -7 77.5t-3 81.5q0 102 11.5 139.5t34.5 37.5q15 0 23.5 -18t13 -62.5t5.5 -125.5h-16q-1 106 -8 147t-19 41q-13 0 -20 -34.5t-7 -124.5q0 -60 7 -132l2 -27h36v-18h-34q7 -75 7 -149
q0 -59 -5.5 -107.5t-13.5 -76.5h82z" />
    <glyph glyph-name="currency" unicode="&#xa4;" 
d="M114 168l17 -64l-11 -13l-13 48q-12 -39 -33 -39q-20 0 -32 36l-12 -45l-11 13l16 60q-11 56 -11 186q0 123 11 187l-16 59l11 13l12 -45q12 36 32 36q21 0 33 -39l13 48l11 -13l-17 -64q10 -57 10 -182t-10 -182zM97 178.5q9 60.5 9 171.5t-9 171.5t-23 60.5t-23 -60.5
t-9 -171.5t10 -176q9 -56 22 -56q14 0 23 60.5z" />
    <glyph glyph-name="yen" unicode="&#xa5;" 
d="M135 700l-44 -331h34v-18h-37l-4 -32v-64h41v-18h-41v-237h-19v237h-42v18h42v64l-4 32h-38v18h35l-44 331h18l43 -333l42 333h18z" />
    <glyph glyph-name="brokenbar" unicode="&#xa6;" horiz-adv-x="85" 
d="M34 700h17v-355h-17v355zM51 -140h-17v355h17v-355z" />
    <glyph glyph-name="section" unicode="&#xa7;" horiz-adv-x="117" 
d="M73 228q12 -31 20.5 -73t8.5 -72q0 -42 -11 -65t-32 -23q-26 0 -37 27.5t-11 104.5l19 7q0 -72 6.5 -97.5t22.5 -25.5q24 0 24 72q0 28 -8.5 68.5t-21.5 71.5l-13 34q-26 71 -26 132q0 72 32 84l-6 14q-26 71 -26 133q0 41 11 63t32 22q23 0 33 -30t10 -100h-19
q0 114 -24 114t-24 -69q0 -30 7.5 -64.5t18.5 -61.5l14 -35q12 -31 20.5 -73t8.5 -72q0 -71 -29 -86zM40.5 325q7.5 -35 18.5 -61l8 -20q16 10 16 70q0 27 -8.5 68t-21.5 72l-1 3q-19 -6 -19 -68q0 -29 7.5 -64z" />
    <glyph glyph-name="dieresis" unicode="&#xa8;" 
d="M34.5 547.5q-5.5 5.5 -5.5 12.5q0 8 5.5 13t12.5 5q8 0 13 -5t5 -13q0 -7 -5 -12.5t-13 -5.5q-7 0 -12.5 5.5zM90.5 547.5q-5.5 5.5 -5.5 12.5q0 8 5.5 13t12.5 5q8 0 13 -5t5 -13q0 -7 -5 -12.5t-13 -5.5q-7 0 -12.5 5.5z" />
    <glyph glyph-name="copyright" unicode="&#xa9;" horiz-adv-x="194" 
d="M46.5 93.5q-19.5 98.5 -19.5 256.5t19.5 256.5t50.5 98.5t50.5 -98.5t19.5 -256.5t-19.5 -256.5t-50.5 -98.5t-50.5 98.5zM122.5 56.5q12.5 45.5 20.5 123.5t8 170t-8 170t-20.5 123.5t-25.5 45.5t-25.5 -45.5t-20.5 -123.5t-8 -170t8 -170t20.5 -123.5t25.5 -45.5
t25.5 45.5zM70 194.5q-8 44.5 -8 156.5t8 156.5t28 44.5q16 0 23.5 -32t7.5 -102h-16q0 118 -15 118q-10 0 -15 -45t-5 -140t5 -140t15 -45q7 0 11.5 35.5t4.5 93.5l15 -4q0 -72 -7.5 -106.5t-23.5 -34.5q-20 0 -28 44.5z" />
    <glyph glyph-name="guillemotleft" unicode="&#xab;" horiz-adv-x="147" 
d="M77 460l-42 -160l42 -160h-17l-43 160l43 160h17zM130 460l-42 -160l42 -160h-17l-43 160l43 160h17z" />
    <glyph glyph-name="logicalnot" unicode="&#xac;" 
d="M130 309v-85h-18v67h-92v18h110z" />
    <glyph glyph-name="uni00AD" unicode="&#xad;" horiz-adv-x="110" 
d="M20 309h70v-18h-70v18z" />
    <glyph glyph-name="registered" unicode="&#xae;" horiz-adv-x="123" 
d="M91.5 668.5q9.5 -31.5 9.5 -100.5q0 -70 -9.5 -101.5t-29.5 -31.5q-21 0 -30.5 31.5t-9.5 101.5q0 69 9.5 100.5t30.5 31.5q20 0 29.5 -31.5zM91 568q0 122 -29 122q-30 0 -30 -122q0 -123 30 -123q29 0 29 123zM81 488h-11l-11 71h-2v-71h-10v158h15q7 0 11 -12t4 -31
q0 -15 -2.5 -26t-6.5 -15zM57 573h5q5 0 5 30t-5 30h-5v-60z" />
    <glyph glyph-name="macron" unicode="&#xaf;" 
d="M103 551h-58v18h58v-18z" />
    <glyph glyph-name="degree" unicode="&#xb0;" horiz-adv-x="110" 
d="M23 623q-13 13 -13 32q0 20 13 32.5t32 12.5q20 0 32.5 -12.5t12.5 -32.5q0 -19 -12.5 -32t-32.5 -13q-19 0 -32 13zM76 634q8 8 8 21t-8 21t-21 8t-21 -8t-8 -21t8 -21t21 -8t21 8z" />
    <glyph glyph-name="plusminus" unicode="&#xb1;" 
d="M130 336v-18h-46v-71h-18v71h-46v18h46v71h18v-71h46zM20 196h110v-18h-110v18z" />
    <glyph glyph-name="acute" unicode="&#xb4;" 
d="M88 610h22l-25 -80h-15z" />
    <glyph glyph-name="paragraph" unicode="&#xb6;" horiz-adv-x="168" 
d="M123 682v-822h-18v822h-28v-822h-18v517q-18 0 -28.5 42.5t-10.5 123.5q0 71 11 114t30 43h81v-18h-19z" />
    <glyph glyph-name="periodcentered" unicode="&#xb7;" horiz-adv-x="80" 
d="M27.5 287.5q-5.5 5.5 -5.5 12.5q0 8 5.5 13t12.5 5q9 0 13.5 -5t4.5 -13t-4.5 -13t-13.5 -5q-7 0 -12.5 5.5z" />
    <glyph glyph-name="cedilla" unicode="&#xb8;" 
d="M90.5 -65.5q4.5 -10.5 4.5 -26.5q0 -29 -8 -38.5t-20 -9.5q-10 0 -18 13v23q4 -9 9 -14t10 -5q4 0 8 8.5t4 22.5q0 9 -2.5 14.5t-5.5 5.5q-5 0 -8 -10l-9 4l13 78h15l-9 -55h4q8 0 12.5 -10.5z" />
    <glyph glyph-name="guillemotright" unicode="&#xbb;" horiz-adv-x="147" 
d="M34 460l43 -160l-43 -160h-17l42 160l-42 160h17zM87 460l43 -160l-43 -160h-17l42 160l-42 160h17z" />
    <glyph glyph-name="multiply" unicode="&#xd7;" 
d="M23 227l43 73l-43 73l14 8l38 -65l38 65l14 -8l-43 -73l43 -73l-14 -8l-38 65l-38 -65z" />
    <glyph glyph-name="divide" unicode="&#xf7;" 
d="M20 309h110v-18h-110v18zM62.5 221.5q-5.5 5.5 -5.5 12.5q0 8 5.5 13t12.5 5q8 0 13 -5t5 -13q0 -7 -5 -12.5t-13 -5.5q-7 0 -12.5 5.5zM62.5 353.5q-5.5 5.5 -5.5 12.5q0 8 5.5 13t12.5 5q8 0 13 -5t5 -13q0 -7 -5 -12.5t-13 -5.5q-7 0 -12.5 5.5z" />
    <glyph glyph-name="circumflex" unicode="&#x2c6;" 
d="M115 530h-20l-19 54l-22 -54h-19l40 90z" />
    <glyph glyph-name="caron" unicode="&#x2c7;" 
d="M94 610h20l-40 -90l-40 90h19l22 -54z" />
    <glyph glyph-name="breve" unicode="&#x2d8;" 
d="M35 560v25q16 -22 40 -22t40 22v-25q-16 -18 -40 -18q-22 0 -40 18z" />
    <glyph glyph-name="dotaccent" unicode="&#x2d9;" 
d="M62.5 547.5q-5.5 5.5 -5.5 12.5q0 8 5.5 13t12.5 5q8 0 13 -5t5 -13q0 -7 -5 -12.5t-13 -5.5q-7 0 -12.5 5.5z" />
    <glyph glyph-name="ring" unicode="&#x2da;" 
d="M46.5 551.5q-11.5 11.5 -11.5 28.5t11.5 28.5t28.5 11.5t28.5 -11.5t11.5 -28.5t-11.5 -28.5t-28.5 -11.5t-28.5 11.5zM91.5 563.5q6.5 6.5 6.5 16.5t-6.5 16.5t-16.5 6.5t-16.5 -6.5t-6.5 -16.5t6.5 -16.5t16.5 -6.5t16.5 6.5z" />
    <glyph glyph-name="ogonek" unicode="&#x2db;" 
d="M60 -139q-10 0 -16.5 14t-6.5 36q0 35 10.5 64.5t21.5 36.5l6 -12q-9 -10 -15.5 -35.5t-6.5 -53.5t10 -28q7 0 14 10v-25q-7 -7 -17 -7z" />
    <glyph glyph-name="tilde" unicode="&#x2dc;" 
d="M60 576q7 0 16.5 -6.5t15.5 -6.5q10 0 19 13v-24q-10 -8 -21 -8q-7 0 -16.5 6.5t-15.5 6.5q-10 0 -19 -13v24q10 8 21 8z" />
    <glyph glyph-name="hungarumlaut" unicode="&#x2dd;" 
d="M63 610h22l-25 -80h-15zM109 610h22l-25 -80h-15z" />
    <glyph glyph-name="uni0312" unicode="&#x312;" horiz-adv-x="0" 
d="M-65 530h-21l14 80h12z" />
    <glyph glyph-name="uni0326" unicode="&#x326;" horiz-adv-x="0" 
d="M-86 -60h21l-14 -80h-12z" />
    <glyph glyph-name="uni0401" unicode="&#x401;" horiz-adv-x="139" 
d="M119 682h-69v-313h59v-18h-59v-333h69v-18h-89v700h89v-18zM36.5 747.5q-5.5 5.5 -5.5 12.5q0 8 5.5 13t12.5 5q8 0 13 -5t5 -13q0 -7 -5 -12.5t-13 -5.5q-7 0 -12.5 5.5zM92.5 747.5q-5.5 5.5 -5.5 12.5q0 8 5.5 13t12.5 5q8 0 13 -5t5 -13q0 -7 -5 -12.5t-13 -5.5
q-7 0 -12.5 5.5z" />
    <glyph glyph-name="uni0404" unicode="&#x404;" horiz-adv-x="169" 
d="M146 236q-1 -131 -15 -186t-41 -55q-23 0 -36.5 30.5t-20 107t-6.5 217.5t6.5 217.5t20 107t36.5 30.5q26 0 39.5 -53t14.5 -179h-20q-1 114 -10.5 164t-23.5 50q-20 0 -31 -70.5t-12 -247.5h62v-18h-62v-1q0 -188 11 -262.5t32 -74.5q15 0 25.5 54.5t10.5 177.5z" />
    <glyph glyph-name="uni0406" unicode="&#x406;" horiz-adv-x="80" 
d="M30 700h20v-700h-20v700z" />
    <glyph glyph-name="uni0407" unicode="&#x407;" horiz-adv-x="80" 
d="M30 700h20v-700h-20v700zM-0.5 747.5q-5.5 5.5 -5.5 12.5q0 8 5.5 13t12.5 5q8 0 13 -5t5 -13q0 -7 -5 -12.5t-13 -5.5q-7 0 -12.5 5.5zM55.5 747.5q-5.5 5.5 -5.5 12.5q0 8 5.5 13t12.5 5q8 0 13 -5t5 -13q0 -7 -5 -12.5t-13 -5.5q-7 0 -12.5 5.5z" />
    <glyph glyph-name="uni040E" unicode="&#x40e;" horiz-adv-x="170" 
d="M132 700h20l-73 -700h-19l20 198l-62 502h20l52 -426zM47 760v25q16 -22 40 -22t40 22v-25q-16 -18 -40 -18q-22 0 -40 18z" />
    <glyph glyph-name="uni0410" unicode="&#x410;" horiz-adv-x="178" 
d="M141 0l-22 241h-61l-21 -241h-19l64 700h12l66 -700h-19zM59 259h58l-29 325z" />
    <glyph glyph-name="uni0411" unicode="&#x411;" horiz-adv-x="152" 
d="M101 360.5q14 -16.5 21 -57.5t7 -114q0 -74 -7 -115t-21 -57.5t-37 -16.5h-34v700h89v-18h-69v-305h14q23 0 37 -16.5zM98.5 56q10.5 38 10.5 133q0 94 -10.5 132t-34.5 38h-14v-341h14q24 0 34.5 38z" />
    <glyph glyph-name="uni0412" unicode="&#x412;" horiz-adv-x="155" 
d="M123 306.5q9 -39.5 9 -121.5q0 -72 -7 -112t-21 -56.5t-37 -16.5h-37v700h38q33 0 47.5 -37.5t14.5 -136.5q0 -77 -9 -115t-29 -51q22 -14 31 -53.5zM50 682v-313h18q22 0 32 35t10 122t-10 121.5t-32 34.5h-18zM101.5 55q10.5 37 10.5 130q0 92 -10.5 129t-34.5 37h-17
v-333h17q24 0 34.5 37z" />
    <glyph glyph-name="uni0413" unicode="&#x413;" horiz-adv-x="122" 
d="M117 700v-18h-67v-682h-20v700h87z" />
    <glyph glyph-name="uni0414" unicode="&#x414;" horiz-adv-x="173" 
d="M154 -100h-19v100h-100v-100h-19v118h14q10 111 10 505v177h98v-682h16v-118zM118 18v664h-59v-159q0 -389 -10 -505h69z" />
    <glyph glyph-name="uni0415" unicode="&#x415;" horiz-adv-x="139" 
d="M119 682h-69v-313h59v-18h-59v-333h69v-18h-89v700h89v-18z" />
    <glyph glyph-name="uni0416" unicode="&#x416;" horiz-adv-x="234" 
d="M222 0h-20l-75 353v-353h-20v353l-75 -353h-20l76 361l-68 339h19l68 -337v337h20v-337l68 337h19l-68 -339z" />
    <glyph glyph-name="uni0417" unicode="&#x417;" horiz-adv-x="151" 
d="M128 193q0 -198 -54 -198q-19 0 -30 18t-17 64t-6 129l20 9q0 -83 4 -127t11 -59.5t18 -15.5q16 0 25 47t9 133q0 87 -9 122.5t-29 35.5h-18v18h18q17 0 24.5 38.5t7.5 120.5q0 83 -7.5 121t-18.5 38q-28 0 -32 -176h-20q3 113 16 153.5t36 40.5q22 0 34 -36.5t12 -140.5
q0 -139 -28 -167q34 -22 34 -168z" />
    <glyph glyph-name="uni0418" unicode="&#x418;" horiz-adv-x="180" 
d="M132 700h18v-700h-19v577l-93 -577h-8v700h19v-525z" />
    <glyph glyph-name="uni0419" unicode="&#x419;" horiz-adv-x="180" 
d="M132 700h18v-700h-19v577l-93 -577h-8v700h19v-525zM50 760v25q16 -22 40 -22t40 22v-25q-16 -18 -40 -18q-22 0 -40 18z" />
    <glyph glyph-name="uni041A" unicode="&#x41a;" horiz-adv-x="164" 
d="M152 0h-20l-82 354v-354h-20v700h20v-337l75 337h19l-75 -339z" />
    <glyph glyph-name="uni041B" unicode="&#x41b;" horiz-adv-x="169" 
d="M139 0h-20v682h-59v-162q0 -389 -12 -473q-4 -30 -11 -40t-18 -10q-8 0 -15 7v23q7 -5 10 -5q6 0 9 6t5 22q6 37 9 139t3 331v180h99v-700z" />
    <glyph glyph-name="uni041C" unicode="&#x41c;" horiz-adv-x="206" 
d="M156 700h20v-700h-19v543l-52 -462h-4l-52 462v-543h-19v700h20l53 -520z" />
    <glyph glyph-name="uni041D" unicode="&#x41d;" horiz-adv-x="180" 
d="M130 700h20v-700h-20v351h-80v-351h-20v700h20v-331h80v331z" />
    <glyph glyph-name="uni041E" unicode="&#x41e;" horiz-adv-x="190" 
d="M56 29.5q-15 34.5 -22 111.5t-7 209t7 209t22 111.5t39 34.5t39 -34.5t22 -111.5t7 -209t-7 -209t-22 -111.5t-39 -34.5t-39 34.5zM130.5 96q12.5 83 12.5 254t-12.5 254t-35.5 83t-35.5 -83t-12.5 -254t12.5 -254t35.5 -83t35.5 83z" />
    <glyph glyph-name="uni041F" unicode="&#x41f;" horiz-adv-x="180" 
d="M150 700v-700h-20v682h-80v-682h-20v700h120z" />
    <glyph glyph-name="uni0420" unicode="&#x420;" horiz-adv-x="148" 
d="M98 683q14 -17 21 -58.5t7 -115.5t-7 -115.5t-21 -58.5t-37 -17h-11v-318h-20v700h31q23 0 37 -17zM95.5 374.5q10.5 38.5 10.5 134.5t-10.5 134.5t-34.5 38.5h-11v-346h11q24 0 34.5 38.5z" />
    <glyph glyph-name="uni0421" unicode="&#x421;" horiz-adv-x="169" 
d="M53.5 25.5q-13.5 30.5 -20 107t-6.5 217.5t6.5 217.5t20 107t36.5 30.5q26 0 39.5 -53t14.5 -179h-20q-1 114 -10.5 164t-23.5 50q-21 0 -32 -74.5t-11 -262.5t11 -262.5t32 -74.5q15 0 25.5 54.5t10.5 177.5l20 -9q-1 -131 -15 -186t-41 -55q-23 0 -36.5 30.5z" />
    <glyph glyph-name="uni0422" unicode="&#x422;" horiz-adv-x="130" 
d="M125 700v-18h-50v-682h-20v682h-50v18h120z" />
    <glyph glyph-name="uni0423" unicode="&#x423;" horiz-adv-x="170" 
d="M132 700h20l-73 -700h-19l20 198l-62 502h20l52 -426z" />
    <glyph glyph-name="uni0424" unicode="&#x424;" horiz-adv-x="210" 
d="M160 617.5q14 -27.5 20.5 -90.5t6.5 -172t-6.5 -172t-20.5 -90.5t-37 -27.5h-8v-77h-20v77h-8q-23 0 -37 27.5t-20.5 90.5t-6.5 172t6.5 172t20.5 90.5t37 27.5h8v67h20v-67h8q23 0 37 -27.5zM87 83h8v544h-8q-44 0 -44 -272t44 -272zM167 355q0 272 -44 272h-8v-544h8
q44 0 44 272z" />
    <glyph glyph-name="uni0425" unicode="&#x425;" horiz-adv-x="170" 
d="M72 369l-53 331h21l45 -302l44 302h21l-52 -331l54 -369h-20l-47 339l-47 -339h-20z" />
    <glyph glyph-name="uni0426" unicode="&#x426;" horiz-adv-x="180" 
d="M161 18v-118h-19v100h-112v700h20v-682h75v682h20v-682h16z" />
    <glyph glyph-name="uni0427" unicode="&#x427;" horiz-adv-x="163" 
d="M133 700v-700h-20v316q-17 -17 -34 -17q-53 0 -53 91v310h20v-310q0 -73 33 -73q18 0 34 21v362h20z" />
    <glyph glyph-name="uni0428" unicode="&#x428;" horiz-adv-x="238" 
d="M188 700h20v-700h-178v700h20v-682h59v682h20v-682h59v682z" />
    <glyph glyph-name="uni0429" unicode="&#x429;" horiz-adv-x="243" 
d="M224 18v-118h-19v100h-175v700h20v-682h59v682h20v-682h59v682h20v-682h16z" />
    <glyph glyph-name="uni042A" unicode="&#x42a;" horiz-adv-x="168" 
d="M120 365q14 -17 21 -58.5t7 -115.5t-7 -115.5t-21 -58.5t-37 -17h-31v682h-47v18h67v-318h11q23 0 37 -17zM117.5 56.5q10.5 38.5 10.5 134.5t-10.5 134.5t-34.5 38.5h-11v-346h11q24 0 34.5 38.5z" />
    <glyph glyph-name="uni042B" unicode="&#x42b;" horiz-adv-x="226" 
d="M98 365q14 -17 21 -58.5t7 -115.5t-7 -115.5t-21 -58.5t-37 -17h-31v700h20v-318h11q23 0 37 -17zM95.5 56.5q10.5 38.5 10.5 134.5t-10.5 134.5t-34.5 38.5h-11v-346h11q24 0 34.5 38.5zM176 700h20v-700h-20v700z" />
    <glyph glyph-name="uni042C" unicode="&#x42c;" horiz-adv-x="146" 
d="M98 365q14 -17 21 -58.5t7 -115.5t-7 -115.5t-21 -58.5t-37 -17h-31v700h20v-318h11q23 0 37 -17zM95.5 56.5q10.5 38.5 10.5 134.5t-10.5 134.5t-34.5 38.5h-11v-346h11q24 0 34.5 38.5z" />
    <glyph glyph-name="uni042D" unicode="&#x42d;" horiz-adv-x="168" 
d="M116 674.5q13 -30.5 19 -107t6 -217.5t-6 -217.5t-19 -107t-35 -30.5q-28 0 -43 55t-16 186l20 9q0 -122 11.5 -177t27.5 -55q19 0 29.5 74.5t10.5 262.5v1h-62v18h62q-1 177 -11.5 247.5t-28.5 70.5q-15 0 -25.5 -50.5t-11.5 -163.5h-20q1 126 15.5 179t41.5 53
q22 0 35 -30.5z" />
    <glyph glyph-name="uni042E" unicode="&#x42e;" horiz-adv-x="245" 
d="M203.5 624.5q14.5 -80.5 14.5 -274.5t-14.5 -274.5t-48.5 -80.5t-48.5 80.5t-14.5 274.5v1h-42v-351h-20v700h20v-331h42q1 183 15.5 259.5t47.5 76.5q34 0 48.5 -80.5zM186.5 96q11.5 83 11.5 254t-11.5 254t-31.5 83t-31.5 -83t-11.5 -254t11.5 -254t31.5 -83t31.5 83z
" />
    <glyph glyph-name="uni042F" unicode="&#x42f;" horiz-adv-x="155" 
d="M125 0h-20v338h-20q-5 0 -7 1l-47 -339h-19l48 347q-17 15 -25 56.5t-8 115.5q0 95 13.5 138t44.5 43h40v-700zM105 356v326h-20q-39 0 -39 -163t39 -163h20z" />
    <glyph glyph-name="uni0430" unicode="&#x430;" horiz-adv-x="124" 
d="M81 486q8 -9 12.5 -36t4.5 -80v-370h-18v61q-4 -32 -12 -49t-22 -17q-19 0 -26.5 26.5t-7.5 81.5q0 102 38 156l7 10q13 19 18 38.5t5 61.5q0 62 -5.5 85t-15.5 23t-21 -16t-18 -41v40q16 35 40 35q13 0 21 -9zM69.5 70.5q9.5 57.5 9.5 106.5v106q-5 -15 -13 -28l-6 -9
q-14 -20 -21.5 -60.5t-7.5 -81.5q0 -47 4 -69t13 -22q12 0 21.5 57.5z" />
    <glyph glyph-name="uni0431" unicode="&#x431;" horiz-adv-x="147" 
d="M115.5 422q10.5 -53 10.5 -187q0 -133 -12 -186.5t-40 -53.5q-18 0 -28.5 24.5t-15.5 85t-5 170.5q0 163 8.5 227t23.5 96q5 10 17 28q8 12 12 19q1 3 5 10.5t6 18t2 26.5h17q0 -25 -4 -39.5t-15 -33.5q-5 -8 -12.5 -19t-11.5 -18q-12 -23 -20 -64.5t-11 -128.5
q10 78 38 78q25 0 35.5 -53zM107 235q0 223 -27 223q-15 0 -25.5 -60t-10.5 -163q0 -121 8.5 -172t21.5 -51q33 0 33 223z" />
    <glyph glyph-name="uni0432" unicode="&#x432;" horiz-adv-x="128" 
d="M101 212q6 -28 6 -82q0 -74 -11 -102t-36 -28h-32v490h31q25 0 36 -26.5t11 -97.5q0 -51 -6 -78t-18 -38q13 -10 19 -38zM47 472v-213h12q15 0 21.5 23.5t6.5 83.5t-6.5 83t-21.5 23h-12zM81 43q7 25 7 87t-6.5 86.5t-21.5 24.5h-13v-223h13q14 0 21 25z" />
    <glyph glyph-name="uni0433" unicode="&#x433;" horiz-adv-x="99" 
d="M94 490v-17h-47v-473h-19v490h66z" />
    <glyph glyph-name="uni0434" unicode="&#x434;" horiz-adv-x="134" 
d="M118 -70h-18v70h-70v-70h-18v88h12q6 77 6 348v124h74v-472h14v-88zM86 18v454h-38v-106q0 -272 -7 -348h45z" />
    <glyph glyph-name="uni0435" unicode="&#x435;" horiz-adv-x="135" 
d="M118 75q-1 -35 -13 -57.5t-28 -22.5q-18 0 -29.5 19.5t-18.5 74.5t-7 159q0 143 13 195t38 52q14 0 23 -17.5t13.5 -64.5t4.5 -134q0 -27 -1 -38h-72q0 -228 36 -228q10 0 16.5 23t8.5 61zM41 258h54v20q0 199 -22 199q-32 0 -32 -219z" />
    <glyph glyph-name="uni0436" unicode="&#x436;" horiz-adv-x="173" 
d="M165 0h-20l-49 247v-247h-19v247l-49 -247h-20l51 252l-50 238h19l49 -233v233h19v-233l49 233h19l-50 -238z" />
    <glyph glyph-name="uni0437" unicode="&#x437;" horiz-adv-x="124" 
d="M103 135q0 -140 -43 -140q-25 0 -34.5 32.5t-9.5 113.5l20 8q0 -73 5.5 -105t18.5 -32q11 0 17.5 32t6.5 91q0 106 -31 106h-13v18h13q26 0 26 122q0 45 -5 71.5t-13 26.5q-20 0 -23 -122h-19q1 76 10.5 107t31.5 31q21 0 29.5 -26.5t8.5 -87.5q0 -110 -28 -130
q32 -17 32 -116z" />
    <glyph glyph-name="uni0438" unicode="&#x438;" horiz-adv-x="143" 
d="M97 490h18v-490h-19v400l-60 -400h-8v490h19v-333z" />
    <glyph glyph-name="uni0439" unicode="&#x439;" horiz-adv-x="143" 
d="M97 490h18v-490h-19v400l-60 -400h-8v490h19v-333zM30 560v25q16 -22 40 -22t40 22v-25q-16 -18 -40 -18q-22 0 -40 18z" />
    <glyph glyph-name="uni043A" unicode="&#x43a;" horiz-adv-x="129" 
d="M123 0h-19l-57 248v-248h-19v490h19v-233l49 233h20l-52 -237z" />
    <glyph glyph-name="uni043B" unicode="&#x43b;" horiz-adv-x="139" 
d="M111 0h-19v472h-36v-108q0 -269 -10 -331q-5 -35 -23 -35q-7 0 -12 5v21q3 -3 8 -3q7 0 9 16q7 38 8.5 119t1.5 208v126h73v-490z" />
    <glyph glyph-name="uni043C" unicode="&#x43c;" horiz-adv-x="162" 
d="M115 490h19v-490h-18v358l-31 -285h-8l-31 285v-358h-18v490h19l34 -314z" />
    <glyph glyph-name="uni043D" unicode="&#x43d;" horiz-adv-x="142" 
d="M95 490h19v-490h-19v241h-48v-241h-19v490h19v-231h48v231z" />
    <glyph glyph-name="uni043E" unicode="&#x43e;" horiz-adv-x="148" 
d="M34 50.5q-12 55.5 -12 194.5t12 194.5t40 55.5t40 -55.5t12 -194.5t-12 -194.5t-40 -55.5t-40 55.5zM107 245q0 232 -33 232t-33 -232t33 -232t33 232z" />
    <glyph glyph-name="uni043F" unicode="&#x43f;" horiz-adv-x="142" 
d="M114 490v-490h-19v472h-48v-472h-19v490h86z" />
    <glyph glyph-name="uni0440" unicode="&#x440;" horiz-adv-x="148" 
d="M115.5 439.5q10.5 -55.5 10.5 -194.5t-10.5 -194.5t-34.5 -55.5q-12 0 -20.5 15.5t-13.5 49.5v-200h-19v630h19v-60q5 34 13.5 49.5t20.5 15.5q24 0 34.5 -55.5zM99 66.5q8 53.5 8 178.5q0 126 -8 179t-20 53q-13 0 -22.5 -59t-9.5 -173t9.5 -173t22.5 -59q12 0 20 53.5z
" />
    <glyph glyph-name="uni0441" unicode="&#x441;" horiz-adv-x="132" 
d="M43.5 16.5q-10.5 21.5 -16 75.5t-5.5 153t5.5 153t16 75.5t28.5 21.5q21 0 31.5 -37t10.5 -128h-19q0 78 -6.5 112.5t-16.5 34.5q-15 0 -23 -51.5t-8 -180.5t8 -180.5t23 -51.5q10 0 17 38t7 124l19 -6q-1 -94 -12 -134t-31 -40q-18 0 -28.5 21.5z" />
    <glyph glyph-name="uni0442" unicode="&#x442;" horiz-adv-x="103" 
d="M100 490v-18h-39v-472h-19v472h-39v18h97z" />
    <glyph glyph-name="uni0443" unicode="&#x443;" horiz-adv-x="136" 
d="M101 490h19l-59 -630h-18l16 173l-43 457h20l32 -385z" />
    <glyph glyph-name="uni0444" unicode="&#x444;" horiz-adv-x="215" 
d="M182.5 439q10.5 -56 10.5 -194t-10.5 -194t-32.5 -56q-12 0 -20 15t-13 49v-199h-19v199q-5 -34 -13 -49t-20 -15q-22 0 -32.5 56t-10.5 194t10.5 194t32.5 56q12 0 20 -15t13 -49v269h19v-269q5 34 13 49t20 15q22 0 32.5 -56zM89 72q9 59 9 173t-9 173t-21 59
q-27 0 -27 -232t27 -232q12 0 21 59zM174 245q0 232 -27 232q-12 0 -21 -59t-9 -173t9 -173t21 -59q27 0 27 232z" />
    <glyph glyph-name="uni0445" unicode="&#x445;" horiz-adv-x="129" 
d="M97 0l-32 217l-33 -217h-18l40 251l-38 239h18l31 -205l30 205h18l-37 -239l39 -251h-18z" />
    <glyph glyph-name="uni0446" unicode="&#x446;" horiz-adv-x="144" 
d="M114 18h14v-88h-18v70h-82v490h19v-472h48v472h19v-472z" />
    <glyph glyph-name="uni0447" unicode="&#x447;" horiz-adv-x="129" 
d="M101 490v-490h-19v218q-10 -8 -22 -8q-18 0 -28 16t-10 48v216h19v-216q0 -47 21 -47q12 0 20 9v254h19z" />
    <glyph glyph-name="uni0448" unicode="&#x448;" horiz-adv-x="193" 
d="M146 490h19v-490h-137v490h19v-472h40v472h19v-472h40v472z" />
    <glyph glyph-name="uni0449" unicode="&#x449;" horiz-adv-x="195" 
d="M179 18v-88h-18v70h-133v490h19v-472h40v472h19v-472h40v472h19v-472h14z" />
    <glyph glyph-name="uni044A" unicode="&#x44a;" horiz-adv-x="135" 
d="M106 239.5q11 -28.5 11 -105.5q0 -76 -11 -105t-36 -29h-29v472h-38v18h57v-222h10q25 0 36 -28.5zM91 44q7 26 7 90t-7 90t-21 26h-10v-232h10q14 0 21 26z" />
    <glyph glyph-name="uni044B" unicode="&#x44b;" horiz-adv-x="187" 
d="M93 239.5q11 -28.5 11 -105.5q0 -76 -11 -105t-36 -29h-29v490h19v-222h10q25 0 36 -28.5zM139 490h20v-490h-20v490zM78 44q7 26 7 90t-7 90t-21 26h-10v-232h10q14 0 21 26z" />
    <glyph glyph-name="uni044C" unicode="&#x44c;" horiz-adv-x="122" 
d="M93 239.5q11 -28.5 11 -105.5q0 -76 -11 -105t-36 -29h-29v490h19v-222h10q25 0 36 -28.5zM78 44q7 26 7 90t-7 90t-21 26h-10v-232h10q14 0 21 26z" />
    <glyph glyph-name="uni044D" unicode="&#x44d;" horiz-adv-x="131" 
d="M88.5 473.5q10.5 -21.5 15.5 -75.5t5 -153t-5 -153t-15.5 -75.5t-27.5 -21.5q-44 0 -45 167l19 6q1 -155 26 -155q14 0 21.5 50.5t7.5 177.5h-40v18h40q-1 122 -8 170t-21 48q-10 0 -17 -32.5t-8 -104.5h-19q1 85 12 120t32 35q17 0 27.5 -21.5z" />
    <glyph glyph-name="uni044E" unicode="&#x44e;" horiz-adv-x="199" 
d="M165.5 439.5q11.5 -55.5 11.5 -194.5t-11.5 -194.5t-36.5 -55.5t-36.5 54.5t-11.5 191.5h-34v-241h-19v490h19v-231h34q1 131 12 183.5t36 52.5t36.5 -55.5zM158 245q0 232 -29 232t-29 -232t29 -232t29 232z" />
    <glyph glyph-name="uni044F" unicode="&#x44f;" horiz-adv-x="126" 
d="M98 0h-19v233h-17h-2l-29 -233h-20l32 241q-23 22 -23 120q0 67 10 98t32 31h36v-490zM79 251v221h-17q-10 0 -16.5 -28t-6.5 -83t6.5 -82.5t16.5 -27.5h17z" />
    <glyph glyph-name="uni0451" unicode="&#x451;" horiz-adv-x="135" 
d="M118 75q-1 -35 -13 -57.5t-28 -22.5q-18 0 -29.5 19.5t-18.5 74.5t-7 159q0 143 13 195t38 52q14 0 23 -17.5t13.5 -64.5t4.5 -134q0 -27 -1 -38h-72q0 -228 36 -228q10 0 16.5 23t8.5 61zM41 258h54v20q0 199 -22 199q-32 0 -32 -219zM29.5 547.5q-5.5 5.5 -5.5 12.5
q0 8 5.5 13t12.5 5q8 0 13 -5t5 -13q0 -7 -5 -12.5t-13 -5.5q-7 0 -12.5 5.5zM85.5 547.5q-5.5 5.5 -5.5 12.5q0 8 5.5 13t12.5 5q8 0 13 -5t5 -13q0 -7 -5 -12.5t-13 -5.5q-7 0 -12.5 5.5z" />
    <glyph glyph-name="uni0454" unicode="&#x454;" horiz-adv-x="132" 
d="M115 162q-1 -90 -12 -128.5t-31 -38.5q-18 0 -28.5 21.5t-16 75.5t-5.5 153t5.5 153t16 75.5t28.5 21.5q20 0 30.5 -35t11.5 -120h-19q-1 72 -7.5 104.5t-15.5 32.5q-15 0 -22.5 -48t-8.5 -170h40v-18h-40q0 -127 8 -177.5t23 -50.5q23 0 24 155z" />
    <glyph glyph-name="uni0456" unicode="&#x456;" horiz-adv-x="76" 
d="M25.5 547.5q-5.5 5.5 -5.5 12.5q0 8 5.5 13t12.5 5q8 0 13 -5t5 -13q0 -7 -5 -12.5t-13 -5.5q-7 0 -12.5 5.5zM28 490h20v-490h-20v490z" />
    <glyph glyph-name="uni0457" unicode="&#x457;" horiz-adv-x="76" 
d="M-2.5 547.5q-5.5 5.5 -5.5 12.5q0 8 5.5 13t12.5 5q8 0 13 -5t5 -13q0 -7 -5 -12.5t-13 -5.5q-7 0 -12.5 5.5zM53.5 547.5q-5.5 5.5 -5.5 12.5q0 8 5.5 13t12.5 5q8 0 13 -5t5 -13q0 -7 -5 -12.5t-13 -5.5q-7 0 -12.5 5.5zM28 490h20v-490h-20v490z" />
    <glyph glyph-name="uni045E" unicode="&#x45e;" horiz-adv-x="136" 
d="M101 490h19l-59 -630h-18l16 173l-43 457h20l32 -385zM28 560v25q16 -22 40 -22t40 22v-25q-16 -18 -40 -18q-22 0 -40 18z" />
    <glyph glyph-name="uni0490" unicode="&#x490;" horiz-adv-x="122" 
d="M98 800h19v-118h-67v-682h-20v700h68v100z" />
    <glyph glyph-name="uni0491" unicode="&#x491;" horiz-adv-x="99" 
d="M76 560h18v-87h-47v-473h-19v490h48v70z" />
    <glyph glyph-name="endash" unicode="&#x2013;" 
d="M20 309h110v-18h-110v18z" />
    <glyph glyph-name="emdash" unicode="&#x2014;" horiz-adv-x="210" 
d="M20 309h170v-18h-170v18z" />
    <glyph glyph-name="quoteleft" unicode="&#x2018;" horiz-adv-x="59" 
d="M15 566l20 134h9l-8 -134h-21z" />
    <glyph glyph-name="quoteright" unicode="&#x2019;" horiz-adv-x="59" 
d="M23 700h21l-20 -134h-9z" />
    <glyph glyph-name="quotesinglbase" unicode="&#x201a;" horiz-adv-x="80" 
d="M30 34h21l-20 -134h-9z" />
    <glyph glyph-name="quotedblleft" unicode="&#x201c;" horiz-adv-x="110" 
d="M15 566l20 134h9l-8 -134h-21zM66 566l20 134h9l-8 -134h-21z" />
    <glyph glyph-name="quotedblright" unicode="&#x201d;" horiz-adv-x="110" 
d="M23 700h21l-20 -134h-9zM74 700h21l-20 -134h-9z" />
    <glyph glyph-name="quotedblbase" unicode="&#x201e;" horiz-adv-x="131" 
d="M30 34h21l-20 -134h-9zM81 34h21l-20 -134h-9z" />
    <glyph glyph-name="dagger" unicode="&#x2020;" horiz-adv-x="117" 
d="M99 490v-18h-31v-607l-19 -11v618h-31v18h31v210h19v-210h31z" />
    <glyph glyph-name="daggerdbl" unicode="&#x2021;" horiz-adv-x="117" 
d="M99 472h-31v-214h31v-18h-31v-375l-19 -11v386h-31v18h31v214h-31v18h31v210h19v-210h31v-18z" />
    <glyph glyph-name="bullet" unicode="&#x2022;" horiz-adv-x="126" 
d="M32.5 269.5q-12.5 12.5 -12.5 30.5t12.5 30.5t30.5 12.5q21 0 32 -12t11 -31t-11 -31t-32 -12q-18 0 -30.5 12.5z" />
    <glyph glyph-name="ellipsis" unicode="&#x2026;" horiz-adv-x="240" 
d="M27.5 5.5q-5.5 5.5 -5.5 12.5q0 8 5.5 13t12.5 5q9 0 13.5 -5t4.5 -13t-4.5 -13t-13.5 -5q-7 0 -12.5 5.5zM107.5 5.5q-5.5 5.5 -5.5 12.5q0 8 5.5 13t12.5 5q9 0 13.5 -5t4.5 -13t-4.5 -13t-13.5 -5q-7 0 -12.5 5.5zM187.5 5.5q-5.5 5.5 -5.5 12.5q0 8 5.5 13t12.5 5
q9 0 13.5 -5t4.5 -13t-4.5 -13t-13.5 -5q-7 0 -12.5 5.5z" />
    <glyph glyph-name="guilsinglleft" unicode="&#x2039;" horiz-adv-x="94" 
d="M77 460l-42 -160l42 -160h-17l-43 160l43 160h17z" />
    <glyph glyph-name="guilsinglright" unicode="&#x203a;" horiz-adv-x="94" 
d="M34 460l43 -160l-43 -160h-17l42 160l-42 160h17z" />
    <glyph glyph-name="Euro" unicode="&#x20ac;" 
d="M139 216q-1 -127 -14 -174t-39 -47q-20 0 -33 25t-20 88t-8 176h-21v18h21v48v48h-21v18h21q1 113 8.5 175.5t20.5 88t34 25.5q16 0 26 -16.5t16 -63.5t7 -134h-20q-1 114 -8.5 155t-20.5 41q-19 0 -30 -60t-13 -211h51v-18h-51v-48v-48h51v-18h-51q2 -151 12.5 -211
t28.5 -60q15 0 24 45.5t9 166.5z" />
    <glyph glyph-name="uni20B4" unicode="&#x20b4;" 
d="M101 398l-31 -96h63v-18h-69q-22 -98 -22 -168q0 -103 35 -103q20 0 28.5 42t8.5 157l19 -8q0 -81 -6 -126.5t-18 -64t-32 -18.5q-25 0 -39.5 30.5t-14.5 90.5q0 78 22 168h-22v18h29l31 96h-60v18h64q23 85 23 172q0 99 -30 99q-16 0 -25 -36.5t-10 -127.5h-19
q1 104 14.5 143t39.5 39q23 0 36 -29.5t13 -87.5q0 -89 -23 -172h27v-18h-32z" />
    <glyph glyph-name="uni2116" unicode="&#x2116;" horiz-adv-x="250" 
d="M121 181v519h19v-700h-8l-83 573v-573h-19v700h18zM229 669q8 -31 8 -107q0 -77 -8 -108.5t-26 -31.5t-26 31.5t-8 108.5q0 76 8 107t26 31t26 -31zM215.5 469.5q5.5 31.5 5.5 92.5q0 60 -5.5 91t-12.5 31t-12.5 -31t-5.5 -91q0 -61 5.5 -92.5t12.5 -31.5t12.5 31.5z" />
    <glyph glyph-name="trademark" unicode="&#x2122;" horiz-adv-x="152" 
d="M34 689h-16v11h43v-11h-16v-199h-11v199zM69 700h13l15 -130l14 130h13v-210h-11v153l-16 -138h-1l-16 138v-153h-11v210z" />
    <glyph glyph-name="partialdiff" unicode="&#x2202;" horiz-adv-x="144" 
d="M107 488.5q15 -122.5 15 -243.5q0 -140 -11.5 -195t-38.5 -55t-38.5 55t-11.5 195t10 195t33 55q20 0 30 -31q-18 129 -46 236h20q23 -89 38 -211.5zM103 245q0 131 -10.5 181.5t-27.5 50.5q-24 0 -24 -232t31 -232t31 232z" />
    <glyph glyph-name="emptyset" unicode="&#x2205;" 
d="M135 300q0 -25 -17.5 -42.5t-42.5 -17.5q-16 0 -30 8l-9 -11h-19l16 20q-18 18 -18 43t17.5 42.5t42.5 17.5q16 0 30 -8l9 11h19l-16 -20q18 -18 18 -43zM43 270l52 69q-10 5 -20 5q-18 0 -31 -13t-13 -31t12 -30zM106 269q13 13 13 31t-12 30l-52 -69q10 -5 20 -5
q18 0 31 13z" />
    <glyph glyph-name="minus" unicode="&#x2212;" 
d="M20 309h110v-18h-110v18z" />
    <glyph glyph-name="approxequal" unicode="&#x2248;" 
d="M64.5 277.5q5.5 -3.5 9.5 -7.5t6 -5q13 -13 20 -13q9 0 17.5 10.5t12.5 21.5v-26q-15 -25 -31 -25q-8 0 -13.5 3.5t-9.5 7.5t-6 5q-13 13 -20 13q-17 0 -30 -32v26q15 25 31 25q8 0 13.5 -3.5zM64.5 357.5q5.5 -3.5 9.5 -7.5t6 -5q13 -13 20 -13q9 0 17.5 10.5t12.5 21.5
v-26q-15 -25 -31 -25q-8 0 -13.5 3.5t-9.5 7.5t-6 5q-13 13 -20 13q-17 0 -30 -32v26q15 25 31 25q8 0 13.5 -3.5z" />
    <glyph glyph-name="notequal" unicode="&#x2260;" 
d="M130 331h-38l-16 -62h54v-18h-58l-17 -66h-17l17 66h-35v18h39l16 62h-55v18h59l17 66h17l-17 -66h34v-18z" />
    <glyph glyph-name="lessequal" unicode="&#x2264;" horiz-adv-x="149" 
d="M115 422v-24l-89 -71l89 -72v-23l-110 89v12zM5 178v18h110v-18h-110z" />
    <glyph glyph-name="greaterequal" unicode="&#x2265;" 
d="M20 422l110 -89v-12l-110 -89v23l89 72l-89 71v24zM20 196h110v-18h-110v18z" />
    <glyph glyph-name="uni0430.ss02" horiz-adv-x="148" 
d="M120 490v-490h-19v60q-5 -34 -13.5 -49.5t-20.5 -15.5q-24 0 -34.5 55.5t-10.5 194.5t10.5 194.5t34.5 55.5q12 0 20.5 -15.5t13.5 -49.5v60h19zM91.5 72q9.5 59 9.5 173t-9.5 173t-22.5 59q-12 0 -20 -53t-8 -179q0 -125 8 -178.5t20 -53.5q13 0 22.5 59z" />
    <glyph glyph-name="uni04070407" horiz-adv-x="160" 
d="M30 700h20v-700h-20v700zM110 700h20v-700h-20v700zM-16.5 747.5q-5.5 5.5 -5.5 12.5q0 8 5.5 13t12.5 5q8 0 13 -5t5 -13q0 -7 -5 -12.5t-13 -5.5q-7 0 -12.5 5.5zM39.5 747.5q-5.5 5.5 -5.5 12.5q0 8 5.5 13t12.5 5q8 0 13 -5t5 -13q0 -7 -5 -12.5t-13 -5.5
q-7 0 -12.5 5.5zM95.5 747.5q-5.5 5.5 -5.5 12.5q0 8 5.5 13t12.5 5q8 0 13 -5t5 -13q0 -7 -5 -12.5t-13 -5.5q-7 0 -12.5 5.5zM151.5 747.5q-5.5 5.5 -5.5 12.5q0 8 5.5 13t12.5 5q8 0 13 -5t5 -13q0 -7 -5 -12.5t-13 -5.5q-7 0 -12.5 5.5z" />
    <glyph glyph-name="uni04560457" horiz-adv-x="152" 
d="M25.5 547.5q-5.5 5.5 -5.5 12.5q0 8 5.5 13t12.5 5q8 0 13 -5t5 -13q0 -7 -5 -12.5t-13 -5.5q-7 0 -12.5 5.5zM81.5 547.5q-5.5 5.5 -5.5 12.5q0 8 5.5 13t12.5 5q8 0 13 -5t5 -13q0 -7 -5 -12.5t-13 -5.5q-7 0 -12.5 5.5zM137.5 547.5q-5.5 5.5 -5.5 12.5q0 8 5.5 13
t12.5 5q8 0 13 -5t5 -13q0 -7 -5 -12.5t-13 -5.5q-7 0 -12.5 5.5zM28 490h20v-490h-20v490zM104 490h20v-490h-20v490z" />
    <glyph glyph-name="uni04570457" horiz-adv-x="152" 
d="M-21 547.5q-5 5.5 -5 12.5q0 8 5 13t13 5q7 0 12.5 -5t5.5 -13q0 -7 -5.5 -12.5t-12.5 -5.5q-8 0 -13 5.5zM35.5 547.5q-5.5 5.5 -5.5 12.5q0 8 5.5 13t12.5 5q8 0 13 -5t5 -13q0 -7 -5 -12.5t-13 -5.5q-7 0 -12.5 5.5zM91.5 547.5q-5.5 5.5 -5.5 12.5q0 8 5.5 13t12.5 5
q8 0 13 -5t5 -13q0 -7 -5 -12.5t-13 -5.5q-7 0 -12.5 5.5zM147.5 547.5q-5.5 5.5 -5.5 12.5q0 8 5.5 13t12.5 5q8 0 13 -5t5 -13q0 -7 -5 -12.5t-13 -5.5q-7 0 -12.5 5.5zM28 490h20v-490h-20v490zM104 490h20v-490h-20v490z" />
    <glyph glyph-name="zero.zero" 
d="M106 676.5q11 -28.5 16.5 -105t5.5 -221.5t-5.5 -221.5t-16.5 -105t-31 -28.5t-31 28.5t-16.5 105t-5.5 221.5t5.5 221.5t16.5 105t31 28.5t31 -28.5zM50 618l56 -452q3 71 3 184q0 337 -34 337q-17 0 -25 -69zM100 83l-56 451q-3 -70 -3 -184q0 -337 34 -337q17 0 25 70
z" />
    <glyph glyph-name="bullet.ss01" horiz-adv-x="925" 
d="M279.5 38.5q-83.5 49.5 -131.5 132.5t-48 181t49.5 181.5t133 131.5t181.5 48t181.5 -49.5t131.5 -133t48 -181.5t-49.5 -181t-133 -131t-181.5 -48t-181.5 49.5zM638 46q81 47 129 127.5t48 175.5q0 96 -47 177.5t-127.5 129t-176.5 47.5q-62 0 -115 -19
q11 -20 15.5 -39.5t8.5 -47.5q-9 19 -27.5 34t-40.5 15q-46 0 -92 -46q-49 -49 -76 -113t-27 -135q0 -96 47 -177t127.5 -128.5t176.5 -47.5t177 47zM539 583q-50 0 -95 -31q18 27 51 51t62 24q57 0 73 -94q-31 50 -91 50zM237 386q-16 20 -16 63q0 33 10.5 61.5t27.5 45
t35 16.5q20 0 32 -18q16 -22 16 -61q0 -16 -3 -34q-7 -39 -27 -65t-42 -26h-7q-16 2 -26 18zM305 400q18 24 25 61q3 17 3 32q0 38 -15 57q-8 11 -19 13q-1 0 -2.5 0.5t-2.5 -0.5q-19 0 -37 -25t-25 -61q-3 -16 -3 -31q0 -36 15 -56q11 -14 24 -14q19 0 37 24zM421 448
q34 30 68.5 47t60.5 17q25 0 35 -15q7 -10 7 -25q0 -29 -23 -67q4 12 4 26q0 23 -13.5 34t-36.5 11q-25 0 -54.5 -12t-58.5 -34q-21 -17 -38 -35q23 30 49 53zM279.5 446q-5.5 11 -4.5 27h4q4 0 7.5 3.5t3.5 8.5q0 9 -9 11q10 17 20 17q9 0 15 -10t6 -24q0 -18 -8 -31
t-19 -13q-10 0 -15.5 11zM325 94.5q-62 56.5 -100.5 129.5t-36.5 113q25 -11 63 -19t84 -8q184 0 376 130q-49 -170 -116.5 -287t-139.5 -116q-68 1 -130 57.5zM594 174l-24 1q-94 0 -144 -32.5t-66 -61.5q47 -33 97 -33q69 0 137 126z" />
    <glyph glyph-name="asterisk.ss01" horiz-adv-x="142" 
d="M32 596l30 41l-49 16l3 11l50 -16v52h12v-51l48 15l3 -11l-49 -16l30 -41l-10 -7l-29 40l-29 -40z" />
    <glyph glyph-name="caron.alt" 
d="M78 700h21l-14 -80h-12z" />
    <glyph glyph-name="brevecombcy" horiz-adv-x="0" 
d="M-115 560v25q16 -22 40 -22t40 22v-25q-16 -18 -40 -18q-22 0 -40 18z" />
    <glyph glyph-name="rozetka" horiz-adv-x="925" 
d="M279.5 38.5q-83.5 49.5 -131.5 132.5t-48 181t49.5 181.5t133 131.5t181.5 48t181.5 -49.5t131.5 -133t48 -181.5t-49.5 -181t-133 -131t-181.5 -48t-181.5 49.5zM638 46q81 47 129 127.5t48 175.5q0 96 -47 177.5t-127.5 129t-176.5 47.5q-62 0 -115 -19
q11 -20 15.5 -39.5t8.5 -47.5q-9 19 -27.5 34t-40.5 15q-46 0 -92 -46q-49 -49 -76 -113t-27 -135q0 -96 47 -177t127.5 -128.5t176.5 -47.5t177 47zM539 583q-50 0 -95 -31q18 27 51 51t62 24q57 0 73 -94q-31 50 -91 50zM237 386q-16 20 -16 63q0 33 10.5 61.5t27.5 45
t35 16.5q20 0 32 -18q16 -22 16 -61q0 -16 -3 -34q-7 -39 -27 -65t-42 -26h-7q-16 2 -26 18zM305 400q18 24 25 61q3 17 3 32q0 38 -15 57q-8 11 -19 13q-1 0 -2.5 0.5t-2.5 -0.5q-19 0 -37 -25t-25 -61q-3 -16 -3 -31q0 -36 15 -56q11 -14 24 -14q19 0 37 24zM421 448
q34 30 68.5 47t60.5 17q25 0 35 -15q7 -10 7 -25q0 -29 -23 -67q4 12 4 26q0 23 -13.5 34t-36.5 11q-25 0 -54.5 -12t-58.5 -34q-21 -17 -38 -35q23 30 49 53zM279.5 446q-5.5 11 -4.5 27h4q4 0 7.5 3.5t3.5 8.5q0 9 -9 11q10 17 20 17q9 0 15 -10t6 -24q0 -18 -8 -31
t-19 -13q-10 0 -15.5 11zM325 94.5q-62 56.5 -100.5 129.5t-36.5 113q25 -11 63 -19t84 -8q184 0 376 130q-49 -170 -116.5 -287t-139.5 -116q-68 1 -130 57.5zM594 174l-24 1q-94 0 -144 -32.5t-66 -61.5q47 -33 97 -33q69 0 137 126z" />
    <glyph glyph-name="rozetka.bg" horiz-adv-x="925" 
d="M279.5 38.5q-83.5 49.5 -131.5 132.5t-48 181t49.5 181.5t133 131.5t181.5 48t181.5 -49.5t131.5 -133t48 -181.5t-49.5 -181t-133 -131t-181.5 -48t-181.5 49.5z" />
    </font>
</defs>
</svg>
