<svg xmlns="http://www.w3.org/2000/svg">
<defs>
<font id="RozetkawebRegular" horiz-adv-x="600" >
  <font-face 
    font-family="RozetkawebRegular"
    font-weight="400"
    font-stretch="normal"
    units-per-em="1000"
    panose-1="0 0 5 0 0 0 0 0 0 0"
    ascent="800"
    descent="-200"
    x-height="490"
    cap-height="700"
    bbox="-466 -242 1054 905"
    underline-thickness="50"
    underline-position="-100"
    unicode-range="U+000D-FB02"
  />
<missing-glyph horiz-adv-x="925" 
d="M279.5 38.5q-83.5 49.5 -131.5 132.5t-48 181t49.5 181.5t133 131.5t181.5 48t181.5 -49.5t131.5 -133t48 -181.5t-49.5 -181t-133 -131t-181.5 -48t-181.5 49.5zM638 46q81 47 129 127.5t48 175.5q0 96 -47 177.5t-127.5 129t-176.5 47.5q-62 0 -115 -19
q11 -20 15.5 -39.5t8.5 -47.5q-9 19 -27.5 34t-40.5 15q-46 0 -92 -46q-49 -49 -76 -113t-27 -135q0 -96 47 -177t127.5 -128.5t176.5 -47.5t177 47zM539 583q-50 0 -95 -31q18 27 51 51t62 24q57 0 73 -94q-31 50 -91 50zM237 386q-16 20 -16 63q0 33 10.5 61.5t27.5 45
t35 16.5q20 0 32 -18q16 -22 16 -61q0 -16 -3 -34q-7 -39 -27 -65t-42 -26h-7q-16 2 -26 18zM305 400q18 24 25 61q3 17 3 32q0 38 -15 57q-8 11 -19 13q-1 0 -2.5 0.5t-2.5 -0.5q-19 0 -37 -25t-25 -61q-3 -16 -3 -31q0 -36 15 -56q11 -14 24 -14q19 0 37 24zM421 448
q34 30 68.5 47t60.5 17q25 0 35 -15q7 -10 7 -25q0 -29 -23 -67q4 12 4 26q0 23 -13.5 34t-36.5 11q-25 0 -54.5 -12t-58.5 -34q-21 -17 -38 -35q23 30 49 53zM279.5 446q-5.5 11 -4.5 27h4q4 0 7.5 3.5t3.5 8.5q0 9 -9 11q10 17 20 17q9 0 15 -10t6 -24q0 -18 -8 -31
t-19 -13q-10 0 -15.5 11zM325 94.5q-62 56.5 -100.5 129.5t-36.5 113q25 -11 63 -19t84 -8q184 0 376 130q-49 -170 -116.5 -287t-139.5 -116q-68 1 -130 57.5zM594 174l-24 1q-94 0 -144 -32.5t-66 -61.5q47 -33 97 -33q69 0 137 126z" />
    <glyph glyph-name="fi" unicode="fi" horiz-adv-x="587" 
d="M517 0h-90v412h-227v-412h-90v412h-90v78h90v60q0 78 46 126t124 48q48 0 92 -25v-80q-43 29 -93 29q-36 0 -57.5 -28t-21.5 -72v-58h317v-490zM429 617q-17 17 -17 43t17 43t43 17t43 -17t17 -43t-17 -43t-43 -17t-43 17z" />
    <glyph glyph-name="fl" unicode="fl" horiz-adv-x="587" 
d="M451.5 714.5q59.5 -9.5 65.5 -10.5v-704h-90v638q-58 10 -99 10q-67 0 -97.5 -26.5t-30.5 -73.5v-58h130v-78h-130v-412h-90v412h-90v78h90v60q0 82 56 128t177 46q49 0 108.5 -9.5z" />
    <glyph glyph-name="f_f" unicode="ff" horiz-adv-x="716" 
d="M539.5 619q-23.5 -27 -23.5 -71v-58h180v-78h-180v-412h-90v412h-226v-412h-90v412h-90v78h90v60q0 78 48.5 126t130.5 48q49 0 93 -22v-81q-43 27 -94 27q-41 0 -64.5 -28t-23.5 -72v-58h226v60q0 77 48.5 124.5t130.5 47.5q58 0 111 -28v-84q-52 36 -112 36
q-41 0 -64.5 -27z" />
    <glyph glyph-name="f_f_i" unicode="ffi" horiz-adv-x="904" 
d="M834 0h-90v412h-227v-412h-90v412h-227v-412h-90v412h-90v78h90v60q0 78 48.5 126t130.5 48q49 0 93 -22v-81q-43 27 -94 27q-41 0 -64.5 -28t-23.5 -72v-58h227v60q0 78 46 126t124 48q48 0 92 -25v-80q-44 29 -93 29q-36 0 -57.5 -28t-21.5 -72v-58h317v-490zM746 617
q-17 17 -17 43t17 43t43 17t43 -17t17 -43t-17 -43t-43 -17t-43 17z" />
    <glyph glyph-name="f_f_l" unicode="ffl" horiz-adv-x="904" 
d="M768.5 714.5q59.5 -9.5 65.5 -10.5v-704h-90v638q-58 10 -99 10q-67 0 -97.5 -26.5t-30.5 -73.5v-58h130v-78h-130v-412h-90v412h-227v-412h-90v412h-90v78h90v60q0 78 48.5 126t130.5 48q49 0 93 -22v-81q-43 27 -94 27q-41 0 -64.5 -28t-23.5 -72v-58h227v60
q0 82 56 128t177 46q49 0 108.5 -9.5z" />
    <glyph glyph-name=".notdef" horiz-adv-x="925" 
d="M279.5 38.5q-83.5 49.5 -131.5 132.5t-48 181t49.5 181.5t133 131.5t181.5 48t181.5 -49.5t131.5 -133t48 -181.5t-49.5 -181t-133 -131t-181.5 -48t-181.5 49.5zM638 46q81 47 129 127.5t48 175.5q0 96 -47 177.5t-127.5 129t-176.5 47.5q-62 0 -115 -19
q11 -20 15.5 -39.5t8.5 -47.5q-9 19 -27.5 34t-40.5 15q-46 0 -92 -46q-49 -49 -76 -113t-27 -135q0 -96 47 -177t127.5 -128.5t176.5 -47.5t177 47zM539 583q-50 0 -95 -31q18 27 51 51t62 24q57 0 73 -94q-31 50 -91 50zM237 386q-16 20 -16 63q0 33 10.5 61.5t27.5 45
t35 16.5q20 0 32 -18q16 -22 16 -61q0 -16 -3 -34q-7 -39 -27 -65t-42 -26h-7q-16 2 -26 18zM305 400q18 24 25 61q3 17 3 32q0 38 -15 57q-8 11 -19 13q-1 0 -2.5 0.5t-2.5 -0.5q-19 0 -37 -25t-25 -61q-3 -16 -3 -31q0 -36 15 -56q11 -14 24 -14q19 0 37 24zM421 448
q34 30 68.5 47t60.5 17q25 0 35 -15q7 -10 7 -25q0 -29 -23 -67q4 12 4 26q0 23 -13.5 34t-36.5 11q-25 0 -54.5 -12t-58.5 -34q-21 -17 -38 -35q23 30 49 53zM279.5 446q-5.5 11 -4.5 27h4q4 0 7.5 3.5t3.5 8.5q0 9 -9 11q10 17 20 17q9 0 15 -10t6 -24q0 -18 -8 -31
t-19 -13q-10 0 -15.5 11zM325 94.5q-62 56.5 -100.5 129.5t-36.5 113q25 -11 63 -19t84 -8q184 0 376 130q-49 -170 -116.5 -287t-139.5 -116q-68 1 -130 57.5zM594 174l-24 1q-94 0 -144 -32.5t-66 -61.5q47 -33 97 -33q69 0 137 126z" />
    <glyph glyph-name=".null" horiz-adv-x="0" 
 />
    <glyph glyph-name="nonmarkingreturn" unicode="&#xd;" horiz-adv-x="250" 
 />
    <glyph glyph-name="space" unicode=" " horiz-adv-x="250" 
 />
    <glyph glyph-name="exclam" unicode="!" horiz-adv-x="340" 
d="M114 700h98l-18 -490h-62zM119.5 14.5q-19.5 19.5 -19.5 50.5t19.5 50.5t50.5 19.5t50.5 -19.5t19.5 -50.5t-19.5 -50.5t-50.5 -19.5t-50.5 19.5z" />
    <glyph glyph-name="quotedbl" unicode="&#x22;" horiz-adv-x="410" 
d="M75 712h110l-35 -231h-41zM225 712h110l-35 -231h-41z" />
    <glyph glyph-name="numbersign" unicode="#" 
d="M556 420h-100l-19 -140h100l-10 -70h-100l-30 -210h-75l30 210h-142l-30 -210h-75l30 210h-100l10 70h100l19 140h-100l10 70h100l30 210h75l-30 -210h142l30 210h75l-30 -210h100zM362 280l19 140h-142l-19 -140h142z" />
    <glyph glyph-name="dollar" unicode="$" 
d="M504.5 41q-67.5 -50 -189.5 -53v-105h-60v107q-125 11 -205 75v110q84 -84 205 -101v249l-26 8q-89 28 -137 74t-48 119q0 80 57.5 129.5t156.5 57.5v94h60v-94q106 -7 168 -65.5t67 -155.5h-95q-4 57 -41.5 94t-98.5 46v-234l51 -16q103 -32 153 -79t50 -122
q0 -88 -67.5 -138zM167 460.5q29 -25.5 91 -45.5v216q-58 -5 -89 -32t-31 -73q0 -40 29 -65.5zM476 172q0 44 -30.5 71.5t-104.5 51.5l-26 8v-232q161 3 161 101z" />
    <glyph glyph-name="percent" unicode="%" horiz-adv-x="763" 
d="M80 370.5q-40 52.5 -40 144.5t40 144.5t110 52.5t110 -52.5t40 -144.5t-40 -144.5t-110 -52.5t-110 52.5zM578 700h73l-465 -700h-73zM247.5 418q20.5 35 20.5 97t-20.5 97t-57.5 35t-57.5 -35t-20.5 -97t20.5 -97t57.5 -35t57.5 35zM463 40.5q-40 52.5 -40 144.5
t40 144.5t110 52.5t110 -52.5t40 -144.5t-40 -144.5t-110 -52.5t-110 52.5zM630.5 88q20.5 35 20.5 97t-20.5 97t-57.5 35t-57.5 -35t-20.5 -97t20.5 -97t57.5 -35t57.5 35z" />
    <glyph glyph-name="ampersand" unicode="&#x26;" horiz-adv-x="676" 
d="M549 0l-52 71q-90 -83 -214 -83q-67 0 -123 26.5t-89.5 77t-33.5 119.5q0 91 57 146.5t146 69.5l-146 199v74h407v-84h-296l296 -398q36 79 36 185h86q0 -73 -18 -140.5t-52 -121.5l105 -141h-109zM450 140l-184 252q-64 -7 -101.5 -53t-37.5 -114t42.5 -110.5
t111.5 -42.5q104 0 169 68z" />
    <glyph glyph-name="quotesingle" unicode="'" horiz-adv-x="260" 
d="M75 712h110l-35 -231h-41z" />
    <glyph glyph-name="parenleft" unicode="(" horiz-adv-x="370" 
d="M129.5 -2q-39.5 114 -39.5 246q0 133 39.5 247.5t122.5 220.5h68q-72 -120 -106.5 -234.5t-34.5 -233.5q0 -118 34.5 -232t106.5 -234h-68q-83 106 -122.5 220z" />
    <glyph glyph-name="parenright" unicode=")" horiz-adv-x="370" 
d="M50 -222q72 120 106.5 234t34.5 232q0 119 -34.5 233.5t-106.5 234.5h68q83 -106 122.5 -220.5t39.5 -247.5q0 -132 -39.5 -246t-122.5 -220h-68z" />
    <glyph glyph-name="asterisk" unicode="*" horiz-adv-x="360" 
d="M119 628l-99 72h122l38 116l38 -116h122l-99 -72l38 -116l-99 72l-99 -72z" />
    <glyph glyph-name="plus" unicode="+" 
d="M510 330v-80h-170v-172h-80v172h-170v80h170v172h80v-172h170z" />
    <glyph glyph-name="comma" unicode="," horiz-adv-x="280" 
d="M100 131h113l-99 -231h-41z" />
    <glyph glyph-name="hyphen" unicode="-" horiz-adv-x="350" 
d="M60 330h230v-80h-230v80z" />
    <glyph glyph-name="period" unicode="." horiz-adv-x="280" 
d="M89.5 14.5q-19.5 19.5 -19.5 50.5t19.5 50.5t50.5 19.5t50.5 -19.5t19.5 -50.5t-19.5 -50.5t-50.5 -19.5t-50.5 19.5z" />
    <glyph glyph-name="slash" unicode="/" horiz-adv-x="390" 
d="M305 712h85l-305 -724h-85z" />
    <glyph glyph-name="zero" unicode="0" horiz-adv-x="640" 
d="M128.5 79.5q-68.5 91.5 -68.5 270.5q0 177 70 269.5t190 92.5q123 0 191.5 -91.5t68.5 -270.5q0 -177 -70 -269.5t-190 -92.5q-123 0 -191.5 91.5zM441 144.5q43 73.5 43 205.5t-43 205.5t-121 73.5t-121 -73.5t-43 -205.5t43 -205.5t121 -73.5t121 73.5z" />
    <glyph glyph-name="one" unicode="1" horiz-adv-x="368" 
d="M198 700h70v-700h-94v584l-144 -120v96z" />
    <glyph glyph-name="two" unicode="2" horiz-adv-x="547" 
d="M507 82v-82h-480v20l268 306q46 52 66 78t32 54.5t12 63.5q0 51 -36.5 80.5t-98.5 29.5q-69 0 -106 -37t-36 -105h-96q0 66 30.5 116.5t84.5 78t125 27.5q102 0 162.5 -50t60.5 -140q0 -52 -32.5 -108.5t-95.5 -127.5l-183 -204h323z" />
    <glyph glyph-name="three" unicode="3" horiz-adv-x="537" 
d="M400 390.5q45 -25.5 71 -71t26 -100.5q0 -65 -32.5 -118t-92 -83t-138.5 -30q-60 0 -115.5 19t-98.5 55v116q43 -49 102 -78t119 -29q71 0 115.5 40.5t44.5 106.5q0 64 -41.5 103.5t-109.5 39.5q-52 0 -106 -26v97l204 186h-306v82h427v-74l-248 -225q39 15 80 15
q54 0 99 -25.5z" />
    <glyph glyph-name="four" unicode="4" horiz-adv-x="580" 
d="M562 254v-74h-92v-180h-91v180h-376v16l387 504h80v-446h92zM140 254h239v312z" />
    <glyph glyph-name="five" unicode="5" horiz-adv-x="547" 
d="M403.5 422q48.5 -28 76 -78t27.5 -113q0 -70 -33 -125t-92 -86.5t-133 -31.5q-67 0 -122.5 20t-96.5 54v116q42 -49 101 -78t118 -29q73 0 117.5 43t44.5 114q0 68 -42.5 109.5t-112.5 41.5q-39 0 -75.5 -16.5t-57.5 -43.5l-67 41l37 340h369v-82h-293l-27 -234
q30 30 71 48t81 18q61 0 109.5 -28z" />
    <glyph glyph-name="six" unicode="6" horiz-adv-x="575" 
d="M431.5 427.5q50.5 -27.5 82 -79t31.5 -121.5q0 -69 -34 -123.5t-92 -85t-128 -30.5q-72 0 -129 29.5t-89.5 83t-32.5 123.5q0 73 31.5 147t107.5 167l132 162h111l-177 -205q-4 -5 -24 -28t-38.5 -50t-28.5 -51q32 44 77.5 66.5t94.5 22.5q55 0 105.5 -27.5zM405.5 111.5
q43.5 43.5 43.5 114.5q0 70 -43 113t-114 43q-74 0 -118.5 -43.5t-44.5 -114.5q0 -70 44.5 -113t117.5 -43q71 0 114.5 43.5z" />
    <glyph glyph-name="seven" unicode="7" horiz-adv-x="501" 
d="M486 700v-74l-274 -626h-93l271 618h-291v-126h-84v208h471z" />
    <glyph glyph-name="eight" unicode="8" 
d="M527 298q32 -45 32 -102q0 -61 -33 -108t-91.5 -73.5t-134.5 -26.5t-134.5 26.5t-91.5 73.5t-33 108q0 57 32 102t90 70q-43 25 -67.5 65.5t-24.5 90.5q0 54 29.5 97t81.5 67.5t118 24.5t118 -24.5t81.5 -67.5t29.5 -97q0 -50 -24.5 -90.5t-67.5 -65.5q58 -25 90 -70z
M201 606q-38 -33 -38 -86t38 -86.5t99 -33.5t99 33.5t38 86.5t-38 86t-99 33t-99 -33zM420.5 101.5q46.5 36.5 46.5 95.5t-46.5 95.5t-120.5 36.5t-120.5 -36.5t-46.5 -95.5t46.5 -95.5t120.5 -36.5t120.5 36.5z" />
    <glyph glyph-name="nine" unicode="9" horiz-adv-x="575" 
d="M409 682.5q57 -29.5 89.5 -83t32.5 -123.5q0 -73 -31.5 -147t-107.5 -167l-132 -162h-111l177 205q4 5 24 28t38.5 50t28.5 51q-32 -44 -77 -66.5t-95 -22.5q-55 0 -105.5 27.5t-82 79t-31.5 121.5q0 69 34 123.5t92 85t128 30.5q72 0 129 -29.5zM397.5 361.5
q44.5 43.5 44.5 114.5q0 70 -44.5 113t-117.5 43q-71 0 -114.5 -43.5t-43.5 -114.5q0 -70 43 -113t114 -43q74 0 118.5 43.5z" />
    <glyph glyph-name="colon" unicode=":" horiz-adv-x="280" 
d="M89.5 14.5q-19.5 19.5 -19.5 50.5t19.5 50.5t50.5 19.5t50.5 -19.5t19.5 -50.5t-19.5 -50.5t-50.5 -19.5t-50.5 19.5zM89.5 375.5q-19.5 19.5 -19.5 50.5t19.5 50.5t50.5 19.5t50.5 -19.5t19.5 -50.5t-19.5 -50.5t-50.5 -19.5t-50.5 19.5z" />
    <glyph glyph-name="semicolon" unicode=";" horiz-adv-x="280" 
d="M100 131h113l-99 -231h-41zM89.5 375.5q-19.5 19.5 -19.5 50.5t19.5 50.5t50.5 19.5t50.5 -19.5t19.5 -50.5t-19.5 -50.5t-50.5 -19.5t-50.5 19.5z" />
    <glyph glyph-name="less" unicode="&#x3c;" 
d="M510 502v-81l-322 -132l322 -132v-79l-420 172v80z" />
    <glyph glyph-name="equal" unicode="=" 
d="M90 240h420v-80h-420v80zM90 410h420v-80h-420v80z" />
    <glyph glyph-name="greater" unicode="&#x3e;" 
d="M90 502l420 -172v-80l-420 -172v79l322 132l-322 132v81z" />
    <glyph glyph-name="at" unicode="@" horiz-adv-x="804" 
d="M586.5 667.5q80.5 -44.5 126.5 -122.5t46 -174q0 -59 -13 -108t-39 -95h-211v64q-19 -34 -50 -53.5t-70 -19.5q-74 0 -118.5 52t-44.5 139t44.5 139t118.5 52q39 0 70 -19.5t50 -53.5v64h73v-310h99q29 64 29 149q0 79 -38 143.5t-104.5 101t-147.5 36.5
q-84 0 -153 -39.5t-108 -108.5t-39 -154t39 -154t108 -108.5t153 -39.5q89 0 162 43v-68q-76 -35 -162 -35q-102 0 -185 47t-130 130t-47 185t47 185t130 130t185 47q99 0 179.5 -44.5zM496 350q0 125 -99 125q-47 0 -75.5 -34t-28.5 -91t28.5 -91t75.5 -34q99 0 99 125z
" />
    <glyph glyph-name="A" unicode="A" horiz-adv-x="744" 
d="M616 0l-86 185h-323l-85 -185h-102l340 700h24l340 -700h-108zM244 265h249l-124 269z" />
    <glyph glyph-name="B" unicode="B" horiz-adv-x="630" 
d="M557 305.5q33 -42.5 33 -104.5q0 -91 -63.5 -146t-180.5 -55h-266v700h245q109 0 169 -51t60 -135q0 -43 -23 -81t-69 -62q62 -23 95 -65.5zM176 620v-221h152q58 0 93 30t35 80t-35 80.5t-93 30.5h-152zM456.5 114q35.5 33 35.5 87q0 55 -38 87.5t-107 32.5h-171v-240
h186q59 0 94.5 33z" />
    <glyph glyph-name="C" unicode="C" horiz-adv-x="695" 
d="M212.5 34q-80.5 46 -124 130.5t-43.5 196.5q0 100 43 180t118 125.5t169 45.5q124 0 196 -67t77 -186h-99q-5 81 -49.5 124t-125.5 43q-67 0 -119.5 -33.5t-82 -93.5t-29.5 -138q0 -87 31.5 -151.5t89.5 -99t136 -34.5q149 0 245 107v-112q-49 -41 -111 -62t-134 -21
q-107 0 -187.5 46z" />
    <glyph glyph-name="D" unicode="D" horiz-adv-x="745" 
d="M531 655.5q82 -44.5 125.5 -124t43.5 -181.5t-43.5 -181.5t-125.5 -124t-196 -44.5h-255v700h255q114 0 196 -44.5zM476.5 117q60.5 33 93 93t32.5 140t-32.5 140t-93 93t-141.5 33h-159v-532h159q81 0 141.5 33z" />
    <glyph glyph-name="E" unicode="E" horiz-adv-x="560" 
d="M520 616h-344v-214h294v-84h-294v-234h344v-84h-440v700h440v-84z" />
    <glyph glyph-name="F" unicode="F" horiz-adv-x="560" 
d="M520 615h-344v-213h284v-85h-284v-317h-96v700h440v-85z" />
    <glyph glyph-name="G" unicode="G" horiz-adv-x="731" 
d="M671 0h-22l-64 81q-88 -86 -209 -86q-94 0 -169.5 46.5t-118.5 128.5t-43 183q0 105 43 187t118.5 127t169.5 45q119 0 192.5 -59.5t83.5 -162.5h-96q-15 67 -59 101.5t-115 34.5t-125 -33.5t-84 -94.5t-30 -141q0 -84 32.5 -147.5t91.5 -98.5t137 -35q101 0 172 70v134
h-150v80h245v-360z" />
    <glyph glyph-name="H" unicode="H" horiz-adv-x="740" 
d="M564 700h96v-700h-96v317h-388v-317h-96v700h96v-297h388v297z" />
    <glyph glyph-name="I" unicode="I" horiz-adv-x="266" 
d="M85 700h96v-700h-96v700z" />
    <glyph glyph-name="J" unicode="J" horiz-adv-x="454" 
d="M20 25v104q29 -26 67 -40.5t77 -14.5q59 0 89 32.5t30 89.5v504h96v-499q0 -108 -57 -160.5t-158 -52.5q-82 0 -144 37z" />
    <glyph glyph-name="K" unicode="K" horiz-adv-x="684" 
d="M686 0h-144l-366 341v-341h-96v700h96v-321l345 321h125l-358 -333z" />
    <glyph glyph-name="L" unicode="L" horiz-adv-x="540" 
d="M176 84h344v-84h-440v700h96v-616z" />
    <glyph glyph-name="M" unicode="M" horiz-adv-x="880" 
d="M706 700h94v-700h-94v543l-260 -444h-12l-260 444v-543h-94v700h100l263 -446z" />
    <glyph glyph-name="N" unicode="N" horiz-adv-x="750" 
d="M576 700h94v-700h-33l-463 556v-556h-94v700h86l410 -493v493z" />
    <glyph glyph-name="O" unicode="O" horiz-adv-x="800" 
d="M217 34.5q-81 46.5 -126.5 129t-45.5 186.5t45.5 186.5t126.5 129t183 46.5t183 -46.5t126.5 -129t45.5 -186.5t-45.5 -186.5t-126.5 -129t-183 -46.5t-183 46.5zM534 108.5q58 34.5 90.5 97t32.5 144.5t-32.5 144.5t-90.5 97t-134 34.5t-134 -34.5t-90.5 -97
t-32.5 -144.5t32.5 -144.5t90.5 -97t134 -34.5t134 34.5z" />
    <glyph glyph-name="P" unicode="P" horiz-adv-x="584" 
d="M492 642q62 -58 62 -152t-63.5 -152t-180.5 -58h-134v-280h-96v700h235q115 0 177 -58zM420.5 395q35.5 36 35.5 95t-35.5 95t-94.5 36h-150v-262h150q59 0 94.5 36z" />
    <glyph glyph-name="Q" unicode="Q" horiz-adv-x="800" 
d="M717 179q-38 -77 -105 -126l98 -115h-111l-64 74q-61 -24 -135 -24q-102 0 -183 46.5t-126.5 129t-45.5 186.5t45.5 186.5t126.5 129t183 46.5t183 -46.5t126.5 -129t45.5 -186.5q0 -94 -38 -171zM175.5 205.5q32.5 -62.5 90.5 -97t134 -34.5q44 0 81 12l-106 124h111
l73 -85q46 37 72 95t26 130q0 82 -32.5 144.5t-90.5 97t-134 34.5t-134 -34.5t-90.5 -97t-32.5 -144.5t32.5 -144.5z" />
    <glyph glyph-name="R" unicode="R" horiz-adv-x="634" 
d="M252 303h-76v-303h-96v700h230q115 0 177 -54.5t62 -144.5q0 -76 -47 -127.5t-135 -65.5l267 -308h-126zM176 379h149q58 0 92 33t34 88t-34 87.5t-92 32.5h-149v-241z" />
    <glyph glyph-name="S" unicode="S" horiz-adv-x="598" 
d="M152 7.5q-64 19.5 -111 57.5v110q50 -50 115.5 -77t138.5 -27q172 0 172 101q0 44 -30.5 71.5t-104.5 51.5l-112 36q-89 28 -137 74t-48 119q0 86 66.5 137t179.5 51q117 0 187.5 -59.5t75.5 -162.5h-95q-5 65 -52.5 103.5t-122.5 38.5q-70 0 -107.5 -27.5t-37.5 -78.5
q0 -41 30.5 -67t95.5 -46l105 -33q103 -32 153 -79t50 -122q0 -90 -71.5 -140.5t-199.5 -50.5q-76 0 -140 19.5z" />
    <glyph glyph-name="T" unicode="T" horiz-adv-x="596" 
d="M576 700v-84h-230v-616h-96v616h-230v84h556z" />
    <glyph glyph-name="U" unicode="U" horiz-adv-x="730" 
d="M212 22.5q-66 34.5 -101.5 98t-35.5 149.5v430h96v-435q0 -55 24 -98.5t68 -68t102 -24.5t102 24.5t68 68t24 98.5v435h96v-430q0 -86 -35.5 -149.5t-101.5 -98t-153 -34.5t-153 34.5z" />
    <glyph glyph-name="V" unicode="V" horiz-adv-x="744" 
d="M620 700h104l-337 -700h-30l-337 700h111l243 -533z" />
    <glyph glyph-name="W" unicode="W" horiz-adv-x="1040" 
d="M913 700h97l-264 -700h-22l-206 569l-202 -569h-22l-264 700h102l174 -483l172 483h85l174 -483z" />
    <glyph glyph-name="X" unicode="X" horiz-adv-x="704" 
d="M293 353l-268 347h118l209 -280l209 280h116l-266 -342l274 -358h-117l-216 289l-215 -289h-117z" />
    <glyph glyph-name="Y" unicode="Y" horiz-adv-x="704" 
d="M684 700l-284 -407v-293h-96v293l-284 407h117l218 -322l217 322h112z" />
    <glyph glyph-name="Z" unicode="Z" horiz-adv-x="598" 
d="M563 700v-74l-397 -542h396v-84h-551v21l441 595h-396v84h507z" />
    <glyph glyph-name="bracketleft" unicode="[" horiz-adv-x="370" 
d="M320 646h-140v-802h140v-66h-220v934h220v-66z" />
    <glyph glyph-name="backslash" unicode="\" horiz-adv-x="390" 
d="M390 -12h-85l-305 724h85z" />
    <glyph glyph-name="bracketright" unicode="]" horiz-adv-x="370" 
d="M270 712v-934h-220v66h140v802h-140v66h220z" />
    <glyph glyph-name="asciicircum" unicode="^" 
d="M512 280h-79l-132 322l-132 -322h-81l172 420h80z" />
    <glyph glyph-name="underscore" unicode="_" horiz-adv-x="460" 
d="M20 -10h420v-80h-420v80z" />
    <glyph glyph-name="grave" unicode="`" 
d="M279 600l-134 112h120l89 -112h-75z" />
    <glyph glyph-name="a" unicode="a" horiz-adv-x="515" 
d="M399.5 453q50.5 -49 50.5 -137v-316h-90v95q-30 -50 -78.5 -78.5t-104.5 -28.5q-67 0 -107 35t-40 94q0 58 46 92t131 54l66 15q49 11 69.5 24.5t20.5 41.5q0 38 -31.5 59.5t-86.5 21.5q-47 0 -96.5 -23t-84.5 -58v94q40 31 91.5 47.5t103.5 16.5q90 0 140.5 -49z
M314.5 99q45.5 40 45.5 102v49q-34 -20 -79 -32l-43 -10q-61 -14 -88 -34.5t-27 -51.5q0 -29 20 -46t55 -17q71 0 116.5 40z" />
    <glyph glyph-name="b" unicode="b" horiz-adv-x="594" 
d="M450.5 470.5q49.5 -31.5 76.5 -90t27 -135.5t-27 -135.5t-76.5 -90t-115.5 -31.5q-56 0 -102 29t-73 81v-98h-90v712h90v-320q27 52 73 81t102 29q66 0 115.5 -31.5zM418 113.5q42 49.5 42 131.5t-42 131.5t-111 49.5q-71 0 -109 -46t-38 -135t38 -135t109 -46
q69 0 111 49.5z" />
    <glyph glyph-name="c" unicode="c" horiz-adv-x="534" 
d="M160 21.5q-58 33.5 -89 93.5t-31 138q0 71 31 128t85 89t122 32q100 0 152.5 -50.5t55.5 -134.5h-88q-13 109 -120 109q-41 0 -74 -22.5t-51.5 -62t-18.5 -88.5q0 -87 47.5 -136.5t124.5 -49.5q47 0 91.5 19.5t76.5 53.5v-95q-71 -57 -177 -57q-79 0 -137 33.5z" />
    <glyph glyph-name="d" unicode="d" horiz-adv-x="594" 
d="M524 712v-712h-90v98q-27 -52 -73 -81t-102 -29q-66 0 -115.5 31.5t-76.5 90t-27 135.5t27 135.5t76.5 90t115.5 31.5q56 0 102 -29t73 -81v320h90zM396 110q38 46 38 135t-38 135t-109 46q-69 0 -111 -49.5t-42 -131.5t42 -131.5t111 -49.5q71 0 109 46z" />
    <glyph glyph-name="e" unicode="e" horiz-adv-x="536" 
d="M493 219h-361q8 -72 53 -113.5t114 -41.5q47 0 92.5 19t78.5 52v-89q-72 -58 -177 -58q-78 0 -135 32.5t-87.5 92.5t-30.5 140q0 71 31.5 127.5t85 89t117.5 32.5q107 0 164.5 -64.5t57.5 -169.5q0 -23 -3 -49zM178.5 391q-39.5 -39 -46.5 -101h272q-3 74 -40 107t-90 33
q-56 0 -95.5 -39z" />
    <glyph glyph-name="f" unicode="f" horiz-adv-x="400" 
d="M223.5 619q-23.5 -27 -23.5 -71v-58h180v-78h-180v-412h-90v412h-90v78h90v60q0 77 48.5 124.5t130.5 47.5q58 0 111 -28v-84q-52 36 -112 36q-41 0 -64.5 -27z" />
    <glyph glyph-name="g" unicode="g" horiz-adv-x="594" 
d="M524 490l-1 -496q0 -109 -62 -169.5t-170 -60.5q-46 0 -95 13.5t-86 37.5v104q33 -34 82 -56.5t97 -22.5q70 0 107.5 30.5t37.5 103.5v124q-27 -52 -73 -81t-102 -29q-66 0 -115.5 31.5t-76.5 90t-27 135.5t27 135.5t76.5 90t115.5 31.5q56 0 102 -29t73 -81v98h90z
M396 110q38 46 38 135t-38 135t-109 46q-69 0 -111 -49.5t-42 -131.5t42 -131.5t111 -49.5q71 0 109 46z" />
    <glyph glyph-name="h" unicode="h" horiz-adv-x="565" 
d="M452.5 451.5q47.5 -50.5 47.5 -135.5v-316h-90v304q0 57 -31.5 89.5t-87.5 32.5q-58 0 -94.5 -34t-36.5 -89v-303h-90v712h90v-303q27 45 70 69t95 24q80 0 127.5 -50.5z" />
    <glyph glyph-name="i" unicode="i" horiz-adv-x="230" 
d="M72 617q-17 17 -17 43t17 43t43 17t43 -17t17 -43t-17 -43t-43 -17t-43 17zM70 490h90v-490h-90v490z" />
    <glyph glyph-name="j" unicode="j" horiz-adv-x="230" 
d="M72 617q-17 17 -17 43t17 43t43 17t43 -17t17 -43t-17 -43t-43 -17t-43 17zM70 490h90v-712h-90v712z" />
    <glyph glyph-name="k" unicode="k" horiz-adv-x="537" 
d="M537 0h-130l-247 232v-232h-90v712h90v-443l224 221h113l-237 -231z" />
    <glyph glyph-name="l" unicode="l" horiz-adv-x="230" 
d="M70 712h90v-712h-90v712z" />
    <glyph glyph-name="m" unicode="m" horiz-adv-x="885" 
d="M773.5 451.5q46.5 -50.5 46.5 -135.5v-316h-90v304q0 57 -30.5 89.5t-83.5 32.5q-56 0 -91 -34t-35 -89v-303h-90v304q0 57 -30.5 89.5t-83.5 32.5q-55 0 -90.5 -34.5t-35.5 -88.5v-303h-90v490h90v-80q27 44 68 68t92 24q55 0 95 -26t59 -74q28 48 74 74t100 26
q79 0 125.5 -50.5z" />
    <glyph glyph-name="n" unicode="n" horiz-adv-x="565" 
d="M452.5 451.5q47.5 -50.5 47.5 -135.5v-316h-90v304q0 57 -31.5 89.5t-87.5 32.5q-58 0 -94.5 -34t-36.5 -89v-303h-90v490h90v-81q27 45 70 69t95 24q80 0 127.5 -50.5z" />
    <glyph glyph-name="o" unicode="o" horiz-adv-x="594" 
d="M164.5 21q-58.5 33 -91.5 91.5t-33 132.5t33 132.5t91.5 91.5t132.5 33t132.5 -33t91.5 -91.5t33 -132.5t-33 -132.5t-91.5 -91.5t-132.5 -33t-132.5 33zM415.5 113.5q44.5 49.5 44.5 131.5t-44.5 131.5t-118.5 49.5t-118.5 -49.5t-44.5 -131.5t44.5 -131.5t118.5 -49.5
t118.5 49.5z" />
    <glyph glyph-name="p" unicode="p" horiz-adv-x="594" 
d="M450.5 470.5q49.5 -31.5 76.5 -90t27 -135.5t-27 -135.5t-76.5 -90t-115.5 -31.5q-56 0 -102 29t-73 81v-320h-90v712h90v-98q27 52 73 81t102 29q66 0 115.5 -31.5zM418 113.5q42 49.5 42 131.5t-42 131.5t-111 49.5q-71 0 -109 -46t-38 -135t38 -135t109 -46
q69 0 111 49.5z" />
    <glyph glyph-name="q" unicode="q" horiz-adv-x="594" 
d="M524 490v-712h-90v320q-27 -52 -73 -81t-102 -29q-66 0 -115.5 31.5t-76.5 90t-27 135.5t27 135.5t76.5 90t115.5 31.5q56 0 102 -29t73 -81v98h90zM396 110q38 46 38 135t-38 135t-109 46q-69 0 -111 -49.5t-42 -131.5t42 -131.5t111 -49.5q71 0 109 46z" />
    <glyph glyph-name="r" unicode="r" horiz-adv-x="406" 
d="M386 482v-97q-17 14 -43.5 22.5t-51.5 8.5q-58 0 -94.5 -34.5t-36.5 -89.5v-292h-90v490h90v-89q24 49 62.5 75t85.5 26q46 0 78 -20z" />
    <glyph glyph-name="s" unicode="s" horiz-adv-x="490" 
d="M136 2q-45 14 -80 41v101q35 -39 83.5 -59.5t105.5 -20.5q45 0 71 16t26 44q0 30 -22 46.5t-74 32.5l-61 19q-74 23 -104.5 56t-30.5 87q0 40 24 71t65 48.5t90 17.5q86 0 137 -44t58 -118h-86q-10 41 -39.5 63.5t-71.5 22.5q-41 0 -66 -18t-25 -46q0 -27 22.5 -42.5
t76.5 -32.5l56 -17q44 -14 73 -28t49 -41.5t20 -70.5q0 -67 -51.5 -104.5t-150.5 -37.5q-50 0 -95 14z" />
    <glyph glyph-name="t" unicode="t" horiz-adv-x="390" 
d="M257 -12q-67 0 -107 40t-40 104v280h-100v20l170 155h20v-97h170v-78h-170v-270q0 -33 18.5 -54t49.5 -21q54 0 102 31v-84q-55 -26 -113 -26z" />
    <glyph glyph-name="u" unicode="u" horiz-adv-x="565" 
d="M495 490v-490h-90v81q-27 -45 -70 -69t-95 -24q-80 0 -127.5 50.5t-47.5 135.5v316h90v-304q0 -57 31.5 -89.5t87.5 -32.5q58 0 94.5 34t36.5 89v303h90z" />
    <glyph glyph-name="v" unicode="v" horiz-adv-x="539" 
d="M426 490h98l-244 -490h-20l-245 490h103l153 -331z" />
    <glyph glyph-name="w" unicode="w" horiz-adv-x="757" 
d="M644 490h88l-187 -490h-20l-146 381l-145 -381h-20l-189 490h92l113 -306l114 306h71l117 -305z" />
    <glyph glyph-name="x" unicode="x" horiz-adv-x="511" 
d="M395 0l-140 189l-140 -189h-107l190 250l-183 240h110l131 -179l135 179h104l-183 -240l193 -250h-110z" />
    <glyph glyph-name="y" unicode="y" horiz-adv-x="539" 
d="M427 490h97l-321 -712h-92l125 268l-221 444h105l163 -345z" />
    <glyph glyph-name="z" unicode="z" horiz-adv-x="450" 
d="M159 78h257v-78h-400v15l292 397h-274v78h377v-70z" />
    <glyph glyph-name="braceleft" unicode="{" horiz-adv-x="370" 
d="M145 -78l-1 182q0 37 -5 57.5t-23 33t-56 15.5v80q32 2 49 10t26 30t9 66v172q0 70 34 107t99 37h42v-66h-29q-32 0 -49 -18t-17 -53v-187q0 -60 -30.5 -97.5t-84.5 -40.5q51 -3 83 -41.5t32 -96.5l1 -197q0 -34 18.5 -52.5t47.5 -18.5h29v-66h-42q-131 0 -133 144z" />
    <glyph glyph-name="bar" unicode="|" horiz-adv-x="281" 
d="M100 712h80l1 -934h-80z" />
    <glyph glyph-name="braceright" unicode="}" horiz-adv-x="370" 
d="M50 -222v66h29q29 0 47.5 18.5t18.5 52.5l1 197q0 58 32 96.5t83 41.5q-54 3 -84.5 40.5t-30.5 97.5v187q0 35 -17 53t-49 18h-29v66h42q65 0 99 -37t34 -107v-172q0 -44 9 -66t26 -30t49 -10v-80q-38 -3 -56 -15.5t-23 -33t-5 -57.5l-1 -182q-2 -144 -133 -144h-42z" />
    <glyph glyph-name="asciitilde" unicode="~" 
d="M203 355q31 0 55.5 -7.5t54.5 -22.5q26 -12 44 -18t39 -6q27 0 62 17t52 44v-92q-47 -47 -113 -47q-31 0 -55.5 7.5t-54.5 22.5q-26 12 -44 18t-39 6q-27 0 -62 -17t-52 -44v92q47 47 113 47z" />
    <glyph glyph-name="uni00A0" unicode="&#xa0;" horiz-adv-x="250" 
 />
    <glyph glyph-name="cent" unicode="&#xa2;" 
d="M426.5 197.5q44.5 19.5 77.5 54.5v-95q-69 -56 -170 -57v-112h-60v116q-96 16 -150 86t-54 175q0 65 26 118.5t72.5 87t105.5 41.5v100h60v-99q87 -6 133 -56t49 -128h-88q-11 94 -94 107v-357q48 -1 92.5 18.5zM193 252q29 -45 81 -63v345q-50 -13 -80 -59t-30 -110
q0 -68 29 -113z" />
    <glyph glyph-name="sterling" unicode="&#xa3;" 
d="M545 84v-84h-450v71q54 22 83 66.5t29 105.5q0 21 -7 41t-20 46h-120v60h92q-26 65 -26 135q0 53 25.5 95.5t72 67t109.5 24.5q95 0 145 -49t52 -134h-84q-16 110 -116 110q-52 0 -84.5 -30.5t-32.5 -77.5q0 -45 8 -74.5t24 -66.5h175v-60h-151q13 -42 12 -93
q-1 -35 -26.5 -78.5t-60.5 -74.5h351z" />
    <glyph glyph-name="currency" unicode="&#xa4;" 
d="M500 205l80 -80l-56 -56l-80 79q-66 -48 -147 -48q-74 0 -141 48l-80 -79l-56 56l78 78q-51 69 -51 147q0 41 13 79t37 69l-77 77l56 56l78 -77q63 46 143 46q82 0 148 -47l79 78l56 -56l-79 -79q46 -65 46 -146t-47 -145zM379 205.5q38 22.5 60 61t22 83.5t-22 83.5
t-60 61t-82 22.5t-82 -22.5t-60 -61t-22 -83.5t22 -83.5t60 -61t82 -22.5t82 22.5z" />
    <glyph glyph-name="yen" unicode="&#xa5;" 
d="M600 700l-193 -306h123v-60h-161l-22 -35v-39h183v-60h-183v-200h-94v200h-183v60h183v39l-22 35h-161v60h123l-193 306h106l197 -320l196 320h101z" />
    <glyph glyph-name="brokenbar" unicode="&#xa6;" horiz-adv-x="281" 
d="M100 712h80v-402h-80v402zM181 -222h-80l-1 402h80z" />
    <glyph glyph-name="section" unicode="&#xa7;" horiz-adv-x="543" 
d="M427.5 208.5q25.5 -29.5 25.5 -78.5q0 -67 -50.5 -104.5t-147.5 -37.5q-49 0 -92.5 13.5t-76.5 40.5v104q69 -80 183 -80q44 0 68.5 15t24.5 43q0 30 -20 46.5t-66 31.5l-61 20q-40 13 -66.5 26t-47 38.5t-20.5 64.5q1 31 28.5 57.5t78.5 34.5q-53 21 -75.5 52t-22.5 80
q0 40 23.5 71t63.5 48.5t87 17.5q84 0 133.5 -44t56.5 -118h-86q-9 41 -37.5 63.5t-68.5 22.5q-38 0 -62 -18t-24 -46q0 -26 19 -42t70 -32l56 -18q60 -19 98 -47t38 -82q0 -31 -26 -58t-72 -38q43 -17 68.5 -46.5zM189.5 320q23.5 -16 75.5 -33l36 -11q33 4 52 19t19 39
q0 30 -21.5 46t-74.5 33l-37 12q-33 -4 -53 -21t-20 -42q0 -26 23.5 -42z" />
    <glyph glyph-name="dieresis" unicode="&#xa8;" 
d="M172 617q-17 17 -17 43t17 43t43 17t43 -17t17 -43t-17 -43t-43 -17t-43 17zM342 617q-17 17 -17 43t17 43t43 17t43 -17t17 -43t-17 -43t-43 -17t-43 17z" />
    <glyph glyph-name="copyright" unicode="&#xa9;" horiz-adv-x="814" 
d="M222 35q-83 47 -130 130t-47 185t47 185t130 130t185 47t185 -47t130 -130t47 -185t-47 -185t-130 -130t-185 -47t-185 47zM560 87.5q69 39.5 108 108.5t39 154t-39 154t-108 108.5t-153 39.5t-153 -39.5t-108 -108.5t-39 -154t39 -154t108 -108.5t153 -39.5t153 39.5z
M417 159q-89 0 -140 54.5t-51 142.5q0 53 23 95t63.5 66t90.5 24q74 0 112.5 -37t41.5 -100l-75 -1q-4 37 -23.5 54t-55.5 17q-43 0 -70 -33t-27 -85q0 -58 30.5 -92.5t84.5 -34.5q35 0 69 14.5t56 40.5l3 -81q-52 -44 -132 -44z" />
    <glyph glyph-name="guillemotleft" unicode="&#xab;" horiz-adv-x="492" 
d="M135 291l147 -176h-97l-145 175l145 175h95zM305 291l147 -176h-97l-145 175l145 175h95z" />
    <glyph glyph-name="logicalnot" unicode="&#xac;" 
d="M510 330v-252h-80v172h-340v80h420z" />
    <glyph glyph-name="uni00AD" unicode="&#xad;" horiz-adv-x="350" 
d="M60 330h230v-80h-230v80z" />
    <glyph glyph-name="registered" unicode="&#xae;" horiz-adv-x="474" 
d="M338 686.5q45 -25.5 70.5 -70.5t25.5 -101t-25.5 -101t-70.5 -70.5t-101 -25.5t-101 25.5t-70.5 70.5t-25.5 101t25.5 101t70.5 70.5t101 25.5t101 -25.5zM313.5 383q34.5 20 54 54.5t19.5 77.5t-19.5 77.5t-54 54.5t-76.5 20t-76.5 -20t-54 -54.5t-19.5 -77.5
t19.5 -77.5t54 -54.5t76.5 -20t76.5 20zM301.5 522.5q-10.5 -14.5 -29.5 -21.5l63 -88h-58l-55 82h-11v-82h-48v204h75q34 0 54 -16.5t20 -44.5q0 -19 -10.5 -33.5zM211 534h25q27 0 27 19q0 20 -27 20h-25v-39z" />
    <glyph glyph-name="macron" unicode="&#xaf;" 
d="M443 637h-286v63h286v-63z" />
    <glyph glyph-name="degree" unicode="&#xb0;" horiz-adv-x="376" 
d="M114 425.5q-34 19.5 -54 53.5t-20 74t20 74t54 53.5t74 19.5t74 -19.5t54 -53.5t20 -74t-20 -74t-54 -53.5t-74 -19.5t-74 19.5zM249.5 489.5q24.5 25.5 24.5 63.5t-24.5 63.5t-61.5 25.5t-61.5 -25.5t-24.5 -63.5t24.5 -63.5t61.5 -25.5t61.5 25.5z" />
    <glyph glyph-name="plusminus" unicode="&#xb1;" 
d="M340 360h170v-80h-170v-142h-80v142h-170v80h170v142h80v-142zM90 0v80h420v-80h-420z" />
    <glyph glyph-name="acute" unicode="&#xb4;" 
d="M351 712h120l-134 -112h-75z" />
    <glyph glyph-name="paragraph" unicode="&#xb6;" 
d="M491 636v-776h-70v776h-112v-776h-70v450q-89 0 -141.5 54.5t-52.5 144.5q0 87 55.5 139t148.5 52h301v-64h-59z" />
    <glyph glyph-name="periodcentered" unicode="&#xb7;" horiz-adv-x="280" 
d="M89.5 239.5q-19.5 19.5 -19.5 50.5t19.5 50.5t50.5 19.5t50.5 -19.5t19.5 -50.5t-19.5 -50.5t-50.5 -19.5t-50.5 19.5z" />
    <glyph glyph-name="cedilla" unicode="&#xb8;" 
d="M194 -195v58q18 -11 42 -18.5t46 -7.5q19 0 33.5 6t14.5 20t-12.5 22t-31.5 8q-25 0 -38 -9l-30 17l66 109h53l-47 -77q15 3 30 3q36 0 56 -18.5t20 -49.5q0 -37 -33 -59.5t-75 -22.5q-54 0 -94 19z" />
    <glyph glyph-name="guillemotright" unicode="&#xbb;" horiz-adv-x="492" 
d="M137 465l145 -175l-145 -175h-95l145 174l-147 176h97zM307 465l145 -175l-145 -175h-95l145 174l-147 176h97z" />
    <glyph glyph-name="multiply" unicode="&#xd7;" 
d="M120 166l124 124l-124 124l57 56l124 -123l123 123l57 -56l-124 -124l124 -124l-57 -56l-123 123l-124 -124z" />
    <glyph glyph-name="divide" unicode="&#xf7;" 
d="M90 330h420v-80h-420v80zM257 94q-17 17 -17 43t17 43t43 17t43 -17t17 -43t-17 -43t-43 -17t-43 17zM257 400q-17 17 -17 43t17 43t43 17t43 -17t17 -43t-17 -43t-43 -17t-43 17z" />
    <glyph glyph-name="circumflex" unicode="&#x2c6;" 
d="M494 599h-119l-75 49l-75 -49h-119l194 130z" />
    <glyph glyph-name="caron" unicode="&#x2c7;" 
d="M375 712h119l-194 -130l-194 130h119l75 -49z" />
    <glyph glyph-name="breve" unicode="&#x2d8;" 
d="M134 643v92q31 -33 75 -51.5t91 -18.5t91 18.5t75 51.5v-92q-66 -54 -166 -54t-166 54z" />
    <glyph glyph-name="dotaccent" unicode="&#x2d9;" 
d="M257 617q-17 17 -17 43t17 43t43 17t43 -17t17 -43t-17 -43t-43 -17t-43 17z" />
    <glyph glyph-name="ring" unicode="&#x2da;" 
d="M217 612.5q-33 32.5 -33 81.5q0 50 33 83t83 33t83 -33t33 -83q0 -49 -33 -81.5t-83 -32.5t-83 32.5zM340.5 655q15.5 15 15.5 39q0 26 -15 41t-41 15q-25 0 -40.5 -15t-15.5 -41q0 -24 15.5 -39t40.5 -15t40.5 15z" />
    <glyph glyph-name="ogonek" unicode="&#x2db;" 
d="M253 -222q-45 0 -74 26t-29 67q0 44 44 85.5t106 57.5l27 -14q-25 -3 -50 -20.5t-41 -41.5t-16 -46q0 -21 13 -34.5t34 -13.5q30 0 60 19v-68q-34 -17 -74 -17z" />
    <glyph glyph-name="tilde" unicode="&#x2dc;" 
d="M222 712q24 0 42.5 -6t43.5 -17q20 -9 34.5 -14t30.5 -5q21 0 48.5 13t40.5 35v-81q-36 -36 -88 -36q-24 0 -42.5 6t-43.5 17q-20 9 -34.5 14t-30.5 5q-21 0 -48.5 -13t-40.5 -35v81q36 36 88 36z" />
    <glyph glyph-name="hungarumlaut" unicode="&#x2dd;" 
d="M251 712h120l-134 -112h-75zM421 712h120l-134 -112h-75z" />
    <glyph glyph-name="uni0312" unicode="&#x312;" horiz-adv-x="0" 
d="M-250 618h-95l84 161h34z" />
    <glyph glyph-name="uni0326" unicode="&#x326;" horiz-adv-x="0" 
d="M-356 -81h95l-84 -161h-34z" />
    <glyph glyph-name="uni0401" unicode="&#x401;" horiz-adv-x="560" 
d="M520 616h-344v-214h294v-84h-294v-234h344v-84h-440v700h440v-84zM170 787q-17 17 -17 43t17 43t43 17t43 -17t17 -43t-17 -43t-43 -17t-43 17zM340 787q-17 17 -17 43t17 43t43 17t43 -17t17 -43t-17 -43t-43 -17t-43 17z" />
    <glyph glyph-name="uni0404" unicode="&#x404;" horiz-adv-x="694" 
d="M645 183v-112q-49 -41 -111 -62t-134 -21q-107 0 -187.5 46t-124 130.5t-43.5 196.5q0 100 42.5 180t117 125.5t167.5 45.5q124 0 196 -64.5t79 -179.5h-98q-8 78 -52.5 119t-124.5 41q-92 0 -154 -62t-73 -164h305v-84h-305q11 -113 79 -177.5t176 -64.5q149 0 245 107z
" />
    <glyph glyph-name="uni0406" unicode="&#x406;" horiz-adv-x="266" 
d="M85 700h96v-700h-96v700z" />
    <glyph glyph-name="uni0407" unicode="&#x407;" horiz-adv-x="266" 
d="M85 700h96v-700h-96v700zM5 787q-17 17 -17 43t17 43t43 17t43 -17t17 -43t-17 -43t-43 -17t-43 17zM175 787q-17 17 -17 43t17 43t43 17t43 -17t17 -43t-17 -43t-43 -17t-43 17z" />
    <glyph glyph-name="uni040E" unicode="&#x40e;" horiz-adv-x="704" 
d="M580 700h104l-363 -700h-108l94 179l-287 521h111l233 -425zM199 813v92q31 -33 75 -51.5t91 -18.5t91 18.5t75 51.5v-92q-66 -54 -166 -54t-166 54z" />
    <glyph glyph-name="uni0410" unicode="&#x410;" horiz-adv-x="744" 
d="M616 0l-86 185h-323l-85 -185h-102l340 700h24l340 -700h-108zM244 265h249l-124 269z" />
    <glyph glyph-name="uni0411" unicode="&#x411;" horiz-adv-x="612" 
d="M510.5 353.5q61.5 -56.5 61.5 -148.5t-63 -148.5t-179 -56.5h-250v700h440v-84h-344v-206h159q114 0 175.5 -56.5zM439 113.5q35 34.5 35 91.5t-35 91.5t-93 34.5h-170v-252h170q58 0 93 34.5z" />
    <glyph glyph-name="uni0412" unicode="&#x412;" horiz-adv-x="630" 
d="M557 305.5q33 -42.5 33 -104.5q0 -91 -63.5 -146t-180.5 -55h-266v700h245q109 0 169 -51t60 -135q0 -43 -23 -81t-69 -62q62 -23 95 -65.5zM176 620v-221h152q58 0 93 30t35 80t-35 80.5t-93 30.5h-152zM456.5 114q35.5 33 35.5 87q0 55 -38 87.5t-107 32.5h-171v-240
h186q59 0 94.5 33z" />
    <glyph glyph-name="uni0413" unicode="&#x413;" horiz-adv-x="530" 
d="M510 700v-84h-334v-616h-96v700h430z" />
    <glyph glyph-name="uni0414" unicode="&#x414;" horiz-adv-x="720" 
d="M695 86v-226h-92v140h-501v-140h-92v226h66q29 44 40.5 140.5t11.5 270.5v203h487v-614h80zM519 86v528h-296v-133q0 -146 -13 -242.5t-41 -152.5h350z" />
    <glyph glyph-name="uni0415" unicode="&#x415;" horiz-adv-x="560" 
d="M520 616h-344v-214h294v-84h-294v-234h344v-84h-440v700h440v-84z" />
    <glyph glyph-name="uni0416" unicode="&#x416;" horiz-adv-x="1054" 
d="M1054 0h-136l-344 340v-340h-96v338l-342 -338h-136l371 363l-341 337h126l322 -318v318h96v-320l327 320h123l-341 -334z" />
    <glyph glyph-name="uni0417" unicode="&#x417;" 
d="M528.5 303.5q31.5 -45.5 31.5 -95.5q0 -105 -70 -162.5t-197 -57.5q-149 0 -248 77v111q49 -50 113.5 -77t135.5 -27q81 0 125.5 34.5t44.5 98.5q0 55 -41.5 85t-117.5 30h-88v79h88q70 0 99 33t29 82q0 52 -38 84.5t-101 32.5q-62 0 -103 -33.5t-53 -94.5h-97
q15 96 83.5 152.5t169.5 56.5q71 0 124 -24t82 -68t29 -103q0 -50 -25 -88t-70 -58q63 -22 94.5 -67.5z" />
    <glyph glyph-name="uni0418" unicode="&#x418;" horiz-adv-x="750" 
d="M584 700h86v-700h-95v558l-461 -558h-34v700h95v-494z" />
    <glyph glyph-name="uni0419" unicode="&#x419;" horiz-adv-x="750" 
d="M584 700h86v-700h-95v558l-461 -558h-34v700h95v-494zM209 813v92q31 -33 75 -51.5t91 -18.5t91 18.5t75 51.5v-92q-66 -54 -166 -54t-166 54z" />
    <glyph glyph-name="uni041A" unicode="&#x41a;" horiz-adv-x="684" 
d="M686 0h-144l-366 341v-341h-96v700h96v-321l345 321h125l-358 -333z" />
    <glyph glyph-name="uni041B" unicode="&#x41b;" horiz-adv-x="735" 
d="M655 0h-96v614h-300v-137q0 -176 -16.5 -280t-56.5 -153.5t-112 -49.5q-37 0 -59 10v89q32 -10 51 -10q40 0 61 43.5t29 134t8 250.5v189h491v-700z" />
    <glyph glyph-name="uni041C" unicode="&#x41c;" horiz-adv-x="880" 
d="M706 700h94v-700h-94v543l-260 -444h-12l-260 444v-543h-94v700h100l263 -446z" />
    <glyph glyph-name="uni041D" unicode="&#x41d;" horiz-adv-x="740" 
d="M564 700h96v-700h-96v317h-388v-317h-96v700h96v-297h388v297z" />
    <glyph glyph-name="uni041E" unicode="&#x41e;" horiz-adv-x="800" 
d="M217 34.5q-81 46.5 -126.5 129t-45.5 186.5t45.5 186.5t126.5 129t183 46.5t183 -46.5t126.5 -129t45.5 -186.5t-45.5 -186.5t-126.5 -129t-183 -46.5t-183 46.5zM534 108.5q58 34.5 90.5 97t32.5 144.5t-32.5 144.5t-90.5 97t-134 34.5t-134 -34.5t-90.5 -97
t-32.5 -144.5t32.5 -144.5t90.5 -97t134 -34.5t134 34.5z" />
    <glyph glyph-name="uni041F" unicode="&#x41f;" horiz-adv-x="730" 
d="M650 700v-700h-96v614h-378v-614h-96v700h570z" />
    <glyph glyph-name="uni0420" unicode="&#x420;" horiz-adv-x="584" 
d="M492 642q62 -58 62 -152t-63.5 -152t-180.5 -58h-134v-280h-96v700h235q115 0 177 -58zM420.5 395q35.5 36 35.5 95t-35.5 95t-94.5 36h-150v-262h150q59 0 94.5 36z" />
    <glyph glyph-name="uni0421" unicode="&#x421;" horiz-adv-x="695" 
d="M212.5 34q-80.5 46 -124 130.5t-43.5 196.5q0 100 43 180t118 125.5t169 45.5q124 0 196 -67t77 -186h-99q-5 81 -49.5 124t-125.5 43q-67 0 -119.5 -33.5t-82 -93.5t-29.5 -138q0 -87 31.5 -151.5t89.5 -99t136 -34.5q149 0 245 107v-112q-49 -41 -111 -62t-134 -21
q-107 0 -187.5 46z" />
    <glyph glyph-name="uni0422" unicode="&#x422;" horiz-adv-x="596" 
d="M576 700v-84h-230v-616h-96v616h-230v84h556z" />
    <glyph glyph-name="uni0423" unicode="&#x423;" horiz-adv-x="704" 
d="M580 700h104l-363 -700h-108l94 179l-287 521h111l233 -425z" />
    <glyph glyph-name="uni0424" unicode="&#x424;" horiz-adv-x="826" 
d="M656 583q66 -34 100.5 -95t34.5 -138t-34.5 -138t-100.5 -95t-157 -34h-38v-95h-96v95h-28q-94 0 -162 34t-104 95t-36 138q0 78 35 138.5t103 94.5t164 34h28v95h96v-95h38q91 0 157 -34zM186.5 209q53.5 -50 150.5 -50h29v382h-29q-99 0 -151.5 -50t-52.5 -141
t53.5 -141zM642 209q51 50 51 141t-51 141t-143 50h-39v-382h39q92 0 143 50z" />
    <glyph glyph-name="uni0425" unicode="&#x425;" horiz-adv-x="704" 
d="M293 353l-268 347h118l209 -280l209 280h116l-266 -342l274 -358h-117l-216 289l-215 -289h-117z" />
    <glyph glyph-name="uni0426" unicode="&#x426;" horiz-adv-x="755" 
d="M650 86h80v-226h-92v140h-558v700h96v-614h378v614h96v-614z" />
    <glyph glyph-name="uni0427" unicode="&#x427;" horiz-adv-x="672" 
d="M592 700v-700h-96v296q-40 -13 -87 -20t-86 -7q-124 0 -193.5 59.5t-69.5 160.5v211h96v-216q0 -62 47.5 -95.5t134.5 -33.5q94 0 158 31v314h96z" />
    <glyph glyph-name="uni0428" unicode="&#x428;" horiz-adv-x="1040" 
d="M864 700h96v-700h-880v700h96v-614h296v614h96v-614h296v614z" />
    <glyph glyph-name="uni0429" unicode="&#x429;" horiz-adv-x="1065" 
d="M1040 86v-226h-92v140h-868v700h96v-614h296v614h96v-614h296v614h96v-614h80z" />
    <glyph glyph-name="uni042A" unicode="&#x42a;" horiz-adv-x="702" 
d="M610.5 353.5q61.5 -56.5 61.5 -148.5t-63 -148.5t-179 -56.5h-230v616h-180v84h276v-290h139q114 0 175.5 -56.5zM539 113.5q35 34.5 35 91.5t-35 91.5t-93 34.5h-150v-252h150q58 0 93 34.5z" />
    <glyph glyph-name="uni042B" unicode="&#x42b;" horiz-adv-x="833" 
d="M490.5 353.5q61.5 -56.5 61.5 -148.5t-63 -148.5t-179 -56.5h-230v700h96v-290h139q114 0 175.5 -56.5zM419 113.5q35 34.5 35 91.5t-35 91.5t-93 34.5h-150v-252h150q58 0 93 34.5zM657 700h96v-700h-96v700z" />
    <glyph glyph-name="uni042C" unicode="&#x42c;" horiz-adv-x="582" 
d="M490.5 353.5q61.5 -56.5 61.5 -148.5t-63 -148.5t-179 -56.5h-230v700h96v-290h139q114 0 175.5 -56.5zM419 113.5q35 34.5 35 91.5t-35 91.5t-93 34.5h-150v-252h150q58 0 93 34.5z" />
    <glyph glyph-name="uni042D" unicode="&#x42d;" horiz-adv-x="694" 
d="M489.5 666.5q74.5 -45.5 117 -125.5t42.5 -180q0 -112 -43.5 -196.5t-124 -130.5t-187.5 -46q-72 0 -134 21t-111 62v112q96 -107 245 -107q72 0 128.5 29.5t89.5 84t37 128.5h-305v84h305q-4 66 -35 117.5t-81 80t-110 28.5q-85 0 -134 -41.5t-57 -118.5h-94
q6 72 42 127t98.5 86t144.5 31q92 0 166.5 -45.5z" />
    <glyph glyph-name="uni042E" unicode="&#x42e;" horiz-adv-x="1045" 
d="M832.5 665.5q78.5 -46.5 123 -129t44.5 -186.5t-44.5 -186.5t-123 -129t-177.5 -46.5q-93 0 -169 42t-122 116.5t-53 170.5h-135v-317h-96v700h96v-297h137q11 90 57.5 160.5t120.5 109.5t164 39q99 0 177.5 -46.5zM784 108.5q56 34.5 87 97t31 144.5t-31 144.5t-87 97
t-129 34.5t-129 -34.5t-87 -97t-31 -144.5t31 -144.5t87 -97t129 -34.5t129 34.5z" />
    <glyph glyph-name="uni042F" unicode="&#x42f;" horiz-adv-x="634" 
d="M554 0h-96v298h-101l-234 -298h-123l247 305q-82 17 -125 68.5t-43 125.5q0 91 63.5 146t180.5 55h231v-700zM458 379v240h-151q-59 0 -94.5 -33t-35.5 -87t35.5 -87t94.5 -33h151z" />
    <glyph glyph-name="uni0430" unicode="&#x430;" horiz-adv-x="515" 
d="M399.5 453q50.5 -49 50.5 -137v-316h-90v95q-30 -50 -78.5 -78.5t-104.5 -28.5q-67 0 -107 35t-40 94q0 58 46 92t131 54l66 15q49 11 69.5 24.5t20.5 41.5q0 38 -31.5 59.5t-86.5 21.5q-47 0 -96.5 -23t-84.5 -58v94q40 31 91.5 47.5t103.5 16.5q90 0 140.5 -49z
M314.5 99q45.5 40 45.5 102v49q-34 -20 -79 -32l-43 -10q-61 -14 -88 -34.5t-27 -51.5q0 -29 20 -46t55 -17q71 0 116.5 40z" />
    <glyph glyph-name="uni0431" unicode="&#x431;" horiz-adv-x="592" 
d="M439 444.5q53 -31.5 83 -86.5t30 -124q0 -71 -33 -127t-90.5 -87.5t-130.5 -31.5q-74 0 -131.5 36t-90 105t-32.5 165q0 143 45.5 216t124.5 103q61 23 154 51q56 17 57 48h80q0 -49 -22.5 -77.5t-68.5 -42.5q-43 -12 -46 -13q-67 -18 -124 -38q-50 -16 -81.5 -57
t-35.5 -129q24 54 76.5 87.5t116.5 33.5q66 0 119 -31.5zM414 111q44 47 44 123q0 77 -44 124t-116 47q-73 0 -117 -47t-44 -124t44 -123.5t117 -46.5q72 0 116 47z" />
    <glyph glyph-name="uni0432" unicode="&#x432;" horiz-adv-x="495" 
d="M431.5 208.5q23.5 -30.5 23.5 -67.5q0 -68 -48 -104.5t-135 -36.5h-202v490h200q82 0 126.5 -34.5t44.5 -98.5q0 -31 -19 -57t-56 -44q42 -17 65.5 -47.5zM158 419v-133h103q90 0 90 66q0 67 -86 67h-107zM337 93q24 18 24 52q0 35 -23 53t-67 18h-113v-141h109
q46 0 70 18z" />
    <glyph glyph-name="uni0433" unicode="&#x433;" horiz-adv-x="400" 
d="M380 490v-80h-220v-410h-90v490h310z" />
    <glyph glyph-name="uni0434" unicode="&#x434;" horiz-adv-x="538" 
d="M518 -100h-86v100h-336v-100h-86v180h54q13 35 20 97t7 171v142h367v-410h60v-180zM368 80v333h-189v-57q0 -189 -32 -276h221z" />
    <glyph glyph-name="uni0435" unicode="&#x435;" horiz-adv-x="536" 
d="M493 219h-361q8 -72 53 -113.5t114 -41.5q47 0 92.5 19t78.5 52v-89q-72 -58 -177 -58q-78 0 -135 32.5t-87.5 92.5t-30.5 140q0 71 31.5 127.5t85 89t117.5 32.5q107 0 164.5 -64.5t57.5 -169.5q0 -23 -3 -49zM178.5 391q-39.5 -39 -46.5 -101h272q-3 74 -40 107t-90 33
q-56 0 -95.5 -39z" />
    <glyph glyph-name="uni0436" unicode="&#x436;" horiz-adv-x="784" 
d="M784 0h-124l-223 228v-228h-90v229l-226 -229h-121l255 254l-227 236h110l209 -218v218h90v-218l212 218h107l-226 -234z" />
    <glyph glyph-name="uni0437" unicode="&#x437;" horiz-adv-x="474" 
d="M409 217.5q25 -28.5 25 -68.5q0 -76 -52.5 -118.5t-153.5 -42.5q-50 0 -94.5 14t-78.5 41v100q33 -38 77.5 -57.5t98.5 -19.5q52 0 82 21.5t30 59.5q0 26 -23.5 45.5t-66.5 19.5h-80v75h73q84 0 84 69q0 32 -25.5 51t-69.5 19q-86 0 -108 -86h-82q7 74 58 118t137 44
q77 0 126.5 -38t49.5 -99q0 -35 -17 -60.5t-52 -43.5q37 -15 62 -43.5z" />
    <glyph glyph-name="uni0438" unicode="&#x438;" horiz-adv-x="570" 
d="M420 490h80v-490h-90v367l-314 -367h-26v490h90v-303z" />
    <glyph glyph-name="uni0439" unicode="&#x439;" horiz-adv-x="570" 
d="M420 490h80v-490h-90v367l-314 -367h-26v490h90v-303zM114 643v92q31 -33 75 -51.5t91 -18.5t91 18.5t75 51.5v-92q-66 -54 -166 -54t-166 54z" />
    <glyph glyph-name="uni043A" unicode="&#x43a;" horiz-adv-x="537" 
d="M537 0h-130l-247 232v-232h-90v490h90v-221l224 221h113l-237 -231z" />
    <glyph glyph-name="uni043B" unicode="&#x43b;" horiz-adv-x="549" 
d="M479 0h-90v410h-180v-90q0 -122 -12.5 -191t-43.5 -100.5t-87 -31.5q-32 0 -51 8v84q25 -11 43 -11q25 0 38 25.5t18 81t5 155.5v150h360v-490z" />
    <glyph glyph-name="uni043C" unicode="&#x43c;" horiz-adv-x="660" 
d="M499 490h91v-490h-88v355l-167 -283h-10l-167 283v-355h-88v490h94l168 -278z" />
    <glyph glyph-name="uni043D" unicode="&#x43d;" horiz-adv-x="560" 
d="M400 490h90v-490h-90v210h-240v-210h-90v490h90v-200h240v200z" />
    <glyph glyph-name="uni043E" unicode="&#x43e;" horiz-adv-x="594" 
d="M164.5 21q-58.5 33 -91.5 91.5t-33 132.5t33 132.5t91.5 91.5t132.5 33t132.5 -33t91.5 -91.5t33 -132.5t-33 -132.5t-91.5 -91.5t-132.5 -33t-132.5 33zM415.5 113.5q44.5 49.5 44.5 131.5t-44.5 131.5t-118.5 49.5t-118.5 -49.5t-44.5 -131.5t44.5 -131.5t118.5 -49.5
t118.5 49.5z" />
    <glyph glyph-name="uni043F" unicode="&#x43f;" horiz-adv-x="555" 
d="M485 490v-490h-90v410h-235v-410h-90v490h415z" />
    <glyph glyph-name="uni0440" unicode="&#x440;" horiz-adv-x="594" 
d="M450.5 470.5q49.5 -31.5 76.5 -90t27 -135.5t-27 -135.5t-76.5 -90t-115.5 -31.5q-56 0 -102 29t-73 81v-320h-90v712h90v-98q27 52 73 81t102 29q66 0 115.5 -31.5zM418 113.5q42 49.5 42 131.5t-42 131.5t-111 49.5q-71 0 -109 -46t-38 -135t38 -135t109 -46
q69 0 111 49.5z" />
    <glyph glyph-name="uni0441" unicode="&#x441;" horiz-adv-x="534" 
d="M160 21.5q-58 33.5 -89 93.5t-31 138q0 71 31 128t85 89t122 32q100 0 152.5 -50.5t55.5 -134.5h-88q-13 109 -120 109q-41 0 -74 -22.5t-51.5 -62t-18.5 -88.5q0 -87 47.5 -136.5t124.5 -49.5q47 0 91.5 19.5t76.5 53.5v-95q-71 -57 -177 -57q-79 0 -137 33.5z" />
    <glyph glyph-name="uni0442" unicode="&#x442;" horiz-adv-x="440" 
d="M420 490v-80h-155v-410h-90v410h-155v80h400z" />
    <glyph glyph-name="uni0443" unicode="&#x443;" horiz-adv-x="539" 
d="M427 490h97l-321 -712h-92l125 268l-221 444h105l163 -345z" />
    <glyph glyph-name="uni0444" unicode="&#x444;" horiz-adv-x="898" 
d="M760.5 470q46.5 -32 72 -90.5t25.5 -134.5t-25.5 -134.5t-72 -90.5t-106.5 -32q-52 0 -93.5 27t-66.5 75v-312h-90v312q-25 -48 -66.5 -75t-93.5 -27q-60 0 -106.5 32t-72 90.5t-25.5 134.5t25.5 134.5t72 90.5t106.5 32q52 0 93.5 -27t66.5 -75v312h90v-312
q25 48 66.5 75t93.5 27q60 0 106.5 -32zM374 110q35 46 35 135t-35 135t-100 46q-63 0 -101.5 -49.5t-38.5 -131.5t38.5 -131.5t101.5 -49.5q65 0 100 46zM725.5 113.5q38.5 49.5 38.5 131.5t-38.5 131.5t-101.5 49.5q-65 0 -100 -46t-35 -135t35 -135t100 -46
q63 0 101.5 49.5z" />
    <glyph glyph-name="uni0445" unicode="&#x445;" horiz-adv-x="511" 
d="M395 0l-140 189l-140 -189h-107l190 250l-183 240h110l131 -179l135 179h104l-183 -240l193 -250h-110z" />
    <glyph glyph-name="uni0446" unicode="&#x446;" horiz-adv-x="565" 
d="M485 80h60v-180h-86v100h-389v490h90v-410h235v410h90v-410z" />
    <glyph glyph-name="uni0447" unicode="&#x447;" horiz-adv-x="502" 
d="M432 490v-490h-90v196q-59 -19 -112 -19q-85 0 -138 43t-52 112l2 158l90 -1l-2 -156q-1 -37 28.5 -57.5t77.5 -20.5q53 0 106 17v218h90z" />
    <glyph glyph-name="uni0448" unicode="&#x448;" horiz-adv-x="780" 
d="M620 490h90v-490h-640v490h90v-410h185v410h90v-410h185v410z" />
    <glyph glyph-name="uni0449" unicode="&#x449;" horiz-adv-x="790" 
d="M770 80v-180h-86v100h-614v490h90v-410h185v410h90v-410h185v410h90v-410h60z" />
    <glyph glyph-name="uni044A" unicode="&#x44a;" horiz-adv-x="530" 
d="M458.5 258q46.5 -38 46.5 -109q0 -72 -48 -110.5t-135 -38.5h-182v410h-120v80h210v-194h96q86 0 132.5 -38zM411 149q0 37 -23 56t-67 19h-91v-148h87q94 0 94 73z" />
    <glyph glyph-name="uni044B" unicode="&#x44b;" horiz-adv-x="660" 
d="M388.5 258q46.5 -38 46.5 -109q0 -72 -48 -110.5t-135 -38.5h-182v490h90v-194h96q86 0 132.5 -38zM500 490h90v-490h-90v490zM341 149q0 37 -23 56t-67 19h-91v-148h87q94 0 94 73z" />
    <glyph glyph-name="uni044C" unicode="&#x44c;" horiz-adv-x="460" 
d="M388.5 258q46.5 -38 46.5 -109q0 -72 -48 -110.5t-135 -38.5h-182v490h90v-194h96q86 0 132.5 -38zM341 149q0 37 -23 56t-67 19h-91v-148h87q94 0 94 73z" />
    <glyph glyph-name="uni044D" unicode="&#x44d;" horiz-adv-x="530" 
d="M372.5 470.5q54.5 -31.5 86 -86.5t31.5 -124q0 -80 -31 -142t-89 -96t-137 -34q-101 0 -168 50v94q32 -30 75 -47t87 -17q69 0 113 38t55 106h-201v78h201q-9 62 -47.5 100t-95.5 38q-106 0 -124 -101h-83q7 79 59.5 127t147.5 48q66 0 120.5 -31.5z" />
    <glyph glyph-name="uni044E" unicode="&#x44e;" horiz-adv-x="784" 
d="M621.5 469q57.5 -33 90 -91.5t32.5 -132.5t-32.5 -132.5t-90 -91.5t-129.5 -33q-66 0 -119 28t-86 78.5t-40 115.5h-87v-210h-90v490h90v-200h88q9 62 42 110t85.5 75t116.5 27q72 0 129.5 -33zM606 114q44 50 44 131t-44 131t-114 50q-71 0 -114.5 -49.5t-43.5 -131.5
t43.5 -131.5t114.5 -49.5q70 0 114 50z" />
    <glyph glyph-name="uni044F" unicode="&#x44f;" horiz-adv-x="493" 
d="M423 0h-90v196h-76l-141 -196h-106l152 205q-50 15 -80.5 51t-30.5 87q0 70 47.5 108.5t133.5 38.5h191v-490zM333 269v146h-96q-46 0 -69.5 -18.5t-23.5 -53.5q0 -36 23 -55t66 -19h100z" />
    <glyph glyph-name="uni0451" unicode="&#x451;" horiz-adv-x="536" 
d="M493 219h-361q8 -72 53 -113.5t114 -41.5q47 0 92.5 19t78.5 52v-89q-72 -58 -177 -58q-78 0 -135 32.5t-87.5 92.5t-30.5 140q0 71 31.5 127.5t85 89t117.5 32.5q107 0 164.5 -64.5t57.5 -169.5q0 -23 -3 -49zM178.5 391q-39.5 -39 -46.5 -101h272q-3 74 -40 107t-90 33
q-56 0 -95.5 -39zM146 617q-17 17 -17 43t17 43t43 17t43 -17t17 -43t-17 -43t-43 -17t-43 17zM316 617q-17 17 -17 43t17 43t43 17t43 -17t17 -43t-17 -43t-43 -17t-43 17z" />
    <glyph glyph-name="uni0454" unicode="&#x454;" horiz-adv-x="533" 
d="M397.5 86.5q44.5 19.5 76.5 53.5v-95q-71 -57 -177 -57q-79 0 -137 33.5t-89 93.5t-31 138q0 71 31.5 127.5t86 89t120.5 32.5q96 0 149 -48t58 -127h-88q-17 101 -119 101q-56 0 -95 -38.5t-48 -100.5h201v-78h-201q11 -68 57.5 -106t113.5 -38q47 0 91.5 19.5z" />
    <glyph glyph-name="uni0456" unicode="&#x456;" horiz-adv-x="230" 
d="M72 617q-17 17 -17 43t17 43t43 17t43 -17t17 -43t-17 -43t-43 -17t-43 17zM70 490h90v-490h-90v490z" />
    <glyph glyph-name="uni0457" unicode="&#x457;" horiz-adv-x="230" 
d="M-13 617q-17 17 -17 43t17 43t43 17t43 -17t17 -43t-17 -43t-43 -17t-43 17zM157 617q-17 17 -17 43t17 43t43 17t43 -17t17 -43t-17 -43t-43 -17t-43 17zM70 490h90v-490h-90v490z" />
    <glyph glyph-name="uni045E" unicode="&#x45e;" horiz-adv-x="539" 
d="M427 490h97l-321 -712h-92l125 268l-221 444h105l163 -345zM97 643v92q31 -33 75 -51.5t91 -18.5t91 18.5t75 51.5v-92q-66 -54 -166 -54t-166 54z" />
    <glyph glyph-name="uni0490" unicode="&#x490;" horiz-adv-x="530" 
d="M418 826h92v-210h-334v-616h-96v700h338v126z" />
    <glyph glyph-name="uni0491" unicode="&#x491;" horiz-adv-x="400" 
d="M294 580h86v-170h-220v-410h-90v490h224v90z" />
    <glyph glyph-name="endash" unicode="&#x2013;" horiz-adv-x="540" 
d="M60 330h420v-80h-420v80z" />
    <glyph glyph-name="emdash" unicode="&#x2014;" horiz-adv-x="670" 
d="M60 330h550v-80h-550v80z" />
    <glyph glyph-name="quoteleft" unicode="&#x2018;" horiz-adv-x="260" 
d="M57 481l99 231h41l-27 -231h-113z" />
    <glyph glyph-name="quoteright" unicode="&#x2019;" horiz-adv-x="260" 
d="M90 712h113l-99 -231h-41z" />
    <glyph glyph-name="quotesinglbase" unicode="&#x201a;" horiz-adv-x="260" 
d="M90 131h113l-99 -231h-41z" />
    <glyph glyph-name="quotedblleft" unicode="&#x201c;" horiz-adv-x="420" 
d="M57 491l99 231h41l-27 -231h-113zM217 491l99 231h41l-27 -231h-113z" />
    <glyph glyph-name="quotedblright" unicode="&#x201d;" horiz-adv-x="420" 
d="M90 722h113l-99 -231h-41zM250 722h113l-99 -231h-41z" />
    <glyph glyph-name="quotedblbase" unicode="&#x201e;" horiz-adv-x="420" 
d="M90 131h113l-99 -231h-41zM250 131h113l-99 -231h-41z" />
    <glyph glyph-name="dagger" unicode="&#x2020;" horiz-adv-x="440" 
d="M420 490v-80h-155v-468l-90 -59v527h-155v80h155v210h90v-210h155z" />
    <glyph glyph-name="daggerdbl" unicode="&#x2021;" horiz-adv-x="440" 
d="M420 410h-155v-120h155v-80h-155v-268l-90 -59v327h-155v80h155v120h-155v80h155v210h90v-210h155v-80z" />
    <glyph glyph-name="bullet" unicode="&#x2022;" horiz-adv-x="420" 
d="M117 197q-37 37 -37 93t37 93t93 37t93 -37t37 -93t-37 -93t-93 -37t-93 37z" />
    <glyph glyph-name="ellipsis" unicode="&#x2026;" horiz-adv-x="780" 
d="M89.5 14.5q-19.5 19.5 -19.5 50.5t19.5 50.5t50.5 19.5t50.5 -19.5t19.5 -50.5t-19.5 -50.5t-50.5 -19.5t-50.5 19.5zM339.5 14.5q-19.5 19.5 -19.5 50.5t19.5 50.5t50.5 19.5t50.5 -19.5t19.5 -50.5t-19.5 -50.5t-50.5 -19.5t-50.5 19.5zM589.5 14.5
q-19.5 19.5 -19.5 50.5t19.5 50.5t50.5 19.5t50.5 -19.5t19.5 -50.5t-19.5 -50.5t-50.5 -19.5t-50.5 19.5z" />
    <glyph glyph-name="guilsinglleft" unicode="&#x2039;" horiz-adv-x="322" 
d="M135 291l147 -176h-97l-145 175l145 175h95z" />
    <glyph glyph-name="guilsinglright" unicode="&#x203a;" horiz-adv-x="322" 
d="M137 465l145 -175l-145 -175h-95l145 174l-147 176h97z" />
    <glyph glyph-name="Euro" unicode="&#x20ac;" 
d="M577 165v-104q-82 -73 -209 -73q-115 0 -191.5 71t-100.5 194h-76v60h68q-2 32 -2 48q0 17 1 26h-67v60h73q21 120 93 192.5t178 72.5q109 0 166.5 -60.5t63.5 -161.5h-87q-9 68 -47 103.5t-101 35.5t-108.5 -49t-62.5 -133h192v-60h-199q-1 -9 -1 -26q0 -18 2 -48h198
v-60h-189q19 -87 70 -134t127 -47q129 0 209 93z" />
    <glyph glyph-name="uni20B4" unicode="&#x20b4;" 
d="M390 387l-95 -74h275v-60h-347q-20 -19 -31 -42.5t-11 -45.5q0 -39 32 -64.5t93 -25.5q60 0 117 26.5t100 72.5v-109q-86 -77 -225 -77q-65 0 -111 21.5t-69 56t-23 74.5q0 30 14 59.5t41 53.5h-120v60h175l96 74h-271v60h337q24 21 36.5 46t12.5 49q0 38 -28 63.5
t-81 25.5q-117 0 -133 -103h-89q11 89 72.5 136.5t151.5 47.5q62 0 104.5 -20.5t63.5 -53.5t21 -72q0 -29 -16 -62.5t-44 -56.5h132v-60h-180z" />
    <glyph glyph-name="uni2116" unicode="&#x2116;" horiz-adv-x="1056" 
d="M971.5 656q44.5 -45 44.5 -114t-44.5 -114t-113.5 -45t-113.5 45t-44.5 114t44.5 114t113.5 45t113.5 -45zM526 211v489h94v-700h-33l-413 552v-552h-94v700h86zM919 472.5q23 26.5 23 69.5t-23 69.5t-61 26.5t-61 -26.5t-23 -69.5t23 -69.5t61 -26.5t61 26.5z" />
    <glyph glyph-name="trademark" unicode="&#x2122;" horiz-adv-x="626" 
d="M109 649h-79v51h214v-51h-79v-209h-56v209zM280 700h55l84 -130l83 130h54v-260h-55v169l-82 -133h-2l-82 133v-169h-55v260z" />
    <glyph glyph-name="partialdiff" unicode="&#x2202;" horiz-adv-x="583" 
d="M543 258q0 -78 -31.5 -139.5t-87.5 -96t-127 -34.5q-74 0 -132.5 32.5t-91.5 89.5t-33 129q0 71 30.5 127.5t84 88t121.5 31.5q33 0 71 -18.5t63 -51.5q-21 54 -78.5 124t-151.5 172h104q259 -263 259 -454zM415 110.5q45 48.5 45 128.5t-45 128.5t-118 48.5t-118 -48.5
t-45 -128.5t45 -128.5t118 -48.5t118 48.5z" />
    <glyph glyph-name="emptyset" unicode="&#x2205;" 
d="M537 345.5q20 -47.5 20 -100.5q0 -69 -35 -128t-94 -94t-128 -35q-62 0 -122 34l-26 -34h-87l57 77q-37 36 -58 82.5t-21 97.5q0 69 35 128t94 94t128 35q67 0 125 -32l24 32h86l-54 -73q36 -36 56 -83.5zM168 126l210 281q-39 18 -78 18q-48 0 -88.5 -24.5t-64.5 -65.5
t-24 -90q0 -68 45 -119zM388.5 89.5q40.5 24.5 64.5 65.5t24 90q0 68 -45 119l-209 -281q38 -18 77 -18q48 0 88.5 24.5z" />
    <glyph glyph-name="minus" unicode="&#x2212;" 
d="M90 330h420v-80h-420v80z" />
    <glyph glyph-name="approxequal" unicode="&#x2248;" 
d="M203 435q31 0 55.5 -7.5t54.5 -22.5q26 -12 44 -18t39 -6q27 0 62 17t52 44v-92q-47 -47 -113 -47q-31 0 -55.5 7.5t-54.5 22.5q-26 12 -44 18t-39 6q-27 0 -62 -17t-52 -44v92q47 47 113 47zM203 275q31 0 55.5 -7.5t54.5 -22.5q26 -12 44 -18t39 -6q27 0 62 17t52 44
v-92q-47 -47 -113 -47q-31 0 -55.5 7.5t-54.5 22.5q-26 12 -44 18t-39 6q-27 0 -62 -17t-52 -44v92q47 47 113 47z" />
    <glyph glyph-name="notequal" unicode="&#x2260;" 
d="M510 330h-147l-40 -90h187v-80h-223l-37 -82h-80l37 82h-117v80h153l40 90h-193v80h229l41 92h80l-41 -92h111v-80z" />
    <glyph glyph-name="lessequal" unicode="&#x2264;" 
d="M510 502v-80l-312 -103l312 -103v-78l-420 143v78zM90 0v80h420v-80h-420z" />
    <glyph glyph-name="greaterequal" unicode="&#x2265;" 
d="M90 502l420 -143v-78l-420 -143v78l312 103l-312 103v80zM90 0v80h420v-80h-420z" />
    <glyph glyph-name="uni0430.ss02" horiz-adv-x="594" 
d="M524 490v-490h-90v98q-27 -52 -73 -81t-102 -29q-66 0 -115.5 31.5t-76.5 90t-27 135.5t27 135.5t76.5 90t115.5 31.5q56 0 102 -29t73 -81v98h90zM396 110q38 46 38 135t-38 135t-109 46q-69 0 -111 -49.5t-42 -131.5t42 -131.5t111 -49.5q71 0 109 46z" />
    <glyph glyph-name="uni04070407" horiz-adv-x="532" 
d="M85 700h96v-700h-96v700zM351 700h96v-700h-96v700zM-17 787q-17 17 -17 43t17 43t43 17t43 -17t17 -43t-17 -43t-43 -17t-43 17zM143 787q-17 17 -17 43t17 43t43 17t43 -17t17 -43t-17 -43t-43 -17t-43 17zM303 787q-17 17 -17 43t17 43t43 17t43 -17t17 -43t-17 -43
t-43 -17t-43 17zM463 787q-17 17 -17 43t17 43t43 17t43 -17t17 -43t-17 -43t-43 -17t-43 17z" />
    <glyph glyph-name="uni04560457" horiz-adv-x="460" 
d="M62 617q-17 17 -17 43t17 43t43 17t43 -17t17 -43t-17 -43t-43 -17t-43 17zM222 617q-17 17 -17 43t17 43t43 17t43 -17t17 -43t-17 -43t-43 -17t-43 17zM382 617q-17 17 -17 43t17 43t43 17t43 -17t17 -43t-17 -43t-43 -17t-43 17zM70 490h90v-490h-90v490zM300 490h90
v-490h-90v490z" />
    <glyph glyph-name="uni04570457" horiz-adv-x="460" 
d="M-53 617q-17 17 -17 43t17 43t43 17t43 -17t17 -43t-17 -43t-43 -17t-43 17zM107 617q-17 17 -17 43t17 43t43 17t43 -17t17 -43t-17 -43t-43 -17t-43 17zM267 617q-17 17 -17 43t17 43t43 17t43 -17t17 -43t-17 -43t-43 -17t-43 17zM427 617q-17 17 -17 43t17 43t43 17
t43 -17t17 -43t-17 -43t-43 -17t-43 17zM70 490h90v-490h-90v490zM300 490h90v-490h-90v490z" />
    <glyph glyph-name="zero.zero" horiz-adv-x="640" 
d="M511.5 620.5q68.5 -91.5 68.5 -270.5q0 -106 -33 -188.5t-92 -128t-135 -45.5q-123 0 -191.5 91.5t-68.5 270.5q0 106 33 188.5t92 128t135 45.5q123 0 191.5 -91.5zM213 577l251 -379q20 63 20 152q0 132 -43 205.5t-121 73.5q-66 0 -107 -52zM427 123l-251 379
q-20 -63 -20 -152q0 -132 43 -205.5t121 -73.5q66 0 107 52z" />
    <glyph glyph-name="bullet.ss01" horiz-adv-x="925" 
d="M279.5 38.5q-83.5 49.5 -131.5 132.5t-48 181t49.5 181.5t133 131.5t181.5 48t181.5 -49.5t131.5 -133t48 -181.5t-49.5 -181t-133 -131t-181.5 -48t-181.5 49.5zM638 46q81 47 129 127.5t48 175.5q0 96 -47 177.5t-127.5 129t-176.5 47.5q-62 0 -115 -19
q11 -20 15.5 -39.5t8.5 -47.5q-9 19 -27.5 34t-40.5 15q-46 0 -92 -46q-49 -49 -76 -113t-27 -135q0 -96 47 -177t127.5 -128.5t176.5 -47.5t177 47zM539 583q-50 0 -95 -31q18 27 51 51t62 24q57 0 73 -94q-31 50 -91 50zM237 386q-16 20 -16 63q0 33 10.5 61.5t27.5 45
t35 16.5q20 0 32 -18q16 -22 16 -61q0 -16 -3 -34q-7 -39 -27 -65t-42 -26h-7q-16 2 -26 18zM305 400q18 24 25 61q3 17 3 32q0 38 -15 57q-8 11 -19 13q-1 0 -2.5 0.5t-2.5 -0.5q-19 0 -37 -25t-25 -61q-3 -16 -3 -31q0 -36 15 -56q11 -14 24 -14q19 0 37 24zM421 448
q34 30 68.5 47t60.5 17q25 0 35 -15q7 -10 7 -25q0 -29 -23 -67q4 12 4 26q0 23 -13.5 34t-36.5 11q-25 0 -54.5 -12t-58.5 -34q-21 -17 -38 -35q23 30 49 53zM279.5 446q-5.5 11 -4.5 27h4q4 0 7.5 3.5t3.5 8.5q0 9 -9 11q10 17 20 17q9 0 15 -10t6 -24q0 -18 -8 -31
t-19 -13q-10 0 -15.5 11zM325 94.5q-62 56.5 -100.5 129.5t-36.5 113q25 -11 63 -19t84 -8q184 0 376 130q-49 -170 -116.5 -287t-139.5 -116q-68 1 -130 57.5zM594 174l-24 1q-94 0 -144 -32.5t-66 -61.5q47 -33 97 -33q69 0 137 126z" />
    <glyph glyph-name="asterisk.ss01" horiz-adv-x="405" 
d="M76 421l85 106l-131 37l20 59l126 -47l-6 136h65l-7 -135l127 47l20 -59l-131 -37l85 -106l-52 -38l-74 113l-75 -114z" />
    <glyph glyph-name="caron.alt" 
d="M244 712h95l-84 -161h-34z" />
    <glyph glyph-name="brevecombcy" horiz-adv-x="0" 
d="M-466 643v92q31 -33 75 -51.5t91 -18.5t91 18.5t75 51.5v-92q-66 -54 -166 -54t-166 54z" />
    <glyph glyph-name="rozetka" horiz-adv-x="925" 
d="M279.5 38.5q-83.5 49.5 -131.5 132.5t-48 181t49.5 181.5t133 131.5t181.5 48t181.5 -49.5t131.5 -133t48 -181.5t-49.5 -181t-133 -131t-181.5 -48t-181.5 49.5zM638 46q81 47 129 127.5t48 175.5q0 96 -47 177.5t-127.5 129t-176.5 47.5q-62 0 -115 -19
q11 -20 15.5 -39.5t8.5 -47.5q-9 19 -27.5 34t-40.5 15q-46 0 -92 -46q-49 -49 -76 -113t-27 -135q0 -96 47 -177t127.5 -128.5t176.5 -47.5t177 47zM539 583q-50 0 -95 -31q18 27 51 51t62 24q57 0 73 -94q-31 50 -91 50zM237 386q-16 20 -16 63q0 33 10.5 61.5t27.5 45
t35 16.5q20 0 32 -18q16 -22 16 -61q0 -16 -3 -34q-7 -39 -27 -65t-42 -26h-7q-16 2 -26 18zM305 400q18 24 25 61q3 17 3 32q0 38 -15 57q-8 11 -19 13q-1 0 -2.5 0.5t-2.5 -0.5q-19 0 -37 -25t-25 -61q-3 -16 -3 -31q0 -36 15 -56q11 -14 24 -14q19 0 37 24zM421 448
q34 30 68.5 47t60.5 17q25 0 35 -15q7 -10 7 -25q0 -29 -23 -67q4 12 4 26q0 23 -13.5 34t-36.5 11q-25 0 -54.5 -12t-58.5 -34q-21 -17 -38 -35q23 30 49 53zM279.5 446q-5.5 11 -4.5 27h4q4 0 7.5 3.5t3.5 8.5q0 9 -9 11q10 17 20 17q9 0 15 -10t6 -24q0 -18 -8 -31
t-19 -13q-10 0 -15.5 11zM325 94.5q-62 56.5 -100.5 129.5t-36.5 113q25 -11 63 -19t84 -8q184 0 376 130q-49 -170 -116.5 -287t-139.5 -116q-68 1 -130 57.5zM594 174l-24 1q-94 0 -144 -32.5t-66 -61.5q47 -33 97 -33q69 0 137 126z" />
    <glyph glyph-name="rozetka.bg" horiz-adv-x="925" 
d="M279.5 38.5q-83.5 49.5 -131.5 132.5t-48 181t49.5 181.5t133 131.5t181.5 48t181.5 -49.5t131.5 -133t48 -181.5t-49.5 -181t-133 -131t-181.5 -48t-181.5 49.5z" />
    </font>
</defs>
</svg>
